<svg xmlns="http://www.w3.org/2000/svg" viewBox="0 0 500 500"><g id="freepik--background-simple--inject-163"><path d="M436.38,76.19l-2.43-4C413.43,38.37,376.34,18,337.23,20.47a102.42,102.42,0,0,0-15,2.05C286.7,30.13,255.77,57,242.94,91.46c-7.54,20.25-9.65,43.57-24,59.65-18.63,20.92-50.25,21.58-78.06,20.71s-59.44-.13-78,20.88c-11.61,13.15-15.3,31.86-14.36,49.47,2.47,46.64,35,88.35,76.31,109.08s90,22.58,135.23,13.46c63.37-12.77,123.63-47.85,159.86-102S465.37,134.67,436.38,76.19Z" style="fill:#f5f5f5"></path></g><g id="freepik--Floor--inject-163"><path d="M455.37,477.63c0,.14-91.51.26-204.36.26s-204.38-.12-204.38-.26,91.49-.26,204.38-.26S455.37,477.49,455.37,477.63Z" style="fill:#263238"></path></g><g id="freepik--device-2--inject-163"><path d="M449.23,374.35V477.63H301.81S298,401.57,320.45,374.35Z" style="fill:#263238"></path><path d="M341.19,477.63a.8.8,0,0,1,0-.27v-.81c0-.75,0-1.78.08-3.09.09-2.69.19-6.58.4-11.38.59-9.59,1.45-22.87,3.67-37.38s5.37-27.49,8.78-36.5a69.4,69.4,0,0,1,4.68-10.39,28.06,28.06,0,0,1,1.65-2.62c.21-.29.37-.5.49-.64s.18-.21.19-.2a1,1,0,0,1-.15.23c-.12.18-.26.4-.45.67-.37.6-.93,1.47-1.55,2.66a74.39,74.39,0,0,0-4.52,10.41c-3.31,9-6.39,22-8.6,36.46s-3.14,27.74-3.82,37.32c-.24,4.77-.43,8.64-.57,11.36-.07,1.31-.13,2.35-.18,3.09l0,.81A1.14,1.14,0,0,1,341.19,477.63Z" style="fill:#455a64"></path><path d="M440,383.53v88.08H349.15s4.37-73.13,17.48-88.08Z" style="fill:#e0e0e0"></path><path d="M310.29,414.85c0-.15,5.94-.26,13.26-.26s13.27.11,13.27.26-5.94.26-13.27.26S310.29,415,310.29,414.85Z" style="fill:#455a64"></path><path d="M313.9,409.25c0-.14,5.33-.26,11.91-.26s11.91.12,11.91.26-5.33.26-11.91.26S313.9,409.4,313.9,409.25Z" style="fill:#455a64"></path><path d="M306.68,448.77s0-.09,0-.26v-.75a22.36,22.36,0,0,1,4.09-12.71,14.79,14.79,0,0,1,2.46-2.56,11.32,11.32,0,0,1,3.39-1.85,9.6,9.6,0,0,1,4.12-.42,10.49,10.49,0,0,1,4.13,1.51A15.85,15.85,0,0,1,330.7,439a25.29,25.29,0,0,1,0,19.62,15.85,15.85,0,0,1-5.84,7.23,10.49,10.49,0,0,1-4.13,1.51,9.6,9.6,0,0,1-4.12-.42,11.32,11.32,0,0,1-3.39-1.85,14.79,14.79,0,0,1-2.46-2.56,22.36,22.36,0,0,1-4.09-12.71V449c0-.17,0-.26,0-.26a.7.7,0,0,1,0,.26c0,.19,0,.44,0,.74a27.62,27.62,0,0,0,.31,2.86,21.48,21.48,0,0,0,4,9.63,14.45,14.45,0,0,0,2.42,2.47,10.83,10.83,0,0,0,3.27,1.76,9.1,9.1,0,0,0,3.94.37,10.21,10.21,0,0,0,3.92-1.45,15.53,15.53,0,0,0,5.64-7,25,25,0,0,0,0-19.22,15.45,15.45,0,0,0-5.63-7,10.21,10.21,0,0,0-3.92-1.45,9.05,9.05,0,0,0-3.93.37,10.77,10.77,0,0,0-3.28,1.76,14.45,14.45,0,0,0-2.42,2.47,21.6,21.6,0,0,0-4,9.63,27.62,27.62,0,0,0-.31,2.86c0,.3,0,.55,0,.75A.67.67,0,0,1,306.68,448.77Z" style="fill:#6853D9"></path></g><g id="freepik--Sketch--inject-163"><rect x="46.15" y="42.04" width="107.3" height="75.37" style="fill:#fff"></rect><path d="M153.46,117.41s0-.47,0-1.38,0-2.25,0-4c0-3.51,0-8.64,0-15.2,0-13.11-.07-31.93-.12-54.8l.22.21-107.3,0h0l.26-.26c0,27,0,52.55,0,75.37l-.24-.23,77.35.11,22.05.07,5.87,0,1.51,0h.53l-.5,0h-1.49l-5.82,0-22,.06-77.5.12h-.23v-.24c0-22.82,0-48.41,0-75.37v-.26h.27l107.3,0h.21V42c0,22.93-.09,41.79-.11,54.93,0,6.54-.05,11.66-.06,15.15,0,1.73,0,3,0,4S153.46,117.41,153.46,117.41Z" style="fill:#263238"></path><polygon points="118.98 60.78 118.98 54.06 123.78 52.95 137.94 65.48 137.94 72.73 132.52 74.67 118.98 60.78" style="fill:#ebebeb"></polygon><path d="M119,60.78s.12.08.3.24l.77.75,2.85,2.82c2.44,2.48,5.83,5.9,9.79,9.91l-.25-.06,5.41-2-.16.24q0-3.08,0-6.32v-.93l.09.19L123.65,53.1l.18,0L119,54.21l.12-.15c0,2.06,0,3.72-.07,4.93,0,.53,0,1,0,1.32a1.93,1.93,0,0,1,0,.47,3,3,0,0,1,0-.44c0-.35,0-.78,0-1.31,0-1.21,0-2.89-.08-5v-.13l.13,0,4.79-1.14.1,0,.08.07,14.19,12.48.09.08v7.55L138,73,132.6,74.9l-.15,0-.1-.11-9.71-10.11-2.73-2.9-.71-.78A1.82,1.82,0,0,1,119,60.78Z" style="fill:#263238"></path><path d="M141.41,87.65C141,87.94,104.82,107,104.82,107l.86-10.8,24.57-11.58Z" style="fill:#f5f5f5"></path><path d="M115.16,78.84l.36-7.15-8.76-10.22s-5.25-7.39-15.57-4.38-4.47,17.23-3.7,19.37S99.06,88.37,99.06,88.37a10.65,10.65,0,0,0,6,2.4L109,94.7,123.22,88Z" style="fill:#f5f5f5"></path><path d="M115.16,78.84s.06,0,.16.15l.43.45,1.62,1.79,6,6.68.14.16-.19.09-14.24,6.75-.14.06-.11-.11-3.92-3.92L105,91a11.36,11.36,0,0,1-5.52-2c-1.58-1.29-3-2.71-4.56-4.14s-3-2.93-4.57-4.5c-.75-.8-1.51-1.59-2.21-2.47a5.9,5.9,0,0,1-.94-1.46c-.2-.53-.39-1-.58-1.58A25.12,25.12,0,0,1,85,64.36a9.09,9.09,0,0,1,1.87-4.8A8.47,8.47,0,0,1,91,56.89a18.24,18.24,0,0,1,4.69-.73,15.9,15.9,0,0,1,2.29.12,15.23,15.23,0,0,1,2.17.5,13.78,13.78,0,0,1,6.75,4.58l0,0,8.71,10.27,0,0v0c-.15,2.28-.25,4-.33,5.29,0,.58-.08,1-.1,1.37a3.52,3.52,0,0,1-.06.48,2.63,2.63,0,0,1,0-.46c0-.33,0-.78,0-1.36,0-1.25.12-3,.21-5.33l0,.08L106.61,61.6h0a13.41,13.41,0,0,0-6.55-4.38,15.81,15.81,0,0,0-2.11-.48,14.82,14.82,0,0,0-2.22-.1,17.14,17.14,0,0,0-4.54.73,8,8,0,0,0-3.94,2.52,8.5,8.5,0,0,0-1.75,4.54,24.59,24.59,0,0,0,1.64,10.29l.57,1.57a6,6,0,0,0,.86,1.32c.68.85,1.44,1.64,2.18,2.43,1.51,1.56,3,3,4.55,4.49s3,2.88,4.5,4.11a11,11,0,0,0,5.28,1.91h.08l.06,0,3.91,4-.26,0,14.3-6.63,0,.25c-2.5-2.89-4.5-5.2-5.89-6.82l-1.55-1.82-.39-.48Z" style="fill:#263238"></path><path d="M85.92,61.61a11.39,11.39,0,0,1,1,1.33c.69,1,1.6,2.22,2.71,3.74,2.28,3.16,5.38,7.56,9,12.28.47.59.92,1.18,1.39,1.72a5.33,5.33,0,0,0,.72.71,3.72,3.72,0,0,0,.92.38,11.2,11.2,0,0,0,4,.11l.15,0,.08.11,5.59,7.58L113,91.74a4.55,4.55,0,0,1,.52.82,4.28,4.28,0,0,1-.64-.72l-1.68-2.11-5.73-7.47.23.09a11.47,11.47,0,0,1-4.16-.09,4,4,0,0,1-1.06-.43,4.57,4.57,0,0,1-.83-.81c-.5-.55-1-1.15-1.42-1.74-3.61-4.74-6.66-9.18-8.87-12.39-1.11-1.61-2-2.92-2.58-3.83A9.62,9.62,0,0,1,85.92,61.61Z" style="fill:#263238"></path><path d="M105.18,91a20.11,20.11,0,0,1-.15-4.51,19.7,19.7,0,0,1,.38-4.5,20,20,0,0,1,.15,4.51A19.52,19.52,0,0,1,105.18,91Z" style="fill:#263238"></path><polygon points="141.41 87.65 139.44 94.06 104.4 111.49 104.94 105.7 141.41 87.65" style="fill:#f5f5f5"></polygon><path d="M141.41,87.65a1,1,0,0,1-.2.11l-.55.29-2.11,1.07L130.82,93c-6.53,3.3-15.54,7.85-25.76,12.91l.14-.21c-.16,1.75-.34,3.59-.51,5.46l0,.34-.38-.26c14.94-7.43,28-13.88,35.1-17.32l-.07.08c.65-2,1.17-3.56,1.53-4.67.17-.52.31-.93.42-1.25a4.68,4.68,0,0,1,.15-.45s0,.13-.1.4-.21.71-.35,1.22l-1.39,4.83,0,.05-.05,0c-7,3.58-20,10.11-35,17.55l-.42.2,0-.46,0-.34c.18-1.87.35-3.71.51-5.46l0-.14.13-.06c10.35-5.12,19.57-9.59,26.13-12.77l7.7-3.74,2.06-1Z" style="fill:#263238"></path><path d="M119.31,54A23.39,23.39,0,0,1,122,56.26c1.6,1.45,3.79,3.49,6.18,5.76,1.75,1.68,3.38,3.24,4.78,4.6l-.2-.06c1.56-.36,2.86-.66,3.77-.85a6.46,6.46,0,0,1,1.44-.23,6.72,6.72,0,0,1-1.38.47c-.89.27-2.17.62-3.72,1l-.12,0-.09-.08-4.84-4.53c-2.39-2.27-4.54-4.35-6.07-5.87A22.17,22.17,0,0,1,119.31,54Z" style="fill:#263238"></path><path d="M132.6,74.75a15.35,15.35,0,0,1-.22-4,15.94,15.94,0,0,1,.31-4,15.63,15.63,0,0,1,.21,4A15.68,15.68,0,0,1,132.6,74.75Z" style="fill:#263238"></path><polygon points="126 58.12 125.94 58.96 129.89 62.76 132.37 62.18 132.46 61.22 128.36 57.6 126 58.12" style="fill:#e0e0e0"></polygon><polygon points="123.11 61.61 100.02 64.88 73.96 79.34 76.19 86.01 128.83 67.27 123.11 61.61" style="fill:#ebebeb"></polygon><path d="M123.11,61.61a2.19,2.19,0,0,1,.39.34L124.61,63l4.31,4.17.15.14-.19.07C119.15,70.94,100,77.8,78.05,85.63l-1.77.63-.25.09-.09-.25c-.75-2.27-1.5-4.5-2.22-6.68l-.07-.21.19-.1L99.92,64.7l0,0h0l16.9-2.3,4.61-.6,1.2-.14.4,0-.42.09-1.21.2-4.63.71-16.8,2.47.07,0-26,14.51.12-.3c.72,2.18,1.47,4.41,2.23,6.67l-.34-.16,1.78-.63c22-7.83,41.13-14.59,50.91-18l0,.21-4.18-4.23L123.47,62A4.21,4.21,0,0,1,123.11,61.61Z" style="fill:#263238"></path><path d="M107.52,63.67a32.73,32.73,0,0,1,4.28,3.88,32.45,32.45,0,0,1,3.91,4.24,31.34,31.34,0,0,1-4.28-3.87A31.43,31.43,0,0,1,107.52,63.67Z" style="fill:#263238"></path><path d="M92.17,70.39a30.31,30.31,0,0,1,2.75,3.7,29.44,29.44,0,0,1,2.6,3.8,15.66,15.66,0,0,1-3-3.5A15.72,15.72,0,0,1,92.17,70.39Z" style="fill:#263238"></path><path d="M93.53,69.23a34.33,34.33,0,0,1,3.16,4,35.22,35.22,0,0,1,3,4.11,19.3,19.3,0,0,1-3.38-3.79A19.48,19.48,0,0,1,93.53,69.23Z" style="fill:#263238"></path><path d="M110,65a24.31,24.31,0,0,1,3.32,2.91,24.69,24.69,0,0,1,3.12,3.12A15.56,15.56,0,0,1,113,68.31,15.59,15.59,0,0,1,110,65Z" style="fill:#263238"></path><path d="M70.83,68.78c.24.36,7,18.87,7,18.87l1.64,9.21L72,99.57,64.75,73.11V69.49Z" style="fill:#ebebeb"></path><path d="M70.83,68.78a1.76,1.76,0,0,1-.42.09L69.22,69l-4.45.59.12-.14c0,1.07,0,2.29,0,3.62v0L72.25,99.5l-.34-.17.12,0,7.37-2.65-.17.28c-.57-3.28-1.11-6.37-1.61-9.22v0c-2-5.61-3.73-10.32-4.95-13.7-.58-1.62-1-2.92-1.38-3.86l-.36-1c-.07-.22-.11-.34-.11-.36a8.8,8.8,0,0,1,.61,1.33c.36.88.86,2.18,1.5,3.83,1.27,3.29,3,8,5.12,13.63v0c.51,2.85,1.07,5.94,1.66,9.21l0,.21-.2.07-7.36,2.67-.12,0-.27.09-.07-.27c-2.85-10.51-5.4-20-7.17-26.48v0c0-1.33,0-2.55,0-3.62v-.13h.12l4.53-.45,1.18-.1Z" style="fill:#263238"></path><path d="M64.75,69.49a4.58,4.58,0,0,1,.42,1c.24.66.57,1.61,1,2.79.79,2.37,1.85,5.64,3,9.27.72,2.33,1.4,4.52,2,6.43l-.27-.15c2-.51,3.76-.92,5-1.19a10.41,10.41,0,0,1,1.91-.36,10.23,10.23,0,0,1-1.84.62c-1.19.34-2.89.82-4.93,1.37l-.2,0-.07-.2c-.61-1.9-1.3-4.09-2-6.41-1.14-3.63-2.15-6.93-2.85-9.32-.35-1.19-.62-2.17-.8-2.84A4.66,4.66,0,0,1,64.75,69.49Z" style="fill:#263238"></path><line x1="70.89" y1="89.05" x2="72" y2="99.57" style="fill:#ebebeb"></line><path d="M72,99.57a26.91,26.91,0,0,1-.81-5.23,26.37,26.37,0,0,1-.3-5.29,26.91,26.91,0,0,1,.81,5.23A27.29,27.29,0,0,1,72,99.57Z" style="fill:#263238"></path><path d="M71.45,94.41a13.37,13.37,0,0,1,3.49-1.3,13.46,13.46,0,0,1,3.62-.79,13,13,0,0,1-3.48,1.29A13.76,13.76,0,0,1,71.45,94.41Z" style="fill:#263238"></path><path d="M76.55,91.51s-.15.07-.21.14a.13.13,0,0,0,0,.19.14.14,0,0,0,.19,0c.07-.07.09-.18.15-.22s.22,0,.2.33a.54.54,0,1,1-.64-.65C76.51,91.28,76.6,91.46,76.55,91.51Z" style="fill:#263238"></path><path d="M73.47,92.29c0,.06-.15.08-.22.15a.15.15,0,0,0,0,.19.14.14,0,0,0,.19,0c.08-.07.09-.18.15-.22s.23,0,.2.32a.54.54,0,1,1-.64-.64C73.42,92.07,73.51,92.25,73.47,92.29Z" style="fill:#263238"></path><path d="M70.41,73.27s3.47,9.4,3.55,9.55l-2.51.53L68,73.6Z" style="fill:#e0e0e0"></path><path d="M78.12,93.66c.06.1.44,2.2.44,2.2l-5.6,2-.51-2.76Z" style="fill:#e0e0e0"></path><polygon points="114.34 78.45 106.34 81.55 105.3 77.3 111.27 75.23 114.34 78.45" style="fill:#fff"></polygon><path d="M111.62,93.48s-4.83-5.83-4.83-5.83v2L110,94.22Z" style="fill:#e0e0e0"></path><path d="M130.25,84.64a3.71,3.71,0,0,1,.76.15l2.2.55,8.25,2.14.44.12-.41.21L112,102.48l-7,3.45-.41.2,0-.45c.26-3.3.51-6.48.75-9.48v-.14l.13-.06,17.77-8.27,5.08-2.32,1.35-.6a1.73,1.73,0,0,1,.47-.17,3.51,3.51,0,0,1-.46.25l-1.34.67-5,2.46-17.62,8.41.14-.19c-.23,3-.47,6.17-.72,9.48l-.37-.25,7-3.46L141.33,87.5l0,.32-8.15-2.29-2.2-.64A7,7,0,0,1,130.25,84.64Z" style="fill:#263238"></path><polygon points="139.89 92.33 127.27 98.31 128.3 95.58 140.57 90.13 139.89 92.33" style="fill:#e0e0e0"></polygon><polygon points="120.93 102.22 118.73 101.14 105.18 106.87 104.76 110.54 120.93 102.22" style="fill:#e0e0e0"></polygon><polygon points="133.32 88.25 118.46 95.77 117.25 93.66 131.35 87.11 133.32 88.25" style="fill:#e0e0e0"></polygon><path d="M111.22,97c0,.6.69,1.12,1.58,1.15s1.64-.42,1.67-1-.69-1.11-1.58-1.15S111.24,96.35,111.22,97Z" style="fill:#e0e0e0"></path><path d="M100.74,62l-5.89,1.66L90,57.51a12.18,12.18,0,0,1,4.3-1Z" style="fill:#e0e0e0"></path><polygon points="109.2 69.78 100.2 72.73 98.94 71.26 107.65 68.45 109.2 69.78" style="fill:#6853D9"></polygon><rect x="145.96" y="35.15" width="5.1" height="22.58" transform="translate(18.96 132.63) rotate(-51)" style="fill:#e0e0e0"></rect><rect x="48.5" y="101.64" width="5.1" height="22.58" transform="translate(-68.84 81.54) rotate(-51)" style="fill:#e0e0e0"></rect></g><g id="freepik--devices-1--inject-163"><rect x="279.05" y="139.72" width="17.9" height="8.49" style="fill:#263238"></rect><path d="M362.2,237.57c-.33,1.07-2.85,45.42-2.85,45.42l19.43-.53,3.2-44.89Z" style="fill:#263238"></path><path d="M374.76,282.46a10.19,10.19,0,0,1,0-1.71c.06-1.18.13-2.75.22-4.64.21-3.91.54-9.32.94-15.29s.81-11.37,1.13-15.28c.17-1.95.31-3.53.43-4.62a6.61,6.61,0,0,1,.27-1.69s0,.14,0,.44,0,.77-.06,1.27c-.06,1.18-.15,2.74-.26,4.63-.25,4-.6,9.36-1,15.29s-.8,11.28-1.09,15.28c-.16,1.88-.29,3.44-.39,4.63A10,10,0,0,1,374.76,282.46Z" style="fill:#455a64"></path><rect x="246.8" y="234.4" width="32.24" height="47.49" style="fill:#263238"></rect><rect x="71.29" y="145.66" width="117.49" height="91.25" transform="translate(260.07 382.57) rotate(180)" style="fill:#263238"></rect><rect x="75.91" y="149.86" width="108.07" height="83.02" style="fill:#455a64"></rect><path d="M88.23,209.17s-.1-12.22-.1-27.3.05-27.31.1-27.31.1,12.22.1,27.31S88.28,209.17,88.23,209.17Z" style="fill:#263238"></path><path d="M86.11,159.51a8.07,8.07,0,0,1-1.7.09,8.13,8.13,0,0,1-1.71-.09,8.13,8.13,0,0,1,1.71-.09A8.07,8.07,0,0,1,86.11,159.51Z" style="fill:#263238"></path><path d="M86.24,156.41a8.07,8.07,0,0,1-1.7.09,8.21,8.21,0,0,1-1.71-.09,8.21,8.21,0,0,1,1.71-.09A8.07,8.07,0,0,1,86.24,156.41Z" style="fill:#263238"></path><path d="M86.11,162.85a8.07,8.07,0,0,1-1.7.09,8.13,8.13,0,0,1-1.71-.09,8.13,8.13,0,0,1,1.71-.09A8.07,8.07,0,0,1,86.11,162.85Z" style="fill:#263238"></path><path d="M86.11,166.19a8.07,8.07,0,0,1-1.7.09,8.13,8.13,0,0,1-1.71-.09,8.13,8.13,0,0,1,1.71-.09A8.07,8.07,0,0,1,86.11,166.19Z" style="fill:#263238"></path><path d="M86.11,169.53a8.07,8.07,0,0,1-1.7.09,8.13,8.13,0,0,1-1.71-.09,8.13,8.13,0,0,1,1.71-.09A8.07,8.07,0,0,1,86.11,169.53Z" style="fill:#263238"></path><path d="M86.11,172.87a8.07,8.07,0,0,1-1.7.09,8.13,8.13,0,0,1-1.71-.09,8.13,8.13,0,0,1,1.71-.09A8.07,8.07,0,0,1,86.11,172.87Z" style="fill:#263238"></path><path d="M86.11,176.21a8.07,8.07,0,0,1-1.7.09,8.13,8.13,0,0,1-1.71-.09,8.13,8.13,0,0,1,1.71-.09A8.07,8.07,0,0,1,86.11,176.21Z" style="fill:#263238"></path><path d="M86.11,179.55a8.07,8.07,0,0,1-1.7.09,8.13,8.13,0,0,1-1.71-.09,8.13,8.13,0,0,1,1.71-.09A8.07,8.07,0,0,1,86.11,179.55Z" style="fill:#263238"></path><path d="M86.11,182.89a8.07,8.07,0,0,1-1.7.09,8.13,8.13,0,0,1-1.71-.09,8.13,8.13,0,0,1,1.71-.09A8.07,8.07,0,0,1,86.11,182.89Z" style="fill:#263238"></path><path d="M86.11,186.23a8.07,8.07,0,0,1-1.7.09,8.13,8.13,0,0,1-1.71-.09,8.13,8.13,0,0,1,1.71-.09A8.07,8.07,0,0,1,86.11,186.23Z" style="fill:#263238"></path><path d="M86.11,189.57a8.07,8.07,0,0,1-1.7.09,8.13,8.13,0,0,1-1.71-.09,8.13,8.13,0,0,1,1.71-.09A8.07,8.07,0,0,1,86.11,189.57Z" style="fill:#263238"></path><path d="M86.11,192.91a8.07,8.07,0,0,1-1.7.09,8.13,8.13,0,0,1-1.71-.09,8.13,8.13,0,0,1,1.71-.09A8.07,8.07,0,0,1,86.11,192.91Z" style="fill:#263238"></path><path d="M86.11,196.25a8.07,8.07,0,0,1-1.7.09,8.13,8.13,0,0,1-1.71-.09,8.13,8.13,0,0,1,1.71-.09A8.07,8.07,0,0,1,86.11,196.25Z" style="fill:#263238"></path><path d="M86.11,199.59a8.07,8.07,0,0,1-1.7.09,8.13,8.13,0,0,1-1.71-.09,8.13,8.13,0,0,1,1.71-.09A8.07,8.07,0,0,1,86.11,199.59Z" style="fill:#263238"></path><path d="M86.11,202.93a8.07,8.07,0,0,1-1.7.09,8.13,8.13,0,0,1-1.71-.09,8.13,8.13,0,0,1,1.71-.09A8.07,8.07,0,0,1,86.11,202.93Z" style="fill:#263238"></path><path d="M86.11,206.27a8.07,8.07,0,0,1-1.7.09,8.13,8.13,0,0,1-1.71-.09,8.13,8.13,0,0,1,1.71-.09A8.07,8.07,0,0,1,86.11,206.27Z" style="fill:#263238"></path><path d="M99.78,159.31c0,.05-2,.09-4.42.09s-4.43,0-4.43-.09,2-.09,4.43-.09S99.78,159.26,99.78,159.31Z" style="fill:#263238"></path><path d="M112.11,166.19c0,.05-3.71.09-8.28.09s-8.28,0-8.28-.09,3.71-.09,8.28-.09S112.11,166.14,112.11,166.19Z" style="fill:#263238"></path><path d="M131.26,166.19c0,.05-3.71.09-8.28.09s-8.28,0-8.28-.09,3.71-.09,8.28-.09S131.26,166.14,131.26,166.19Z" style="fill:#263238"></path><path d="M123.94,169.53c0,.05-5.46.09-12.2.09s-12.21,0-12.21-.09,5.47-.09,12.21-.09S123.94,169.48,123.94,169.53Z" style="fill:#263238"></path><path d="M123.94,172.87s-5.46.09-12.2.09-12.21,0-12.21-.09,5.47-.09,12.21-.09S123.94,172.82,123.94,172.87Z" style="fill:#263238"></path><path d="M140.74,182.89c0,.05-5.46.09-12.2.09s-12.2,0-12.2-.09,5.46-.09,12.2-.09S140.74,182.84,140.74,182.89Z" style="fill:#263238"></path><path d="M133.49,176.21s-5.46.09-12.2.09-12.2,0-12.2-.09,5.46-.09,12.2-.09S133.49,176.16,133.49,176.21Z" style="fill:#263238"></path><path d="M163.32,176.21s-5.47.09-12.2.09-12.21,0-12.21-.09,5.46-.09,12.21-.09S163.32,176.16,163.32,176.21Z" style="fill:#263238"></path><path d="M153,169.53c0,.05-5.47.09-12.21.09s-12.2,0-12.2-.09,5.46-.09,12.2-.09S153,169.48,153,169.53Z" style="fill:#263238"></path><path d="M169.81,182.89c0,.05-5.47.09-12.21.09s-12.2,0-12.2-.09,5.46-.09,12.2-.09S169.81,182.84,169.81,182.89Z" style="fill:#263238"></path><path d="M166.44,172.87s-8.49.09-18.95.09-19,0-19-.09,8.48-.09,19-.09S166.44,172.82,166.44,172.87Z" style="fill:#263238"></path><path d="M99.78,162.85c0,.05-2,.09-4.42.09s-4.43,0-4.43-.09,2-.09,4.43-.09S99.78,162.8,99.78,162.85Z" style="fill:#263238"></path><path d="M104.17,176.21s-2,.09-4.43.09-4.42,0-4.42-.09,2-.09,4.42-.09S104.17,176.16,104.17,176.21Z" style="fill:#263238"></path><path d="M175.11,176.21s-2,.09-4.42.09-4.43,0-4.43-.09,2-.09,4.43-.09S175.11,176.16,175.11,176.21Z" style="fill:#263238"></path><path d="M112.11,189.55s-3.71.09-8.28.09-8.28,0-8.28-.09,3.71-.09,8.28-.09S112.11,189.5,112.11,189.55Z" style="fill:#263238"></path><path d="M131.26,189.55s-3.71.09-8.28.09-8.28,0-8.28-.09,3.71-.09,8.28-.09S131.26,189.5,131.26,189.55Z" style="fill:#263238"></path><path d="M123.94,192.89c0,.05-5.46.09-12.2.09s-12.21,0-12.21-.09,5.47-.09,12.21-.09S123.94,192.84,123.94,192.89Z" style="fill:#263238"></path><path d="M123.94,196.23c0,.05-5.46.09-12.2.09s-12.21,0-12.21-.09,5.47-.09,12.21-.09S123.94,196.18,123.94,196.23Z" style="fill:#263238"></path><path d="M133.49,199.57c0,.05-5.46.09-12.2.09s-12.2,0-12.2-.09,5.46-.09,12.2-.09S133.49,199.52,133.49,199.57Z" style="fill:#263238"></path><path d="M163.32,199.57c0,.05-5.47.09-12.2.09s-12.21,0-12.21-.09,5.46-.09,12.21-.09S163.32,199.52,163.32,199.57Z" style="fill:#263238"></path><path d="M153,192.89c0,.05-5.47.09-12.21.09s-12.2,0-12.2-.09,5.46-.09,12.2-.09S153,192.84,153,192.89Z" style="fill:#263238"></path><path d="M166.44,196.23c0,.05-8.49.09-18.95.09s-19,0-19-.09,8.48-.09,19-.09S166.44,196.18,166.44,196.23Z" style="fill:#263238"></path><path d="M104.17,199.57c0,.05-2,.09-4.43.09s-4.42,0-4.42-.09,2-.09,4.42-.09S104.17,199.52,104.17,199.57Z" style="fill:#263238"></path><path d="M175.11,199.57c0,.05-2,.09-4.42.09s-4.43,0-4.43-.09,2-.09,4.43-.09S175.11,199.52,175.11,199.57Z" style="fill:#263238"></path><path d="M88.23,229.76s-.1-4.54-.1-10.15.05-10.14.1-10.14.1,4.54.1,10.14S88.28,229.76,88.23,229.76Z" style="fill:#263238"></path><path d="M86.18,212.72a8.21,8.21,0,0,1-1.71.09,8.07,8.07,0,0,1-1.7-.09,8.07,8.07,0,0,1,1.7-.09A8.21,8.21,0,0,1,86.18,212.72Z" style="fill:#263238"></path><path d="M86.31,209.62a8.13,8.13,0,0,1-1.71.09,8.07,8.07,0,0,1-1.7-.09,8.07,8.07,0,0,1,1.7-.09A8.13,8.13,0,0,1,86.31,209.62Z" style="fill:#263238"></path><path d="M86.18,216.06a8.21,8.21,0,0,1-1.71.09,8.07,8.07,0,0,1-1.7-.09,8.07,8.07,0,0,1,1.7-.09A8.21,8.21,0,0,1,86.18,216.06Z" style="fill:#263238"></path><path d="M86.18,219.4a8.21,8.21,0,0,1-1.71.09,8.07,8.07,0,0,1-1.7-.09,8.07,8.07,0,0,1,1.7-.09A8.21,8.21,0,0,1,86.18,219.4Z" style="fill:#263238"></path><path d="M86.18,222.74a8.21,8.21,0,0,1-1.71.09,8.07,8.07,0,0,1-1.7-.09,8.07,8.07,0,0,1,1.7-.09A8.21,8.21,0,0,1,86.18,222.74Z" style="fill:#263238"></path><path d="M86.18,226.08a8.21,8.21,0,0,1-1.71.09,8.07,8.07,0,0,1-1.7-.09,8.07,8.07,0,0,1,1.7-.09A8.21,8.21,0,0,1,86.18,226.08Z" style="fill:#263238"></path><path d="M112.11,206.16c0,.05-3.71.09-8.28.09s-8.28,0-8.28-.09,3.71-.09,8.28-.09S112.11,206.11,112.11,206.16Z" style="fill:#263238"></path><path d="M131.26,206.16c0,.05-3.71.09-8.28.09s-8.28,0-8.28-.09,3.71-.09,8.28-.09S131.26,206.11,131.26,206.16Z" style="fill:#263238"></path><path d="M123.94,209.5c0,.05-5.46.09-12.2.09s-12.21,0-12.21-.09,5.47-.09,12.21-.09S123.94,209.45,123.94,209.5Z" style="fill:#263238"></path><path d="M123.94,212.84s-5.46.09-12.2.09-12.21,0-12.21-.09,5.47-.09,12.21-.09S123.94,212.79,123.94,212.84Z" style="fill:#263238"></path><path d="M140.74,222.86s-5.46.09-12.2.09-12.2,0-12.2-.09,5.46-.09,12.2-.09S140.74,222.81,140.74,222.86Z" style="fill:#263238"></path><path d="M133.49,216.18s-5.46.09-12.2.09-12.2,0-12.2-.09,5.46-.09,12.2-.09S133.49,216.13,133.49,216.18Z" style="fill:#263238"></path><path d="M163.32,216.18s-5.47.09-12.2.09-12.21,0-12.21-.09,5.46-.09,12.21-.09S163.32,216.13,163.32,216.18Z" style="fill:#263238"></path><path d="M153,209.5c0,.05-5.47.09-12.21.09s-12.2,0-12.2-.09,5.46-.09,12.2-.09S153,209.45,153,209.5Z" style="fill:#263238"></path><path d="M169.81,222.86s-5.47.09-12.21.09-12.2,0-12.2-.09,5.46-.09,12.2-.09S169.81,222.81,169.81,222.86Z" style="fill:#263238"></path><path d="M166.44,212.84s-8.49.09-18.95.09-19,0-19-.09,8.48-.09,19-.09S166.44,212.79,166.44,212.84Z" style="fill:#263238"></path><path d="M104.17,216.18s-2,.09-4.43.09-4.42,0-4.42-.09,2-.09,4.42-.09S104.17,216.13,104.17,216.18Z" style="fill:#263238"></path><path d="M175.11,216.18s-2,.09-4.42.09-4.43,0-4.43-.09,2-.09,4.43-.09S175.11,216.13,175.11,216.18Z" style="fill:#263238"></path><rect x="194.66" y="145.66" width="137.23" height="91.25" transform="translate(526.55 382.57) rotate(180)" style="fill:#263238"></rect><rect x="198.3" y="149.86" width="129.94" height="83.02" style="fill:#455a64"></rect><polygon points="248.25 178.27 248.25 172.15 243.88 171.15 230.99 182.55 230.99 189.14 235.93 190.91 248.25 178.27" style="fill:#ebebeb"></polygon><path d="M248.25,178.27a9.64,9.64,0,0,1-.84,1l-2.48,2.64-8.83,9.21-.1.11-.15-.05-4.94-1.76-.17-.06v-.18c0-1.86,0-3.78,0-5.75v-1l.09-.08L243.75,171l.08-.06.1,0,4.35,1,.13,0v.12c0,1.89-.06,3.41-.08,4.53,0,.48,0,.87,0,1.19a1.51,1.51,0,0,1,0,.4,1.47,1.47,0,0,1,0-.43c0-.33,0-.72,0-1.21,0-1.1,0-2.61-.08-4.48l.12.16-4.38-1,.18,0-12.84,11.44.08-.19v6.59l-.17-.24,4.93,1.79-.25.06,8.92-9,2.59-2.56A8.05,8.05,0,0,1,248.25,178.27Z" style="fill:#263238"></path><path d="M227.84,202.73c.35.26,33.3,17.63,33.3,17.63l-.78-9.84L238,200Z" style="fill:#f5f5f5"></path><path d="M251.73,194.7l-.33-6.5,8-9.3s4.78-6.73,14.17-4,4.08,15.68,3.37,17.63-10.53,10.84-10.53,10.84a9.69,9.69,0,0,1-5.44,2.19l-3.57,3.58-13-6.09Z" style="fill:#f5f5f5"></path><path d="M278.34,179a8.31,8.31,0,0,1-.79,1.32c-.54.83-1.34,2-2.34,3.49-2,2.93-4.78,7-8.07,11.28-.43.54-.84,1.08-1.29,1.59a4.14,4.14,0,0,1-.77.73,3.66,3.66,0,0,1-1,.41,10.38,10.38,0,0,1-3.8.07l.23-.09-5.23,6.79-1.53,1.92a3.67,3.67,0,0,1-.58.65,4.2,4.2,0,0,1,.46-.74l1.42-2,5.08-6.91.08-.11.15,0a10.13,10.13,0,0,0,3.59-.1,3,3,0,0,0,.82-.34,4,4,0,0,0,.65-.65c.44-.48.85-1,1.27-1.56,3.27-4.29,6.1-8.3,8.18-11.17l2.47-3.4A8.84,8.84,0,0,1,278.34,179Z" style="fill:#263238"></path><path d="M260.81,205.81a16.17,16.17,0,0,1-.36-4.09,15.73,15.73,0,0,1,.16-4.11,17.11,17.11,0,0,1,.36,4.1A16.27,16.27,0,0,1,260.81,205.81Z" style="fill:#263238"></path><polygon points="227.84 202.73 229.63 208.56 261.52 224.43 261.03 219.15 227.84 202.73" style="fill:#ebebeb"></polygon><path d="M248,172.08a18.48,18.48,0,0,1-2.19,2.33c-1.39,1.39-3.35,3.28-5.52,5.35l-4.41,4.12-.09.09-.11,0c-1.41-.38-2.58-.71-3.39-.95a5.68,5.68,0,0,1-1.26-.44,4.85,4.85,0,0,1,1.32.2c.83.17,2,.43,3.43.77l-.2,0,4.35-4.19c2.18-2.07,4.17-3.92,5.63-5.24A19.55,19.55,0,0,1,248,172.08Z" style="fill:#263238"></path><path d="M235.86,191a12.5,12.5,0,0,1-.3-3.62,12.88,12.88,0,0,1,.21-3.63,12.64,12.64,0,0,1,.31,3.62A13.14,13.14,0,0,1,235.86,191Z" style="fill:#263238"></path><polygon points="241.86 175.85 241.92 176.61 238.32 180.07 236.07 179.55 235.98 178.67 239.71 175.38 241.86 175.85" style="fill:#e0e0e0"></polygon><polygon points="244.49 179.03 265.51 182 289.23 195.16 287.2 201.24 239.28 184.18 244.49 179.03" style="fill:#ebebeb"></polygon><path d="M244.49,179l-.33.36c-.24.26-.57.59-1,1l-3.81,3.86,0-.21c8.9,3.08,26.34,9.24,46.34,16.36l1.62.57-.34.16,2-6.07.12.3-23.69-13.2.07,0-15.29-2.26-4.21-.65-1.11-.18-.38-.08a1.29,1.29,0,0,1,.37,0l1.09.13,4.2.54,15.38,2.08h0l0,0,23.75,13.11.19.11-.07.2c-.66,2-1.34,4-2,6.08l-.09.25-.25-.09-1.61-.57c-20-7.12-37.41-13.38-46.26-16.61l-.19-.07.14-.14,3.93-3.8,1-1A3,3,0,0,1,244.49,179Z" style="fill:#263238"></path><path d="M258.68,180.9a26,26,0,0,1-3.54,3.88,26.34,26.34,0,0,1-3.91,3.51,26.56,26.56,0,0,1,3.54-3.88A27.05,27.05,0,0,1,258.68,180.9Z" style="fill:#263238"></path><path d="M272.65,187a21.51,21.51,0,0,1-4.87,6.82,24.77,24.77,0,0,1,2.35-3.47A23.11,23.11,0,0,1,272.65,187Z" style="fill:#263238"></path><path d="M271.42,186a16.54,16.54,0,0,1-2.48,3.91,16.88,16.88,0,0,1-3.09,3.44,26.5,26.5,0,0,1,2.68-3.76A27,27,0,0,1,271.42,186Z" style="fill:#263238"></path><path d="M256.42,182.13a22.73,22.73,0,0,1-5.86,5.49,18.53,18.53,0,0,1,2.82-2.86A19.07,19.07,0,0,1,256.42,182.13Z" style="fill:#263238"></path><path d="M292.08,185.56c-.22.31-6.39,17.17-6.39,17.17l-1.49,8.38,6.81,2.47,6.6-24.09v-3.3Z" style="fill:#ebebeb"></path><path d="M292.08,185.56s.11,0,.35,0l1.07.09,4.13.4h.12v.13c0,1,0,2.09,0,3.3v0c-1.61,6-3.93,14.55-6.52,24.11l-.07.27-.27-.1-.11,0-6.7-2.43-.2-.07,0-.21c.54-3,1.05-5.79,1.51-8.38v0c1.9-5.12,3.52-9.41,4.68-12.41.58-1.5,1-2.68,1.37-3.48a5.93,5.93,0,0,1,.56-1.2,2.94,2.94,0,0,1-.1.32l-.33.93c-.3.87-.72,2.05-1.25,3.53-1.11,3.08-2.66,7.37-4.49,12.47v0c-.46,2.59-.95,5.41-1.47,8.39l-.16-.29,6.7,2.42.11,0-.34.18,6.68-24.06v0c0-1.21,0-2.32,0-3.3l.13.15-4.06-.55-1.08-.16Z" style="fill:#263238"></path><path d="M297.61,186.19a3.41,3.41,0,0,1-.2,1c-.16.62-.41,1.5-.72,2.59-.64,2.18-1.55,5.18-2.58,8.49-.68,2.11-1.31,4.09-1.87,5.83l-.06.21-.21-.06c-1.86-.5-3.4-.94-4.48-1.26a8.64,8.64,0,0,1-1.68-.57,8.47,8.47,0,0,1,1.75.31c1.1.25,2.66.62,4.52,1.08l-.27.15c.53-1.74,1.15-3.73,1.8-5.85,1-3.3,2-6.29,2.73-8.44.36-1.07.66-1.94.88-2.54A4.12,4.12,0,0,1,297.61,186.19Z" style="fill:#263238"></path><line x1="292.03" y1="204" x2="291.01" y2="213.58" style="fill:#ebebeb"></line><path d="M291,213.58a22.85,22.85,0,0,1,.25-4.82A21.79,21.79,0,0,1,292,204a22.86,22.86,0,0,1-.25,4.82A21.94,21.94,0,0,1,291,213.58Z" style="fill:#263238"></path><path d="M291.51,208.88a11.67,11.67,0,0,1-3.31-.7A11.55,11.55,0,0,1,285,207a21.91,21.91,0,0,1,6.47,1.9Z" style="fill:#263238"></path><path d="M286.87,206.24c-.05-.05,0-.22.3-.21a.51.51,0,1,1-.61.61c0-.26.16-.35.2-.3s.08.14.16.19.12,0,.14,0,.06-.08,0-.14S286.91,206.29,286.87,206.24Z" style="fill:#263238"></path><path d="M289.68,207c-.05,0,0-.22.3-.2a.51.51,0,1,1-.61.61c0-.26.16-.35.2-.3s.08.14.15.19a.11.11,0,0,0,.15,0,.11.11,0,0,0,0-.14C289.82,207,289.72,207,289.68,207Z" style="fill:#263238"></path><path d="M292.46,189.64s-3.16,8.55-3.23,8.69l2.28.48,3.12-8.87Z" style="fill:#e0e0e0"></path><path d="M285.45,208.19c-.07.1-.41,2-.41,2l5.1,1.85.47-2.52Z" style="fill:#e0e0e0"></path><polygon points="252.48 194.36 259.75 197.18 260.7 193.31 255.27 191.42 252.48 194.36" style="fill:#fff"></polygon><path d="M255,208s4.39-5.3,4.39-5.3v1.8l-2.93,4.18Z" style="fill:#e0e0e0"></path><path d="M238,200a4,4,0,0,1-.7.24l-2,.59-7.42,2.09,0-.33,26.88,13.2,6.35,3.15-.37.25c-.22-3-.44-5.89-.65-8.63l.14.2-16-7.67-4.59-2.23-1.22-.62A1.81,1.81,0,0,1,238,200a2.28,2.28,0,0,1,.42.16l1.23.54,4.63,2.11,16.18,7.52.13.05v.14c.22,2.74.45,5.63.69,8.63l0,.45-.4-.2-6.36-3.14-26.8-13.36-.42-.2.45-.12,7.51-1.94,2-.5A4.44,4.44,0,0,1,238,200Z" style="fill:#263238"></path><polygon points="229.22 207.21 240.71 212.66 239.77 210.17 228.6 205.21 229.22 207.21" style="fill:#e0e0e0"></polygon><polygon points="246.81 217.1 248.81 216.12 261.14 221.34 261.52 224.68 246.81 217.1" style="fill:#e0e0e0"></polygon><polygon points="235.2 203.27 248.73 210.12 249.82 208.19 236.99 202.23 235.2 203.27" style="fill:#e0e0e0"></polygon><path d="M255.31,211.19c0,.55-.62,1-1.44,1.05s-1.49-.39-1.51-.94.62-1,1.44-1S255.29,210.64,255.31,211.19Z" style="fill:#e0e0e0"></path><path d="M264.85,179.39l5.37,1.51,4.39-5.6a11,11,0,0,0-3.92-1Z" style="fill:#e0e0e0"></path><polygon points="257.15 186.47 265.35 189.15 266.49 187.81 258.57 185.25 257.15 186.47" style="fill:#6853D9"></polygon><path d="M404.71,143.17c0,1.42-6.77,97-6.77,97l-61.31-2.55,1.42-91.91Z" style="fill:#263238"></path><path d="M301.39,211.92a1.1,1.1,0,0,1,0-.26c0-.2,0-.47,0-.81,0-.74,0-1.8,0-3.15,0-2.8,0-6.84-.06-11.89,0-10.23-.08-24.58-.12-41.22v-.25h23.54l.27.27v4.17c0,1.38,0,2.76,0,4.13V171c0,5.29,0,10.39,0,15.24,0,9.7-.05,18.42-.06,25.72v.19h-.18l-17.12-.1L303,212l-1.18,0a1.5,1.5,0,0,1-.39,0l.42,0,1.22,0,4.65,0,17-.1-.19.18c0-7.3,0-16-.05-25.72,0-4.85,0-9.95,0-15.24V154.6l.25.25H301.39l.25-.25c-.05,16.57-.09,30.87-.12,41,0,5.08,0,9.13-.07,11.94,0,1.38,0,2.46,0,3.21,0,.35,0,.63,0,.84S301.39,211.92,301.39,211.92Z" style="fill:#263238"></path><path d="M305.65,160.29a63.78,63.78,0,0,1,8.22-.26,63.78,63.78,0,0,1,8.22.26,66,66,0,0,1-8.22.26A66,66,0,0,1,305.65,160.29Z" style="fill:#263238"></path><path d="M311.52,158.45a52.33,52.33,0,0,1,10.42,0,52.33,52.33,0,0,1-10.42,0Z" style="fill:#263238"></path><path d="M308.31,162.39a43.32,43.32,0,0,1,6.65-.26,43.4,43.4,0,0,1,6.66.26,41.93,41.93,0,0,1-6.66.26A41.85,41.85,0,0,1,308.31,162.39Z" style="fill:#263238"></path><path d="M305.65,164.42a63.78,63.78,0,0,1,8.22-.26,63.55,63.55,0,0,1,8.21.26,65.78,65.78,0,0,1-8.21.26A66,66,0,0,1,305.65,164.42Z" style="fill:#263238"></path><path d="M309.32,166.44a76.7,76.7,0,0,1,12.62,0,37.72,37.72,0,0,1-6.31.26A37.63,37.63,0,0,1,309.32,166.44Z" style="fill:#263238"></path><path d="M307.53,168.39a50.08,50.08,0,0,1,7.28-.26,49.88,49.88,0,0,1,7.27.26,51.63,51.63,0,0,1-7.27.26A51.84,51.84,0,0,1,307.53,168.39Z" style="fill:#263238"></path><path d="M317.42,170.49a10,10,0,0,1,4.52,0,10,10,0,0,1-4.52,0Z" style="fill:#263238"></path><path d="M305.27,170.57a48.59,48.59,0,0,1,10,0,48.59,48.59,0,0,1-10,0Z" style="fill:#263238"></path><path d="M303.25,172.59a85.15,85.15,0,0,1,9.34-.26,85.41,85.41,0,0,1,9.35.26,82.51,82.51,0,0,1-9.35.26A82.25,82.25,0,0,1,303.25,172.59Z" style="fill:#263238"></path><path d="M308.54,174.38a43.94,43.94,0,0,1,6.7-.26,43.94,43.94,0,0,1,6.7.26,42.45,42.45,0,0,1-6.7.26A42.45,42.45,0,0,1,308.54,174.38Z" style="fill:#263238"></path><path d="M307.84,176.8a48.61,48.61,0,0,1,7.24-.27,48.61,48.61,0,0,1,7.24.27,51.25,51.25,0,0,1-7.24.26A51.25,51.25,0,0,1,307.84,176.8Z" style="fill:#263238"></path><path d="M308.39,178.66a49.5,49.5,0,0,1,7.12-.26,49.62,49.62,0,0,1,7.12.26,47.93,47.93,0,0,1-7.12.26A47.82,47.82,0,0,1,308.39,178.66Z" style="fill:#263238"></path><path d="M303.4,178.59c0-.15.65-.26,1.44-.26s1.44.11,1.44.26-.64.26-1.44.26S303.4,178.73,303.4,178.59Z" style="fill:#263238"></path><path d="M306.44,180.45a63.93,63.93,0,0,1,8.09-.26,64.16,64.16,0,0,1,8.1.26,62,62,0,0,1-8.1.26A61.76,61.76,0,0,1,306.44,180.45Z" style="fill:#263238"></path><path d="M309.16,183.33a44.41,44.41,0,0,1,6.73-.26,44.49,44.49,0,0,1,6.74.26,43,43,0,0,1-6.74.26A42.9,42.9,0,0,1,309.16,183.33Z" style="fill:#263238"></path><path d="M304.81,185.12a82.77,82.77,0,0,1,9.21-.26,82.88,82.88,0,0,1,9.22.26,80.07,80.07,0,0,1-9.22.26A80,80,0,0,1,304.81,185.12Z" style="fill:#263238"></path><path d="M305.19,187.3a50.28,50.28,0,0,1,7.17-.26,50.2,50.2,0,0,1,7.16.26,48.49,48.49,0,0,1-7.16.26A48.58,48.58,0,0,1,305.19,187.3Z" style="fill:#263238"></path><path d="M305.65,191.76a63.78,63.78,0,0,1,8.22-.26,63.78,63.78,0,0,1,8.22.26,66,66,0,0,1-8.22.26A66,66,0,0,1,305.65,191.76Z" style="fill:#263238"></path><path d="M311.52,189.92a52.33,52.33,0,0,1,10.42,0,52.33,52.33,0,0,1-10.42,0Z" style="fill:#263238"></path><path d="M308.31,193.86a43.32,43.32,0,0,1,6.65-.26,43.4,43.4,0,0,1,6.66.26,41.93,41.93,0,0,1-6.66.26A41.85,41.85,0,0,1,308.31,193.86Z" style="fill:#263238"></path><path d="M305.65,195.89a63.78,63.78,0,0,1,8.22-.26,63.55,63.55,0,0,1,8.21.26,65.78,65.78,0,0,1-8.21.26A66,66,0,0,1,305.65,195.89Z" style="fill:#263238"></path><path d="M309.32,197.91a76.7,76.7,0,0,1,12.62,0,37.72,37.72,0,0,1-6.31.26A37.63,37.63,0,0,1,309.32,197.91Z" style="fill:#263238"></path><path d="M307.53,199.86a50.08,50.08,0,0,1,7.28-.26,49.88,49.88,0,0,1,7.27.26,51.63,51.63,0,0,1-7.27.26A51.84,51.84,0,0,1,307.53,199.86Z" style="fill:#263238"></path><path d="M317.42,202a10,10,0,0,1,4.52,0,10,10,0,0,1-4.52,0Z" style="fill:#263238"></path><path d="M305.27,202a48.59,48.59,0,0,1,10,0,48.59,48.59,0,0,1-10,0Z" style="fill:#263238"></path><path d="M303.25,204.06a85.15,85.15,0,0,1,9.34-.26,85.41,85.41,0,0,1,9.35.26,82.51,82.51,0,0,1-9.35.26A82.25,82.25,0,0,1,303.25,204.06Z" style="fill:#263238"></path><path d="M308.54,205.85a43.94,43.94,0,0,1,6.7-.26,43.94,43.94,0,0,1,6.7.26,42.45,42.45,0,0,1-6.7.26A42.45,42.45,0,0,1,308.54,205.85Z" style="fill:#263238"></path><path d="M307.84,208.27a48.61,48.61,0,0,1,7.24-.27,48.61,48.61,0,0,1,7.24.27,51.25,51.25,0,0,1-7.24.26A51.25,51.25,0,0,1,307.84,208.27Z" style="fill:#263238"></path><path d="M203.37,182.83a2.9,2.9,0,0,1,0-.5c0-.38,0-.87,0-1.5,0-1.37,0-3.31-.06-5.74,0-5-.07-12.09-.12-20.5v-.23h.24l23.29,0c0-.06.5.49.27.26h0v3.87c0,1.28,0,2.54,0,3.8,0,2.5,0,4.95,0,7.32,0,4.74,0,9.19,0,13.24v.22h-.21l-17-.11-4.69-.05-1.22,0a2.78,2.78,0,0,1-.4,0l.45,0,1.26,0,4.74-.06,16.85-.11-.22.22c0-4.05,0-8.5,0-13.24,0-2.37,0-4.82,0-7.32V154.6h0c-.24-.23.31.31.25.26l-23.29,0,.23-.23c0,8.34-.09,15.37-.12,20.35,0,2.45,0,4.41-.06,5.79,0,.65,0,1.16,0,1.55S203.38,182.82,203.37,182.83Z" style="fill:#263238"></path><path d="M207.63,160.29a63.78,63.78,0,0,1,8.22-.26,63.78,63.78,0,0,1,8.22.26,66,66,0,0,1-8.22.26A66,66,0,0,1,207.63,160.29Z" style="fill:#263238"></path><path d="M213.5,158.45a25.74,25.74,0,0,1,5.21-.26,25.74,25.74,0,0,1,5.21.26,26.64,26.64,0,0,1-5.21.26A26.64,26.64,0,0,1,213.5,158.45Z" style="fill:#263238"></path><path d="M210.29,162.39a43.32,43.32,0,0,1,6.65-.26,43.4,43.4,0,0,1,6.66.26,41.93,41.93,0,0,1-6.66.26A41.85,41.85,0,0,1,210.29,162.39Z" style="fill:#263238"></path><path d="M207.63,164.42a63.78,63.78,0,0,1,8.22-.26,63.55,63.55,0,0,1,8.21.26,65.78,65.78,0,0,1-8.21.26A66,66,0,0,1,207.63,164.42Z" style="fill:#263238"></path><path d="M211.3,166.44a39,39,0,0,1,6.31-.26,39,39,0,0,1,6.31.26,37.72,37.72,0,0,1-6.31.26A37.72,37.72,0,0,1,211.3,166.44Z" style="fill:#263238"></path><path d="M209.51,168.39a50.08,50.08,0,0,1,7.28-.26,49.88,49.88,0,0,1,7.27.26,51.63,51.63,0,0,1-7.27.26A51.84,51.84,0,0,1,209.51,168.39Z" style="fill:#263238"></path><path d="M219.4,170.49a10,10,0,0,1,4.52,0,10,10,0,0,1-4.52,0Z" style="fill:#263238"></path><path d="M207.25,170.57a24,24,0,0,1,5-.26,23.87,23.87,0,0,1,5,.26,24.7,24.7,0,0,1-5,.26A24.79,24.79,0,0,1,207.25,170.57Z" style="fill:#263238"></path><path d="M205.23,172.59a85.15,85.15,0,0,1,9.34-.26,85.41,85.41,0,0,1,9.35.26,82.51,82.51,0,0,1-9.35.26A82.25,82.25,0,0,1,205.23,172.59Z" style="fill:#263238"></path><path d="M210.52,174.38a43.94,43.94,0,0,1,6.7-.26,43.94,43.94,0,0,1,6.7.26,42.45,42.45,0,0,1-6.7.26A42.45,42.45,0,0,1,210.52,174.38Z" style="fill:#263238"></path><path d="M209.82,176.8a48.61,48.61,0,0,1,7.24-.27,48.61,48.61,0,0,1,7.24.27,51.25,51.25,0,0,1-7.24.26A51.25,51.25,0,0,1,209.82,176.8Z" style="fill:#263238"></path><path d="M210.37,178.66a49.5,49.5,0,0,1,7.12-.26,49.62,49.62,0,0,1,7.12.26,47.93,47.93,0,0,1-7.12.26A47.82,47.82,0,0,1,210.37,178.66Z" style="fill:#263238"></path><path d="M205.38,178.59c0-.15.65-.26,1.44-.26s1.44.11,1.44.26-.64.26-1.44.26S205.38,178.73,205.38,178.59Z" style="fill:#263238"></path><path d="M208.42,180.45a63.93,63.93,0,0,1,8.09-.26,64.16,64.16,0,0,1,8.1.26,62,62,0,0,1-8.1.26A61.76,61.76,0,0,1,208.42,180.45Z" style="fill:#263238"></path><rect x="277.06" y="155.37" width="19.89" height="13.34" style="fill:#263238"></rect><polygon points="285.3 159 285.3 158.06 284.63 157.9 282.63 159.66 282.63 160.68 283.4 160.96 285.3 159" style="fill:#ebebeb"></polygon><path d="M285.3,159a9.68,9.68,0,0,1-1.73,2.13l-.1.11-.15-.06-.77-.26-.17,0v-.19c0-.29,0-.58,0-.88v-.25l.09-.08c.76-.67,1.47-1.27,2-1.72l.09-.07.09,0,.67.2.13,0v.12c0,.64-.11,1-.16.94a2.86,2.86,0,0,1-.16-.94l.13.15-.69-.11.18,0c-.52.51-1.2,1.14-1.95,1.81l.08-.2v1l-.17-.24.76.29-.26.06A11.52,11.52,0,0,1,285.3,159Z" style="fill:#263238"></path><path d="M282.15,162.78c.05.05,5.14,2.73,5.14,2.73l-.12-1.52-3.45-1.63Z" style="fill:#f5f5f5"></path><path d="M285.84,161.54l0-1L287,159.1a2,2,0,0,1,2.19-.62c1.45.43.63,2.43.52,2.73a14,14,0,0,1-1.63,1.68,1.46,1.46,0,0,1-.84.33l-.55.56-2-.94Z" style="fill:#f5f5f5"></path><polygon points="282.14 162.78 282.42 163.69 287.35 166.14 287.28 165.32 282.14 162.78" style="fill:#ebebeb"></polygon><polygon points="284.31 158.63 284.32 158.75 283.77 159.28 283.42 159.2 283.4 159.06 283.98 158.56 284.31 158.63" style="fill:#e0e0e0"></polygon><polygon points="284.72 159.12 287.97 159.58 291.64 161.62 291.32 162.55 283.92 159.92 284.72 159.12" style="fill:#ebebeb"></polygon><path d="M292.08,160.13c0,.05-1,2.65-1,2.65l-.23,1.3,1.05.38,1-3.72v-.51Z" style="fill:#ebebeb"></path><path d="M292.14,160.76l-.5,1.34.35.08.48-1.37Z" style="fill:#e0e0e0"></path><path d="M291.05,163.63s-.06.31-.06.31l.79.29.07-.39Z" style="fill:#e0e0e0"></path><polygon points="285.95 161.49 287.08 161.93 287.23 161.33 286.39 161.04 285.95 161.49" style="fill:#fff"></polygon><path d="M286.34,163.61s.68-.83.68-.83v.28l-.46.65Z" style="fill:#e0e0e0"></path><polygon points="282.36 163.48 284.13 164.32 283.99 163.94 282.26 163.17 282.36 163.48" style="fill:#e0e0e0"></polygon><polygon points="285.08 165.01 285.39 164.86 287.3 165.66 287.35 166.18 285.08 165.01" style="fill:#e0e0e0"></polygon><polygon points="283.28 162.87 285.38 163.93 285.55 163.63 283.56 162.71 283.28 162.87" style="fill:#e0e0e0"></polygon><path d="M286.39,164.09c0,.09-.09.16-.22.17s-.23-.06-.23-.15.09-.16.22-.16S286.39,164,286.39,164.09Z" style="fill:#e0e0e0"></path><path d="M287.87,159.18l.83.23.68-.87a1.7,1.7,0,0,0-.61-.14Z" style="fill:#e0e0e0"></path><polygon points="286.68 160.27 287.94 160.69 288.12 160.48 286.9 160.08 286.68 160.27" style="fill:#6853D9"></polygon><path d="M322.7,228c0,.14-26,.26-58,.26s-58-.12-58-.26,26-.26,58-.26S322.7,227.83,322.7,228Z" style="fill:#263238"></path><path d="M207.27,190.26c.15,0,.26,8.16.26,18.22s-.11,18.22-.26,18.22-.26-8.16-.26-18.22S207.13,190.26,207.27,190.26Z" style="fill:#263238"></path><path d="M278.42,154.42c0,.14-11.1.26-24.79.26s-24.81-.12-24.81-.26,11.11-.26,24.81-.26S278.42,154.28,278.42,154.42Z" style="fill:#263238"></path><path d="M322.67,210.3a70.4,70.4,0,0,1,.26,8.49,70.5,70.5,0,0,1-.26,8.5,68.11,68.11,0,0,1-.26-8.5A68,68,0,0,1,322.67,210.3Z" style="fill:#263238"></path><path d="M341.08,149.86v83l50.71,1.52,5.27-86.2Z" style="fill:#455a64"></path><polygon points="404.71 143.17 409.53 143.17 402.75 240.12 397.06 240.12 404.71 143.17" style="fill:#263238"></polygon><path d="M336.63,237.57a.86.86,0,0,1,.3,0h.87l3.4.1,12.64.46,43.23,1.73-.26.24c.44-5.8.92-11.93,1.41-18.24,1.71-21.68,3.26-41.3,4.38-55.53.59-7.09,1.06-12.83,1.39-16.83.18-2,.31-3.5.41-4.57l.12-1.19c0-.26.05-.4.05-.4a2.12,2.12,0,0,1,0,.41c0,.29,0,.69-.07,1.19-.07,1.07-.17,2.61-.3,4.58-.3,4-.71,9.75-1.23,16.84-1.08,14.23-2.58,33.86-4.24,55.54-.49,6.31-1,12.44-1.42,18.24l0,.24h-.24l-43.22-1.92-12.64-.6-3.39-.19-.87-.06A2.29,2.29,0,0,1,336.63,237.57Z" style="fill:#455a64"></path><path d="M332,237c0,.14-30.58.26-68.3.26s-68.31-.12-68.31-.26,30.57-.26,68.31-.26S332,236.86,332,237Z" style="fill:#455a64"></path><path d="M391.07,156.58a12,12,0,0,1-1.7.16l-4.63.26c-3.91.19-9.31.4-15.28.57s-11.37.26-15.29.27c-2,0-3.54,0-4.63,0a10,10,0,0,1-1.7-.1,12.16,12.16,0,0,1,1.7-.11l4.63-.13,15.28-.42,15.28-.42,4.63-.09A10,10,0,0,1,391.07,156.58Z" style="fill:#e0e0e0"></path><path d="M366.3,160.52a77.54,77.54,0,0,1-8.91.26,77.65,77.65,0,0,1-8.92-.26,75,75,0,0,1,8.92-.26A74.91,74.91,0,0,1,366.3,160.52Z" style="fill:#6853D9"></path><path d="M374.49,160.52c0,.14-.8.26-1.79.26s-1.78-.12-1.78-.26.8-.26,1.78-.26S374.49,160.37,374.49,160.52Z" style="fill:#e0e0e0"></path><ellipse cx="345.64" cy="160.7" rx="0.63" ry="0.26" style="fill:#fff"></ellipse><ellipse cx="345.64" cy="157.71" rx="0.63" ry="0.26" style="fill:#fff"></ellipse><path d="M346.62,163.24c0,.15-.29.26-.64.26s-.64-.11-.64-.26.29-.26.64-.26S346.62,163.1,346.62,163.24Z" style="fill:#fff"></path><path d="M370.26,163.39c0,.15-4.93.26-11,.26s-11-.11-11-.26,4.93-.26,11-.26S370.26,163.25,370.26,163.39Z" style="fill:#263238"></path><path d="M375.11,163.32c0,.14-.69.26-1.54.26s-1.55-.12-1.55-.26.69-.26,1.55-.26S375.11,163.18,375.11,163.32Z" style="fill:#263238"></path><path d="M386.05,163.32a33.25,33.25,0,0,1-8.3,0,33.25,33.25,0,0,1,8.3,0Z" style="fill:#263238"></path><path d="M346.47,165.82c0,.14-.21.26-.48.26s-.47-.12-.47-.26.21-.26.47-.26S346.47,165.67,346.47,165.82Z" style="fill:#fff"></path><path d="M356.82,165.67a37.45,37.45,0,0,1-8.81,0,37.45,37.45,0,0,1,8.81,0Z" style="fill:#e0e0e0"></path><path d="M346.77,168.24c0,.14-.32.26-.7.26s-.7-.12-.7-.26.31-.26.7-.26S346.77,168.1,346.77,168.24Z" style="fill:#fff"></path><path d="M373.35,168.24c0,.14-5.63.26-12.56.26s-12.56-.12-12.56-.26,5.62-.26,12.56-.26S373.35,168.1,373.35,168.24Z" style="fill:#263238"></path><ellipse cx="376.76" cy="168.02" rx="1.8" ry="0.26" style="fill:#6853D9"></ellipse><path d="M389.48,172a10,10,0,0,1-1.65.11l-4.47.08c-3.77,0-9,.07-14.75.07s-11,0-14.76-.07l-4.37-.08a9.76,9.76,0,0,1-1.64-.11,10.71,10.71,0,0,1,1.64-.1l4.37-.08c3.77-.05,9-.08,14.76-.08s11,0,14.75.08l4.47.08A11,11,0,0,1,389.48,172Z" style="fill:#e0e0e0"></path><path d="M366.3,174.77a77.54,77.54,0,0,1-8.91.26,77.65,77.65,0,0,1-8.92-.26,77.65,77.65,0,0,1,8.92-.26A77.54,77.54,0,0,1,366.3,174.77Z" style="fill:#263238"></path><path d="M346.27,175c0,.15-.28.26-.63.26s-.63-.11-.63-.26.28-.26.63-.26S346.27,174.81,346.27,175Z" style="fill:#fff"></path><ellipse cx="345.64" cy="171.96" rx="0.63" ry="0.26" style="fill:#fff"></ellipse><path d="M346.62,177.49c0,.15-.29.26-.64.26s-.64-.11-.64-.26.29-.26.64-.26S346.62,177.35,346.62,177.49Z" style="fill:#fff"></path><path d="M370.26,177.65c0,.14-4.93.26-11,.26s-11-.12-11-.26,4.93-.26,11-.26S370.26,177.5,370.26,177.65Z" style="fill:#263238"></path><path d="M375.11,177.57c0,.15-.69.26-1.54.26s-1.55-.11-1.55-.26.69-.26,1.55-.26S375.11,177.43,375.11,177.57Z" style="fill:#6853D9"></path><path d="M386.05,177.57a33.25,33.25,0,0,1-8.3,0,33.25,33.25,0,0,1,8.3,0Z" style="fill:#263238"></path><path d="M346.47,180.07c0,.14-.21.26-.48.26s-.47-.12-.47-.26.21-.26.47-.26S346.47,179.93,346.47,180.07Z" style="fill:#fff"></path><path d="M356.82,179.92a37.45,37.45,0,0,1-8.81,0,37.45,37.45,0,0,1,8.81,0Z" style="fill:#6853D9"></path><path d="M346.77,182.49c0,.15-.32.26-.7.26s-.7-.11-.7-.26.31-.26.7-.26S346.77,182.35,346.77,182.49Z" style="fill:#fff"></path><path d="M373.35,182.49c0,.15-5.63.26-12.56.26s-12.56-.11-12.56-.26,5.62-.26,12.56-.26S373.35,182.35,373.35,182.49Z" style="fill:#263238"></path><ellipse cx="376.76" cy="182.27" rx="1.8" ry="0.26" style="fill:#263238"></ellipse><path d="M389.48,186.22c0,.14-9.33.26-20.82.26s-20.82-.12-20.82-.26,9.32-.26,20.82-.26S389.48,186.07,389.48,186.22Z" style="fill:#e0e0e0"></path><path d="M366.3,189a77.54,77.54,0,0,1-8.91.26,77.65,77.65,0,0,1-8.92-.26,77.65,77.65,0,0,1,8.92-.26A77.54,77.54,0,0,1,366.3,189Z" style="fill:#263238"></path><path d="M374.49,189c0,.14-.8.26-1.79.26s-1.78-.12-1.78-.26.8-.26,1.78-.26S374.49,188.88,374.49,189Z" style="fill:#263238"></path><ellipse cx="345.64" cy="189.2" rx="0.63" ry="0.26" style="fill:#fff"></ellipse><ellipse cx="345.64" cy="186.22" rx="0.63" ry="0.26" style="fill:#fff"></ellipse><path d="M346.62,191.75c0,.14-.29.26-.64.26s-.64-.12-.64-.26.29-.26.64-.26S346.62,191.6,346.62,191.75Z" style="fill:#fff"></path><path d="M370.26,191.9c0,.14-4.93.26-11,.26s-11-.12-11-.26,4.93-.26,11-.26S370.26,191.75,370.26,191.9Z" style="fill:#263238"></path><path d="M375.11,191.82c0,.15-.69.27-1.54.27S372,192,372,191.82s.69-.26,1.55-.26S375.11,191.68,375.11,191.82Z" style="fill:#e0e0e0"></path><path d="M386.05,191.82a32,32,0,0,1-8.3,0,33.25,33.25,0,0,1,8.3,0Z" style="fill:#263238"></path><path d="M346.47,194.32c0,.14-.21.26-.48.26s-.47-.12-.47-.26.21-.26.47-.26S346.47,194.18,346.47,194.32Z" style="fill:#fff"></path><path d="M356.82,194.17a37.45,37.45,0,0,1-8.81,0,37.45,37.45,0,0,1,8.81,0Z" style="fill:#263238"></path><path d="M346.77,196.74c0,.15-.32.26-.7.26s-.7-.11-.7-.26.31-.26.7-.26S346.77,196.6,346.77,196.74Z" style="fill:#fff"></path><path d="M373.35,196.74c0,.15-5.63.26-12.56.26s-12.56-.11-12.56-.26,5.62-.26,12.56-.26S373.35,196.6,373.35,196.74Z" style="fill:#263238"></path><ellipse cx="376.76" cy="196.52" rx="1.8" ry="0.26" style="fill:#263238"></ellipse><path d="M388.77,200.47c0,.14-9.16.26-20.47.26s-20.46-.12-20.46-.26,9.16-.26,20.46-.26S388.77,200.32,388.77,200.47Z" style="fill:#263238"></path><path d="M366.3,203.27a74.91,74.91,0,0,1-8.91.26,75,75,0,0,1-8.92-.26,77.65,77.65,0,0,1,8.92-.26A77.54,77.54,0,0,1,366.3,203.27Z" style="fill:#263238"></path><path d="M374.49,203.27c0,.15-.8.26-1.79.26s-1.78-.11-1.78-.26.8-.26,1.78-.26S374.49,203.13,374.49,203.27Z" style="fill:#e0e0e0"></path><path d="M346.27,203.46c0,.14-.28.26-.63.26s-.63-.12-.63-.26.28-.26.63-.26S346.27,203.31,346.27,203.46Z" style="fill:#fff"></path><ellipse cx="345.64" cy="200.47" rx="0.63" ry="0.26" style="fill:#fff"></ellipse><path d="M346.62,206c0,.14-.29.26-.64.26s-.64-.12-.64-.26.29-.26.64-.26S346.62,205.85,346.62,206Z" style="fill:#fff"></path><path d="M370.26,206.15c0,.14-4.93.26-11,.26s-11-.12-11-.26,4.93-.26,11-.26S370.26,206,370.26,206.15Z" style="fill:#e0e0e0"></path><path d="M375.11,206.08c0,.14-.69.26-1.54.26s-1.55-.12-1.55-.26.69-.26,1.55-.26S375.11,205.93,375.11,206.08Z" style="fill:#263238"></path><path d="M386.05,206.08a33.25,33.25,0,0,1-8.3,0,33.25,33.25,0,0,1,8.3,0Z" style="fill:#263238"></path><path d="M346.47,208.57c0,.15-.21.26-.48.26s-.47-.11-.47-.26.21-.26.47-.26S346.47,208.43,346.47,208.57Z" style="fill:#fff"></path><path d="M356.82,208.43a37.45,37.45,0,0,1-8.81,0,37.45,37.45,0,0,1,8.81,0Z" style="fill:#263238"></path><path d="M346.77,211c0,.14-.32.26-.7.26s-.7-.12-.7-.26.31-.26.7-.26S346.77,210.85,346.77,211Z" style="fill:#fff"></path><path d="M373.35,211c0,.14-5.63.26-12.56.26s-12.56-.12-12.56-.26,5.62-.26,12.56-.26S373.35,210.85,373.35,211Z" style="fill:#263238"></path><ellipse cx="376.76" cy="210.78" rx="1.8" ry="0.26" style="fill:#6853D9"></ellipse><path d="M386.05,214.72c0,.14-8.56.26-19.11.26s-19.1-.12-19.1-.26,8.55-.26,19.1-.26S386.05,214.58,386.05,214.72Z" style="fill:#e0e0e0"></path><path d="M366.3,217.52a74.91,74.91,0,0,1-8.91.26,75,75,0,0,1-8.92-.26,77.65,77.65,0,0,1,8.92-.26A77.54,77.54,0,0,1,366.3,217.52Z" style="fill:#6853D9"></path><path d="M374.49,217.52c0,.15-.8.26-1.79.26s-1.78-.11-1.78-.26.8-.26,1.78-.26S374.49,217.38,374.49,217.52Z" style="fill:#263238"></path><ellipse cx="345.64" cy="217.71" rx="0.63" ry="0.26" style="fill:#fff"></ellipse><path d="M346.27,214.72c0,.14-.28.26-.63.26s-.63-.12-.63-.26.28-.26.63-.26S346.27,214.58,346.27,214.72Z" style="fill:#fff"></path><path d="M346.62,220.25c0,.14-.29.26-.64.26s-.64-.12-.64-.26.29-.26.64-.26S346.62,220.11,346.62,220.25Z" style="fill:#fff"></path><path d="M370.26,220.4c0,.15-4.93.26-11,.26s-11-.11-11-.26,4.93-.26,11-.26S370.26,220.26,370.26,220.4Z" style="fill:#263238"></path><path d="M375.11,220.33c0,.14-.69.26-1.54.26s-1.55-.12-1.55-.26.69-.26,1.55-.26S375.11,220.18,375.11,220.33Z" style="fill:#e0e0e0"></path><path d="M384.26,220.33a20.51,20.51,0,0,1-6.51,0,20.51,20.51,0,0,1,6.51,0Z" style="fill:#263238"></path><path d="M346.47,222.82c0,.15-.21.27-.48.27s-.47-.12-.47-.27.21-.26.47-.26S346.47,222.68,346.47,222.82Z" style="fill:#fff"></path><path d="M356.82,222.68a37.45,37.45,0,0,1-8.81,0,37.45,37.45,0,0,1,8.81,0Z" style="fill:#e0e0e0"></path><path d="M346.77,225.25c0,.14-.32.26-.7.26s-.7-.12-.7-.26.31-.26.7-.26S346.77,225.1,346.77,225.25Z" style="fill:#fff"></path><path d="M373.35,225.25c0,.14-5.63.26-12.56.26s-12.56-.12-12.56-.26,5.62-.26,12.56-.26S373.35,225.1,373.35,225.25Z" style="fill:#263238"></path><path d="M378.56,225c0,.14-.81.26-1.8.26s-1.8-.12-1.8-.26.81-.26,1.8-.26S378.56,224.88,378.56,225Z" style="fill:#263238"></path><path d="M386.94,194.29c0,.14-6.05.26-13.52.26s-13.53-.12-13.53-.26S366,194,373.42,194,386.94,194.15,386.94,194.29Z" style="fill:#e0e0e0"></path><path d="M381.89,188.91a6.64,6.64,0,0,1-2.61.26,6.57,6.57,0,0,1-2.6-.26,6.79,6.79,0,0,1,2.6-.26A6.87,6.87,0,0,1,381.89,188.91Z" style="fill:#263238"></path><rect x="212.48" y="56.2" width="152.57" height="86.23" transform="translate(577.52 198.63) rotate(180)" style="fill:#263238"></rect><rect x="216.68" y="60.17" width="144.81" height="78.46" style="fill:#455a64"></rect><rect x="219.42" y="63.07" width="139.11" height="72.48" style="fill:#263238"></rect><path d="M317.84,135.56a2.34,2.34,0,0,1-.32-.49l-.82-1.46c-.74-1.33-1.75-3.18-3-5.47l.15.09c-6,.06-15,.09-24.94.09l-24.61-.08.15-.09L261,133.62l-1,1.45a2.36,2.36,0,0,1-.36.49,2.76,2.76,0,0,1,.28-.54l.88-1.51,3.35-5.54.05-.08h.1l24.61-.09c10,0,18.92,0,24.94.09H314l0,.09c1.21,2.32,2.17,4.2,2.87,5.55.31.61.55,1.11.75,1.49A3.8,3.8,0,0,1,317.84,135.56Z" style="fill:#e0e0e0"></path><circle cx="338.02" cy="111.4" r="12.37" transform="translate(152.32 415.02) rotate(-76.79)" style="fill:#6853D9"></circle><polygon points="219.42 122.55 256.44 109.81 321.87 109.81 358.53 122.36 359 135.56 326.01 135.56 316.11 120.71 300.06 120.71 297.4 130.6 280.28 130.6 277.75 120.71 261.9 120.71 252.06 135.56 219.42 135.56 219.42 122.55" style="fill:#455a64"></polygon><polygon points="219.42 85.54 245.25 89.23 261.3 71.28 243.93 63.07 254.1 63.07 288.98 80.84 325.47 63.07 333.27 63.07 317.08 71.42 332.38 89.23 358.53 85.4 358.53 88.05 332.97 91.59 322.77 110.11 319.43 112.48 318.55 111.45 330.91 90.7 314.72 72.16 290.88 83.93 290.44 111.16 286.61 110.57 286.61 84.08 263.36 72.16 247.16 90.11 257.62 110.87 254.65 111.45 245.1 91.29 219.42 87.91 219.42 85.54" style="fill:#455a64"></polygon><path d="M260.7,112.49H261l.82,0,3.17,0,11.91-.07,40.65-.14h.37l-.13.35c-.75,2-1.55,4-2.37,6.16l-.06.17H298.74l.25-.19q-1.42,4.84-2.77,9.41l-.05.18H296l-14,0h-.17l0-.17-1.91-7.85-.24-.92-.12-.44,0-.11,0,0s0,0,.07.08a.19.19,0,0,0,.23,0h0a1,1,0,0,1-.35.06h-5.25l-10.89-.1h-.08l0-.07-2.44-6.2a1.38,1.38,0,0,1,.21.38l.52,1.16q.66,1.6,1.91,4.58l-.1-.07,10.89,0h3.43l1.81,0c.11,0,.07,0,.12,0s0,0,0,0a.21.21,0,0,1,.24,0c.09.07.08.11.08.1l0,.07,0,.11.13.46.24.92c.61,2.46,1.26,5.09,2,7.85l-.22-.17,14,0-.24.18,2.76-9.41.05-.19h16.59l-.24.17c.81-2.12,1.62-4.21,2.37-6.17l.24.35-40.4-.14-12-.07-3.25,0H260.7Z" style="fill:#e0e0e0"></path><path d="M313.84,128.06a11,11,0,0,1,.77-3.6,17,17,0,0,1,1.26-3.45,10.77,10.77,0,0,1-.76,3.6A16.61,16.61,0,0,1,313.84,128.06Z" style="fill:#e0e0e0"></path><path d="M294.61,120.05c-.05,0,0-.5-.27-1.35a5.67,5.67,0,0,0-2.07-3,5.41,5.41,0,1,0,0,8.67,5.69,5.69,0,0,0,2.07-3c.23-.85.22-1.35.27-1.35s0,.13,0,.36a4.15,4.15,0,0,1-.12,1,5.62,5.62,0,0,1-2,3.23,5.85,5.85,0,0,1-8.27-8.11,5.91,5.91,0,0,1,2.74-2,5.83,5.83,0,0,1,5.53.9,5.57,5.57,0,0,1,2,3.22,4.75,4.75,0,0,1,.12,1C294.64,119.93,294.63,120.05,294.61,120.05Z" style="fill:#e0e0e0"></path><path d="M291.79,120.05a5.85,5.85,0,0,1-.18-.66,2.84,2.84,0,0,0-1-1.43,2.65,2.65,0,0,0-2.47-.33,2.58,2.58,0,0,0,0,4.84,2.65,2.65,0,0,0,2.47-.32,2.88,2.88,0,0,0,1-1.43,5.72,5.72,0,0,1,.18-.67s.09.26,0,.72a2.75,2.75,0,0,1-1,1.67,3,3,0,0,1-2.86.48,3,3,0,0,1,0-5.74,3,3,0,0,1,2.86.49,2.75,2.75,0,0,1,1,1.67C291.88,119.8,291.82,120.05,291.79,120.05Z" style="fill:#e0e0e0"></path><path d="M289.07,126.9a43.48,43.48,0,0,1-.26-6.67,43.4,43.4,0,0,1,.26-6.66,41.93,41.93,0,0,1,.26,6.66A42,42,0,0,1,289.07,126.9Z" style="fill:#e0e0e0"></path><path d="M296.05,120a46,46,0,0,1-6.85.26,46,46,0,0,1-6.85-.26,44.39,44.39,0,0,1,6.85-.26A44.39,44.39,0,0,1,296.05,120Z" style="fill:#e0e0e0"></path><path d="M277.36,117.24a9,9,0,0,1-.07-1c0-.63-.07-1.53-.09-2.65l.16.16c-3,.06-7.64.1-12.88.1l.26-.26h0v3.65l-.26-.25c3.64,0,6.82.07,9.12.12l2.73.07a5.47,5.47,0,0,1,1,.07,4.91,4.91,0,0,1-.91.06l-2.67.07c-2.29,0-5.55.11-9.3.12h-.25v-.26c0-.58,0-1.18,0-1.79v-1.86h0l.26-.26c5.24,0,9.91,0,12.88.1h.17v.16c0,1.19-.06,2.13-.09,2.75A5.38,5.38,0,0,1,277.36,117.24Z" style="fill:#e0e0e0"></path><path d="M247.81,135.56a4.28,4.28,0,0,1,.46-.9c.38-.64.86-1.45,1.44-2.45v.16c-1.89-2.86-4.92-7.53-8.37-12.93l.3.1-2,.72c-5.53,2-10.55,3.8-14.2,5.07l-4.33,1.49a10.86,10.86,0,0,1-1.62.48,10.25,10.25,0,0,1,1.53-.66l4.27-1.64c3.61-1.36,8.62-3.22,14.17-5.23l2-.71.19-.08.11.18c3.44,5.41,6.4,10.13,8.19,13.05l0,.08,0,.08-1.55,2.37A5.46,5.46,0,0,1,247.81,135.56Z" style="fill:#e0e0e0"></path><path d="M316.72,83.57a.82.82,0,1,1-.82-.82A.82.82,0,0,1,316.72,83.57Z" style="fill:#fff"></path><path d="M271.74,81.11a.82.82,0,1,1-.82-.82A.82.82,0,0,1,271.74,81.11Z" style="fill:#fff"></path><path d="M341.4,77.65a.82.82,0,1,1-.82-.82A.82.82,0,0,1,341.4,77.65Z" style="fill:#fff"></path><path d="M297.91,106a.82.82,0,0,1-.82.82.82.82,0,1,1,.82-.82Z" style="fill:#fff"></path><path d="M279.68,102.9a.82.82,0,1,1-.82-.81A.82.82,0,0,1,279.68,102.9Z" style="fill:#fff"></path><path d="M328.62,74.63a.41.41,0,1,1-.81,0,.41.41,0,1,1,.81,0Z" style="fill:#fff"></path><path d="M336.17,68.12a.4.4,0,0,1-.41.4.41.41,0,1,1,0-.81A.41.41,0,0,1,336.17,68.12Z" style="fill:#fff"></path><path d="M353.35,75.45a.41.41,0,0,1-.41.41.41.41,0,0,1,0-.82A.41.41,0,0,1,353.35,75.45Z" style="fill:#fff"></path><path d="M348.8,93.2a.41.41,0,0,1-.81,0,.41.41,0,1,1,.81,0Z" style="fill:#fff"></path><circle cx="355.94" cy="106.39" r="0.41" style="fill:#fff"></circle><circle cx="302.85" cy="84.79" r="0.41" style="fill:#fff"></circle><path d="M314.86,99a.41.41,0,0,1-.41.41A.41.41,0,0,1,314,99a.41.41,0,0,1,.41-.41A.42.42,0,0,1,314.86,99Z" style="fill:#fff"></path><path d="M355.74,115.4a.22.22,0,0,1-.21.21.21.21,0,0,1-.2-.21.2.2,0,0,1,.2-.2A.21.21,0,0,1,355.74,115.4Z" style="fill:#fff"></path><path d="M341.4,93.6a.2.2,0,0,1-.2.21.21.21,0,0,1-.21-.21.2.2,0,0,1,.21-.2A.2.2,0,0,1,341.4,93.6Z" style="fill:#fff"></path><path d="M299.82,93.89a.2.2,0,0,1-.2.2.2.2,0,0,1-.21-.2.21.21,0,0,1,.21-.21A.2.2,0,0,1,299.82,93.89Z" style="fill:#fff"></path><path d="M323.54,92.58a.2.2,0,0,1-.2.21.21.21,0,0,1-.21-.21.2.2,0,0,1,.21-.2A.2.2,0,0,1,323.54,92.58Z" style="fill:#fff"></path><path d="M313.64,76.8a.2.2,0,0,1-.2.2.2.2,0,1,1,0-.4A.2.2,0,0,1,313.64,76.8Z" style="fill:#fff"></path><path d="M311.69,94.3a.2.2,0,0,1-.2.2.2.2,0,0,1-.21-.2.21.21,0,0,1,.21-.21A.2.2,0,0,1,311.69,94.3Z" style="fill:#fff"></path><circle cx="263.5" cy="95.11" r="0.82" style="fill:#fff"></circle><path d="M224.73,106a.82.82,0,1,1,.82.82A.82.82,0,0,1,224.73,106Z" style="fill:#fff"></path><path d="M276.14,93.89a.41.41,0,0,1,.41-.41.41.41,0,0,1,.41.41.42.42,0,0,1-.41.41A.41.41,0,0,1,276.14,93.89Z" style="fill:#fff"></path><path d="M237.48,108.63a.41.41,0,0,1,.41-.41.41.41,0,1,1,0,.81A.41.41,0,0,1,237.48,108.63Z" style="fill:#fff"></path><path d="M261.69,90.62a.2.2,0,1,1,.4,0,.2.2,0,1,1-.4,0Z" style="fill:#fff"></path><path d="M242.93,100.59a.2.2,0,0,1,.21-.2.2.2,0,0,1,.2.2.2.2,0,0,1-.2.21A.21.21,0,0,1,242.93,100.59Z" style="fill:#fff"></path><path d="M230.32,98.62a.2.2,0,0,1,.21-.2.2.2,0,0,1,.2.2.2.2,0,0,1-.2.21A.21.21,0,0,1,230.32,98.62Z" style="fill:#fff"></path><path d="M265.76,101.88a.2.2,0,0,1,.2-.2.2.2,0,0,1,.21.2.21.21,0,0,1-.21.21A.2.2,0,0,1,265.76,101.88Z" style="fill:#fff"></path><path d="M226.16,115.89a.2.2,0,0,1,.21-.2.2.2,0,0,1,.2.2.2.2,0,0,1-.2.21A.21.21,0,0,1,226.16,115.89Z" style="fill:#fff"></path><path d="M285.34,69.34a.82.82,0,1,1,.82.82A.82.82,0,0,1,285.34,69.34Z" style="fill:#fff"></path><path d="M242.52,68.12a.82.82,0,1,1,.82.81A.82.82,0,0,1,242.52,68.12Z" style="fill:#fff"></path><path d="M301.63,66.83a.41.41,0,1,1,.4.4A.4.4,0,0,1,301.63,66.83Z" style="fill:#fff"></path><circle cx="276.14" cy="66.62" r="0.2" style="fill:#fff"></circle><path d="M249.84,74.22a.2.2,0,0,1,.2-.2.2.2,0,0,1,.21.2.21.21,0,0,1-.21.21A.2.2,0,0,1,249.84,74.22Z" style="fill:#fff"></path><path d="M288.42,76.11a.2.2,0,0,1,.2-.2.2.2,0,1,1,0,.4A.2.2,0,0,1,288.42,76.11Z" style="fill:#fff"></path><path d="M243.72,118.62a9.4,9.4,0,0,1,.66.85l1.69,2.33c1.44,2,3.45,4.78,5.79,8.11h-.37l6.91-8.26,2.11-2.51,0,.31-4.2-6.22.29.08c-3.74,1.6-6.92,2.92-9.19,3.85l-2.67,1.09a7.09,7.09,0,0,1-1,.38s.28-.15.86-.42l2.56-1.18c2.22-1,5.42-2.46,9.26-4.15l.17-.08.11.17,4.24,6.19.11.17-.13.15c-.69.81-1.39,1.65-2.1,2.5l-7,8.23-.2.23-.17-.25c-2.38-3.44-4.34-6.36-5.69-8.39l-1.56-2.35A8,8,0,0,1,243.72,118.62Z" style="fill:#e0e0e0"></path><path d="M252.77,123.08a2,2,0,1,1-.81-2.56A1.89,1.89,0,0,1,252.77,123.08Z" style="fill:#e0e0e0"></path><path d="M358.53,126.9a3,3,0,0,1-.66-.2L356,126l-6.79-2.55-22.31-8.62-5.47-2.14.33-.13c-1.06,2.37-2.07,4.65-3,6.81l0-.25,8.92,11.78,2.52,3.38.65.92a1.55,1.55,0,0,1,.2.33,1.79,1.79,0,0,1-.26-.29l-.72-.86c-.64-.82-1.52-1.93-2.62-3.31l-9.07-11.65-.09-.12.06-.13,3-6.82.1-.22.23.09,5.47,2.13,22.26,8.75,6.72,2.71,1.82.76A3.11,3.11,0,0,1,358.53,126.9Z" style="fill:#e0e0e0"></path><circle cx="231.97" cy="76.31" r="9.63" style="fill:#6853D9"></circle><g style="opacity:0.30000000000000004"><path d="M229.57,74.67a2,2,0,1,1-2-2A2,2,0,0,1,229.57,74.67Z"></path></g><g style="opacity:0.30000000000000004"><path d="M239.09,79.64a1.34,1.34,0,1,1-1.34-1.34A1.34,1.34,0,0,1,239.09,79.64Z"></path></g><path d="M359,135.56s0-.45,0-1.31,0-2.12,0-3.78c0-3.32,0-8.2,0-14.47,0-12.53-.06-30.63-.11-52.93l.2.2-139.57.06h0l.26-.26c0,25.58,0,50.1,0,72.49l-.25-.25,100.3.12,28.89.07,7.71,0h2l.69,0h-.66l-2,0-7.66,0-28.83.06-100.47.12h-.24v-.24c0-22.39,0-46.91,0-72.49v-.26h.27L359,62.88h.19v.19c0,22.35-.08,40.49-.1,53.05,0,6.25,0,11.12,0,14.43,0,1.64,0,2.89,0,3.74S359,135.56,359,135.56Z" style="fill:#263238"></path><path d="M273,253.34a21.92,21.92,0,0,0,5.15,1.27,16.88,16.88,0,0,0,5.7-.39,15.58,15.58,0,0,0,10.61-8.46,17.17,17.17,0,0,0,1.65-5.47A22.48,22.48,0,0,0,296,235s.06.12.12.36a7.64,7.64,0,0,1,.23,1,14.86,14.86,0,0,1,.12,3.94,16.87,16.87,0,0,1-1.59,5.64A15.72,15.72,0,0,1,284,254.69a16.77,16.77,0,0,1-5.85.29,14.67,14.67,0,0,1-3.82-1,9.75,9.75,0,0,1-1-.45C273.09,253.42,273,253.36,273,253.34Z" style="fill:#263238"></path><path d="M307,236.59a2,2,0,0,1,.12.52c.06.34.14.84.24,1.49a40.33,40.33,0,0,1,.43,5.55,16.22,16.22,0,0,1-1.92,8,11.3,11.3,0,0,1-3.27,3.69,9,9,0,0,1-2.35,1.2,8.63,8.63,0,0,1-2.69.39,10,10,0,0,1-5.05-1.56,13.24,13.24,0,0,1-3.63-3.33,18.78,18.78,0,0,1-3.13-7.65,44.52,44.52,0,0,1-.66-5.53c0-.6-.05-1.1-.07-1.51a1.89,1.89,0,0,1,0-.52,1.66,1.66,0,0,1,.09.52c0,.4.1.89.17,1.5.16,1.3.34,3.19.82,5.47a18.92,18.92,0,0,0,3.15,7.43,13,13,0,0,0,3.51,3.18,9.58,9.58,0,0,0,4.8,1.48,7.89,7.89,0,0,0,2.52-.37,8.42,8.42,0,0,0,2.22-1.12,11.15,11.15,0,0,0,3.15-3.51,16.23,16.23,0,0,0,2-7.79,45.41,45.41,0,0,0-.27-5.52c-.05-.61-.1-1.1-.13-1.51A2,2,0,0,1,307,236.59Z" style="fill:#263238"></path><path d="M281.34,283.18c-.14,0-.3-10.2-.34-22.78s0-22.78.17-22.78.3,10.2.35,22.78S281.49,283.18,281.34,283.18Z" style="fill:#263238"></path><path d="M391.21,238.52a6,6,0,0,1-.32,2.29,13.3,13.3,0,0,1-7,8.36,6.09,6.09,0,0,1-2.2.71c0-.09.81-.36,2-1a14.81,14.81,0,0,0,6.84-8.14C391,239.38,391.12,238.5,391.21,238.52Z" style="fill:#263238"></path><path d="M361.31,234.6a3.35,3.35,0,0,1-.05.7,16.78,16.78,0,0,1-.31,2,22.71,22.71,0,0,1-2.69,6.88,26.75,26.75,0,0,1-3,4.14,27,27,0,0,1-4.38,3.92,23.09,23.09,0,0,1-25.51,1.42,27.41,27.41,0,0,1-4.78-3.42,26.34,26.34,0,0,1-3.44-3.79,22.89,22.89,0,0,1-3.43-6.53,15,15,0,0,1-.52-1.94,2.69,2.69,0,0,1-.13-.68c.05,0,.26.93.84,2.55a23.7,23.7,0,0,0,3.54,6.38,26.35,26.35,0,0,0,3.43,3.69,26.63,26.63,0,0,0,4.73,3.32,22.8,22.8,0,0,0,25-1.39A27.62,27.62,0,0,0,355,248a27.13,27.13,0,0,0,3-4,23.88,23.88,0,0,0,2.8-6.73C361.15,235.56,361.25,234.59,361.31,234.6Z" style="fill:#263238"></path><rect x="163.02" y="274.35" width="72.84" height="7.54" style="fill:#e0e0e0"></rect><rect x="112.93" y="290.28" width="11.01" height="187.35" style="fill:#455a64"></rect><path d="M123.94,477.63s0-.34,0-1,0-1.59,0-2.83c0-2.48,0-6.13,0-10.84,0-9.41-.05-23-.08-39.93,0-33.75-.07-80.55-.11-132.78l.26.26h-11l.26-.26c-.08,87.57-.15,161.84-.18,187.35l-.08-.08,8.27.05h2l.69,0-.66,0-2,0-8.32,0h-.08v-.08c0-25.51-.1-99.78-.18-187.35V290H124.2v.26c0,52.3-.08,99.17-.11,133,0,16.87-.06,30.47-.07,39.87,0,4.68,0,8.31,0,10.78,0,1.22,0,2.15,0,2.79S123.94,477.63,123.94,477.63Z" style="fill:#263238"></path><rect x="386.05" y="290.28" width="11.01" height="187.35" style="fill:#455a64"></rect><path d="M397.06,477.63s0-.34,0-1,0-1.59,0-2.83c0-2.48,0-6.13,0-10.84,0-9.41-.05-23-.08-39.93,0-33.75-.07-80.55-.11-132.78l.26.26h-11l.26-.26c-.09,87.57-.16,161.84-.18,187.35l-.08-.08,8.27.05h2.05l.69,0-.66,0-2,0-8.32,0H386v-.08c0-25.51-.09-99.78-.17-187.35V290h11.53v.26c0,52.3-.08,99.17-.11,133,0,16.87-.06,30.47-.08,39.87,0,4.68,0,8.31,0,10.78,0,1.22,0,2.15,0,2.79S397.06,477.63,397.06,477.63Z" style="fill:#263238"></path><rect x="95.56" y="281.89" width="335.15" height="11.55" style="fill:#455a64"></rect><path d="M236.58,281.85s4-8.7,12.14-9,13.87,5.61,14.42,9.06Z" style="fill:#e0e0e0"></path><path d="M269.84,281.89l.81,0,2.37,0,9.15,0,34-.08,114.58-.09H431v12.08H417.35L286,293.63l-39.82-.08-10.82-.05-2.82,0-1,0,1,0,2.82,0,10.82-.05,39.82-.08,131.39-.07h13.36l-.26.26V281.89l.26.26-114.58-.09-34-.07-9.15-.05-2.37,0Z" style="fill:#263238"></path><path d="M324,259.84,347,269a3.93,3.93,0,0,1,2.42,3.63v4.93a3.94,3.94,0,0,1-3.81,3.94l-21.61.77Z" style="fill:#263238"></path><path d="M322.41,282.34H299a11.21,11.21,0,0,1-11.21-11.21h0A11.21,11.21,0,0,1,299,259.92h23.38a11.21,11.21,0,0,1,11.21,11.21h0A11.21,11.21,0,0,1,322.41,282.34Z" style="fill:#263238"></path><path d="M322.41,282.34a13.08,13.08,0,0,0,4.44-1,11.36,11.36,0,0,0,4.17-3.24,11.05,11.05,0,0,0-.45-14.3,11.29,11.29,0,0,0-3.82-2.73,11.63,11.63,0,0,0-4.91-.88l-22.8,0a11,11,0,0,0-2.39,21.68,19.61,19.61,0,0,0,4.44.28l4.16,0,12.56.08,3.41.05.89,0,.3,0a1.16,1.16,0,0,1-.3,0l-.89,0-3.41.05-12.56.09h-4.16a20.24,20.24,0,0,1-4.54-.26A11.45,11.45,0,0,1,299,259.66l22.8,0a12.11,12.11,0,0,1,5.09.94,11.62,11.62,0,0,1,4,2.86,11.28,11.28,0,0,1-7.29,18.85c-.39,0-.69,0-.89,0A1.36,1.36,0,0,1,322.41,282.34Z" style="fill:#455a64"></path><path d="M322.43,280.8H298.89a9.81,9.81,0,0,1-9.8-9.81h0a9.81,9.81,0,0,1,9.8-9.81h23.54a9.81,9.81,0,0,1,9.81,9.81h0A9.81,9.81,0,0,1,322.43,280.8Z" style="fill:#263238"></path><path d="M322.43,280.8a11.58,11.58,0,0,0,4.09-1,9.66,9.66,0,0,0,2.07-16.14,9.43,9.43,0,0,0-3.87-1.94,18.76,18.76,0,0,0-4.67-.28l-21.15,0a9.67,9.67,0,0,0-5.13,1.5,9.49,9.49,0,0,0-3.45,3.86,9.62,9.62,0,0,0,.6,9.48,10.05,10.05,0,0,0,3.38,3.12,9.63,9.63,0,0,0,4.18,1.16c2.87.05,5.58,0,8,.05l11.65.09,3.16.05.83,0,.28,0a.9.9,0,0,1-.28,0l-.83,0-3.16,0-11.65.08c-2.46,0-5.14,0-8.05,0a10.12,10.12,0,0,1-4.38-1.19,10.5,10.5,0,0,1-3.56-3.25,10.07,10.07,0,0,1,8.38-15.63l21.15,0h2.41a10.4,10.4,0,0,1,2.37.3,9.94,9.94,0,0,1,4,2.06,10.06,10.06,0,0,1,3.53,7.16,9.92,9.92,0,0,1-5.79,9.5,9.62,9.62,0,0,1-3.07.81c-.37,0-.65,0-.83,0Z" style="fill:#455a64"></path><path d="M306.41,277.46a84.71,84.71,0,0,1,7.14-6.08A82.53,82.53,0,0,1,321,265.7a84.71,84.71,0,0,1-7.14,6.08A82.53,82.53,0,0,1,306.41,277.46Z" style="fill:#455a64"></path><path d="M303.08,276a59.47,59.47,0,0,1,6-5.15,58,58,0,0,1,6.3-4.75,59.47,59.47,0,0,1-6,5.15A59.6,59.6,0,0,1,303.08,276Z" style="fill:#455a64"></path><path d="M303.46,271.46c-.1-.11.53-.81,1.39-1.57s1.65-1.29,1.75-1.19-.54.82-1.4,1.58S303.55,271.57,303.46,271.46Z" style="fill:#455a64"></path></g><g id="freepik--Character--inject-163"><path d="M137.85,129.35c-6.31-1.07-11.86,1.36-17.18,4.91A31.71,31.71,0,0,0,109,149.15,31.3,31.3,0,0,0,107.88,169a25,25,0,0,0,12.31,15.33c8.21,4.16,18.7,2.71,26.05-2.84s11.53-14.73,11.89-23.93a30.38,30.38,0,0,0-4.82-18.08,23.15,23.15,0,0,0-15.46-10.11" style="fill:#263238"></path><path d="M119.91,150.8c.92-2.41.56-5.1.93-7.66.8-5.63,5.34-10.15,10.59-12.35,4.88-2,10.85-1.59,16.73.31A22.39,22.39,0,0,1,158.67,138a17.7,17.7,0,0,1,3.26,15.89l-28.82-4.2c-2.7,2.23-5.46,4.5-8.74,5.75a6,6,0,0,1-3,.48,2.69,2.69,0,0,1-2.24-1.85C118.86,152.93,119.51,151.85,119.91,150.8Z" style="fill:#263238"></path><path d="M148.77,139.05l-25.16,5.33a4.7,4.7,0,0,0-4.38,4.6l.3,54.45a16.91,16.91,0,0,0,3.55,10.27l2.4,3.1c5.47,7,16.55,6.34,20.73-1.55a6.24,6.24,0,0,0,.58-1.42,11.76,11.76,0,0,0,.23-1.23l.48-5.31c.25-4.85.28-9.77.28-9.73s10.3-1.3,12.94-14.57c1.31-6.59,1.4-17.49,1.18-26.41C161.71,148.55,156.79,138.52,148.77,139.05Z" style="fill:#ffbe9d"></path><path d="M159.16,166.8a1.72,1.72,0,0,1-1.72,1.66,1.65,1.65,0,0,1-1.71-1.61,1.73,1.73,0,0,1,1.72-1.67A1.65,1.65,0,0,1,159.16,166.8Z" style="fill:#263238"></path><path d="M159.32,162.15c-.22.21-1.48-.8-3.32-.86s-3.23.8-3.42.57.14-.5.74-.91a4.74,4.74,0,0,1,2.75-.73,4.49,4.49,0,0,1,2.64,1C159.26,161.64,159.43,162.05,159.32,162.15Z" style="fill:#263238"></path><path d="M142.32,166.38a1.72,1.72,0,0,1-1.72,1.67,1.64,1.64,0,0,1-1.7-1.61,1.72,1.72,0,0,1,1.72-1.67A1.64,1.64,0,0,1,142.32,166.38Z" style="fill:#263238"></path><path d="M141.83,161.7c-.22.22-1.48-.79-3.32-.86s-3.23.8-3.42.57.13-.5.74-.91a4.74,4.74,0,0,1,2.75-.73,4.45,4.45,0,0,1,2.63,1C141.76,161.19,141.94,161.6,141.83,161.7Z" style="fill:#263238"></path><path d="M147.36,175.71a12.27,12.27,0,0,1,3-.42c.47,0,.92-.11,1-.43a2.31,2.31,0,0,0-.26-1.4c-.39-1.16-.81-2.37-1.25-3.64-1.73-5.17-3-9.42-2.76-9.49s1.78,4.07,3.52,9.25c.41,1.27.81,2.49,1.19,3.65a2.7,2.7,0,0,1,.17,1.86,1.19,1.19,0,0,1-.8.66,3.43,3.43,0,0,1-.8.08A11.9,11.9,0,0,1,147.36,175.71Z" style="fill:#263238"></path><path d="M147.78,197.56a34,34,0,0,1-17.69-5.46s4.14,9.41,17.55,8.68Z" style="fill:#eb996e"></path><path d="M146.41,180.12a3.33,3.33,0,0,0-2.93-1.35,3.07,3.07,0,0,0-2.14,1,1.92,1.92,0,0,0-.23,2.19,2.24,2.24,0,0,0,2.39.71,7.18,7.18,0,0,0,2.41-1.31,2.14,2.14,0,0,0,.55-.53.62.62,0,0,0,0-.69" style="fill:#eb996e"></path><path d="M141.89,176.78c.3,0,.22,2,1.88,3.48s3.79,1.34,3.8,1.62c0,.13-.49.37-1.39.36A5,5,0,0,1,143,181a4.36,4.36,0,0,1-1.45-2.92C141.51,177.25,141.75,176.76,141.89,176.78Z" style="fill:#263238"></path><path d="M141.73,156.23c-.2.5-2,.19-4.21.36s-3.94.7-4.21.24c-.12-.22.2-.68.93-1.14a7.37,7.37,0,0,1,6.41-.45C141.43,155.59,141.81,156,141.73,156.23Z" style="fill:#263238"></path><path d="M159.1,154.07c-.34.41-1.59-.07-3.12-.15s-2.83.17-3.11-.28c-.12-.22.1-.63.68-1a4.51,4.51,0,0,1,5,.35C159.09,153.44,159.25,153.87,159.1,154.07Z" style="fill:#263238"></path><path d="M115.3,146.92c2.6-7.66,14-18.1,22-17.38l12.74,8a12.46,12.46,0,0,1-8.63,9.35c-2.29.65-5,.78-6.43,2.72s-.68,4.9-2,6.94c-1.84,2.83-6.72,2.59-8.12,5.66-.61,1.34-.34,3-1,4.29-.85,1.77-5.42,3.95-7.28,3.32s-1.8-3.82-2.38-5.5a8.79,8.79,0,0,1-.15-5.93C115,154.62,114.05,150.57,115.3,146.92Z" style="fill:#263238"></path><path d="M122.14,171.49c0-1-1-3.38-2-3.57-2.6-.51-7.34-.48-7.64,6.17-.41,9.1,8.81,7.64,8.84,7.38S122,174.93,122.14,171.49Z" style="fill:#ffbe9d"></path><path d="M118.71,177.9s-.16.1-.43.21a1.58,1.58,0,0,1-1.19,0c-.94-.39-1.68-2-1.65-3.6a5.22,5.22,0,0,1,.54-2.25,1.83,1.83,0,0,1,1.25-1.16.8.8,0,0,1,.92.48c.11.26,0,.43.09.45s.2-.14.14-.52a1,1,0,0,0-.33-.59,1.22,1.22,0,0,0-.86-.27,2.23,2.23,0,0,0-1.72,1.34,5.35,5.35,0,0,0-.67,2.51c0,1.83.84,3.59,2.14,4a1.7,1.7,0,0,0,1.46-.17C118.69,178.12,118.75,177.91,118.71,177.9Z" style="fill:#eb996e"></path><path d="M113.35,144.56h0c0-2.85-3.53-4.71-6.3-5.35a11.78,11.78,0,0,0-8.2,1.56c-1.46.8-2.93,1.94-3.26,3.57s1.24,3.58,2.8,3a5.39,5.39,0,1,0,5.23,9.22A12.06,12.06,0,0,1,98.89,163a13.53,13.53,0,0,0,14.46-18.46Z" style="fill:#263238"></path><path d="M107,159a8.24,8.24,0,0,1-.34-2.73,20,20,0,0,1,4.19-12.43,8.31,8.31,0,0,1,1.92-2c.17.12-2.88,3.14-4.49,8S107.24,159,107,159Z" style="fill:#6853D9"></path><path d="M147.45,134.78c.83,3.7,6.46,8.45,8.94,11.34,4.71,5.5,5.64,7.33,5.6,19.63,2.22-4.25,3.93-8.41,3.76-13.2a19.86,19.86,0,0,0-5.27-13.05,15.47,15.47,0,0,0-13-4.72" style="fill:#263238"></path><path d="M143.75,419.35l-12.93,31.32L169.71,467c1.33-3.81-15.67-19.7-15.67-19.7l9.11-19.73Z" style="fill:#6853D9"></path><g style="opacity:0.6000000000000001"><path d="M142.72,440.54a1.73,1.73,0,0,0-1.86,1.36,1.66,1.66,0,0,0,1.33,1.85,1.82,1.82,0,0,0,2-1.44c0-.85-.75-1.86-1.59-1.78" style="fill:#fff"></path></g><path d="M130.82,450.67l1.3-3.16L169,464.34s1.42,1.48.71,2.62Z" style="fill:#263238"></path><path d="M154.75,447.33c-.08.19-1.07-.12-2.26.1s-2,.8-2.16.66.6-1.13,2-1.37S154.87,447.17,154.75,447.33Z" style="fill:#263238"></path><path d="M158.13,450.73c0,.2-1,.18-2,.71s-1.52,1.3-1.7,1.22.14-1.22,1.37-1.86S158.2,450.54,158.13,450.73Z" style="fill:#263238"></path><path d="M158.4,456.58c-.19,0-.06-1.09.87-1.93s2-.88,2-.69-.76.52-1.51,1.22S158.6,456.64,158.4,456.58Z" style="fill:#263238"></path><path d="M156.33,442.6c-.15.14-.91-.48-2-.86s-2.08-.39-2.11-.59,1.06-.55,2.35-.09S156.49,442.49,156.33,442.6Z" style="fill:#263238"></path><path d="M157.34,437.6a4,4,0,0,1-2-.82,10.12,10.12,0,0,1-1.77-1.48,10.63,10.63,0,0,1-.87-1.07,2.53,2.53,0,0,1-.4-.7.92.92,0,0,1,.34-1,1.14,1.14,0,0,1,1-.08,2.79,2.79,0,0,1,.69.4,7.24,7.24,0,0,1,1,.93,7.61,7.61,0,0,1,1.3,1.93,3.52,3.52,0,0,1,.48,2.06c-.11,0-.3-.75-.93-1.83a8.26,8.26,0,0,0-1.33-1.7,7.91,7.91,0,0,0-1-.82c-.37-.28-.72-.43-.9-.29s-.08.08-.05.24a2.17,2.17,0,0,0,.3.51,10.51,10.51,0,0,0,.78,1,12.06,12.06,0,0,0,1.58,1.51A16.48,16.48,0,0,1,157.34,437.6Z" style="fill:#263238"></path><path d="M157,437.77a3.4,3.4,0,0,1,.27-2.1,7,7,0,0,1,1.16-2,6.51,6.51,0,0,1,1-1,1.76,1.76,0,0,1,1.66-.47,1,1,0,0,1,.58.89,2.78,2.78,0,0,1-.1.8,4.65,4.65,0,0,1-.55,1.31,4.71,4.71,0,0,1-1.67,1.66,2.75,2.75,0,0,1-2.06.52c0-.13.79-.22,1.78-.94a4.77,4.77,0,0,0,1.38-1.57,4.35,4.35,0,0,0,.44-1.14c.11-.44.1-.84-.08-.86s-.65.09-.95.35a6.82,6.82,0,0,0-.92.85,7.31,7.31,0,0,0-1.19,1.79C157.19,437,157.09,437.78,157,437.77Z" style="fill:#263238"></path><path d="M186.92,432.08,175.53,464l39.64,14.37c1.14-3.87-16.61-18.91-16.61-18.91l8.14-20.15Z" style="fill:#6853D9"></path><g style="opacity:0.6000000000000001"><path d="M186.93,453.3a1.72,1.72,0,0,0-1.79,1.44,1.66,1.66,0,0,0,1.41,1.79,1.82,1.82,0,0,0,1.89-1.54c0-.85-.84-1.82-1.68-1.69" style="fill:#fff"></path></g><path d="M175.53,464l1.15-3.23,37.65,15s1.49,1.41.84,2.58Z" style="fill:#263238"></path><path d="M199.28,459.49c-.08.19-1.08-.07-2.26.21s-2,.9-2.13.76.55-1.15,2-1.46S199.38,459.33,199.28,459.49Z" style="fill:#263238"></path><path d="M202.81,462.72c0,.2-1,.23-1.93.81s-1.46,1.38-1.65,1.3.08-1.22,1.28-1.92S202.87,462.53,202.81,462.72Z" style="fill:#263238"></path><path d="M203.37,468.55c-.19,0-.11-1.09.77-2s1.94-1,2-.79-.74.56-1.45,1.29S203.57,468.6,203.37,468.55Z" style="fill:#263238"></path><path d="M200.62,454.69c-.14.15-.93-.44-2.05-.76s-2.1-.29-2.14-.49,1-.59,2.34-.2S200.77,454.58,200.62,454.69Z" style="fill:#263238"></path><path d="M201.38,449.65a4,4,0,0,1-2-.73,9.88,9.88,0,0,1-1.84-1.39,9.1,9.1,0,0,1-.92-1,2.41,2.41,0,0,1-.43-.68.91.91,0,0,1,.28-1.07,1.13,1.13,0,0,1,1-.13,2.93,2.93,0,0,1,.71.37,8.73,8.73,0,0,1,1.08.87,7.34,7.34,0,0,1,1.39,1.87,3.56,3.56,0,0,1,.59,2c-.12,0-.34-.73-1-1.77a8.47,8.47,0,0,0-1.41-1.64,8.93,8.93,0,0,0-1-.77c-.38-.26-.74-.39-.92-.25s-.08.09,0,.24a2.2,2.2,0,0,0,.31.5,10.25,10.25,0,0,0,.84,1,10.67,10.67,0,0,0,1.65,1.43C200.7,449.22,201.43,449.55,201.38,449.65Z" style="fill:#263238"></path><path d="M201,449.84a3.39,3.39,0,0,1,.17-2.11,7.06,7.06,0,0,1,1.06-2.08,6.93,6.93,0,0,1,1-1,1.72,1.72,0,0,1,1.63-.54,1,1,0,0,1,.62.85,2.51,2.51,0,0,1-.06.8,4.45,4.45,0,0,1-.48,1.34,4.88,4.88,0,0,1-1.59,1.75c-1.15.74-2,.68-2,.61a17.48,17.48,0,0,0,1.73-1,4.8,4.8,0,0,0,1.3-1.64,4.05,4.05,0,0,0,.38-1.16c.09-.44.06-.84-.11-.86a1.24,1.24,0,0,0-.93.4,6.86,6.86,0,0,0-.89.9,8,8,0,0,0-1.1,1.84C201.2,449.05,201.15,449.84,201,449.84Z" style="fill:#263238"></path><path d="M198.9,356c-.77.91-37.2,84.06-37.2,84.06s-24.66-10.35-24-11.26,29.42-75,29.42-75Z" style="fill:#455a64"></path><path d="M118.28,291.35l50-2.83,4.46,13.11c2.73,6.21,5.36,9.38,9,10.57,14.91,4.84,44.41,14.52,50.25,17.11,11,4.91,17.31,12.24,15,25.46-1.28,7.21-39.91,97.44-39.91,97.44l-28.19-12,23-73.41,1.61-9.3-78-1.13s-17.51-7.58-17.11-28.2A83.83,83.83,0,0,1,118.28,291.35Z" style="fill:#455a64"></path><path d="M119.43,198.77S106.55,216,106.89,232.88c.31,15.63,7,55.74,7,55.64l3.64,7.13-12,28.34s-6.29,22.33,8.69,31.29c9.42,5.63,66.46-44,66.46-44l-14-25.75s6.57-22,8.63-31.34c1.91-8.66-.38-13.86-5.41-21.93-2.49-4-22.17-28-22.17-28Z" style="fill:#6853D9"></path><g style="opacity:0.30000000000000004"><polygon points="136.03 313.86 172.81 312.7 175.38 304.99 132.31 304.99 136.03 313.86"></polygon></g><g style="opacity:0.30000000000000004"><path d="M177,348.17a196.37,196.37,0,0,1,18-31.44l-8.06-2.87-23,33.19Z"></path></g><path d="M212.62,266.34l21.75,3,9.15-4.62L252,264a3.46,3.46,0,0,1,.84,2.28l0,.48s3,.12,3.88,1.25.34,1.72.34,1.72,3.1-.09,3.16,2.45l-.09,1.28a3.16,3.16,0,0,1,.62,2c.14,1.52-.44,4.75-1.32,4.8s-1.47,0-1.46-1.22a8.33,8.33,0,0,0-.15-1.89l-2.91-.44s-7.19,5-9.48,5.16l-31.19.07Z" style="fill:#ffbe9d"></path><path d="M132.31,234s33.91,51.47,41.61,52.61,47.5,4.78,47.5,4.78l3.76-23.66-38.65-8.06s-28.44-42.77-31.21-45.9-8.87-6-14.25-3.32C131.42,215.38,130.35,230.77,132.31,234Z" style="fill:#6853D9"></path><path d="M155.32,213.81s.23.26.66.78,1,1.33,1.76,2.38c1.52,2.11,3.7,5.24,6.45,9.24,5.49,8,13.26,19.51,22.53,33.38l-.14-.09,38.65,8,.24.05,0,.24c-1.11,7-2.27,14.34-3.46,21.82l-.29,1.84,0,.24-.24,0c-15.89-1.48-31-2.87-44.73-4.44l-2.55-.33a5.28,5.28,0,0,1-2.39-1.08,27.76,27.76,0,0,1-3.73-3.33c-2.29-2.35-4.34-4.78-6.28-7.16-3.86-4.76-7.27-9.34-10.34-13.55-6.13-8.43-10.87-15.39-14.12-20.21l-3.7-5.58-.94-1.47-.31-.5a5.3,5.3,0,0,1,.35.48c.24.33.56.81,1,1.43l3.78,5.52c3.3,4.79,8.08,11.72,14.24,20.11,3.09,4.19,6.51,8.76,10.39,13.5,1.94,2.36,4,4.78,6.26,7.11a28,28,0,0,0,3.68,3.27,4.8,4.8,0,0,0,2.18,1l2.55.32c13.7,1.55,28.83,2.92,44.72,4.4l-.28.22.29-1.84c1.19-7.48,2.35-14.79,3.47-21.82l.2.29-38.64-8.09-.09,0-.05-.07c-9.23-13.9-16.94-25.44-22.37-33.49l-6.35-9.3c-.74-1.06-1.31-1.88-1.71-2.42S155.32,213.81,155.32,213.81Z" style="fill:#263238"></path><path d="M147.44,209c0,.1-1.3,0-3.33.3a15.73,15.73,0,0,0-12.06,9.41c-.81,1.88-1,3.17-1.1,3.15a3,3,0,0,1,.09-.91,12.43,12.43,0,0,1,.67-2.38,15.11,15.11,0,0,1,12.35-9.63,13,13,0,0,1,2.48-.08A3.11,3.11,0,0,1,147.44,209Z" style="fill:#263238"></path><g style="opacity:0.30000000000000004"><path d="M134.73,237.66s5.88,28.6,32.57,44.23C156.66,269,143.85,251.35,134.73,237.66Z"></path></g><rect x="147.45" y="379.77" width="7.59" height="83.52" style="fill:#e0e0e0"></rect><rect x="143.98" y="396.92" width="14.22" height="60.15" style="fill:#e0e0e0"></rect><path d="M70.81,366.28S116.85,381,150.1,381s71.59-14.74,71.59-14.74h-153" style="fill:#e0e0e0"></path><path d="M65.34,346v15.21a6.06,6.06,0,0,0,6.06,6.06H222.55a6.06,6.06,0,0,0,6.07-6.06V354a6.06,6.06,0,0,0-6-6.06L65.34,346" style="fill:#263238"></path><path d="M70,458.55s34.13-28.76,82.49-28.12,81.23,28.12,81.23,28.12L229,463.3s-38.56-19.6-79.33-18-75.54,18-75.54,18Z" style="fill:#263238"></path><circle cx="71.05" cy="468.68" r="8.95" transform="translate(-401.38 429.73) rotate(-76.67)" style="fill:#455a64"></circle><circle cx="151.07" cy="468.68" r="8.95" transform="translate(-287.16 244.1) rotate(-45)" style="fill:#455a64"></circle><circle cx="231.92" cy="468.68" r="8.95" transform="translate(-263.48 301.27) rotate(-45)" style="fill:#455a64"></circle><path d="M128.11,283.49c-3.6-16.85-6.85-40.55-12.55-49.09-4.63-6.94-15.93-14.24-18.84-27-1.56-6.85-3.17-12.28-4.32-15.86a7,7,0,0,0-6.64-4.83h-33a6.21,6.21,0,0,0-6.2,6.61c.49,7.63,1,19.69-.48,24.28C43.86,224.41,40.31,237,41.67,243c.54,2.36,9.28,28.37,14.27,43.64a118.64,118.64,0,0,1,5,22.42l5.45,45,78.73-1.73S130.8,296.12,128.11,283.49ZM67.28,229.06c-.48.36-1.15,0-1.62-.4a26.61,26.61,0,0,1-8.13-10.6,25.88,25.88,0,0,1-1.43-8,31.81,31.81,0,0,1,.13-8.33,10.59,10.59,0,0,1,4.25-6.94,3.32,3.32,0,0,1,3.28-.5c1.14.61,1.44,2.07,1.61,3.35l1.65,19c.18,3.62.5,7.84.61,11.2A1.37,1.37,0,0,1,67.28,229.06Zm18.19-11.75A26.53,26.53,0,0,1,79,229c-.4.45-1,.93-1.54.64a1.4,1.4,0,0,1-.53-1.13c-.4-3.34-.73-7.56-1.1-11.16L74.6,198.3c0-1.29.06-2.78,1.09-3.55a3.33,3.33,0,0,1,3.32,0A10.61,10.61,0,0,1,84.26,201a31.19,31.19,0,0,1,1.4,8.22A26.11,26.11,0,0,1,85.47,217.31Z" style="fill:#263238"></path><path d="M120.22,262.48c0,.15-15.92.26-35.56.26s-35.55-.11-35.55-.26,15.91-.26,35.55-.26S120.22,262.34,120.22,262.48Z" style="fill:#455a64"></path><path d="M147.45,363s-16.52-66.61-19.21-79.24c-3.6-16.85-6.85-40.55-12.55-49.09-4.63-6.94-15.93-14.24-18.85-27.05-1.55-6.84-3.16-12.27-4.32-15.85a7,7,0,0,0-6.64-4.83" style="fill:none"></path><path d="M85.88,186.89a3.8,3.8,0,0,1,.5,0,6.79,6.79,0,0,1,1.43.23,7,7,0,0,1,4.3,3.39c1.85,4.5,3.47,11.34,5.66,19.66a32.74,32.74,0,0,0,2.85,6.09,47,47,0,0,0,4.32,5.91c1.63,1.93,3.44,3.83,5.31,5.78a56.71,56.71,0,0,1,5.49,6.33,33.58,33.58,0,0,1,3.66,8c.95,2.84,1.76,5.8,2.48,8.82,1.47,6.05,2.67,12.38,3.91,18.86s2.42,12.8,3.86,18.84,2.82,11.88,4.14,17.44c2.69,11.1,5.11,21.1,7.14,29.51l4.82,19.88c.55,2.34,1,4.16,1.29,5.42.14.6.24,1.07.32,1.41s.09.48.09.48,0-.15-.14-.47l-.37-1.4c-.33-1.25-.79-3.06-1.39-5.39l-5-19.85c-2.06-8.39-4.52-18.38-7.25-29.47-1.33-5.56-2.72-11.39-4.17-17.44s-2.63-12.39-3.87-18.87-2.43-12.79-3.89-18.83c-.72-3-1.52-6-2.46-8.78a32.72,32.72,0,0,0-3.59-7.91,56,56,0,0,0-5.42-6.28c-1.86-2-3.68-3.87-5.32-5.83a47.08,47.08,0,0,1-4.32-6,33.82,33.82,0,0,1-2.86-6.18c-.65-2.08-1.06-4.1-1.52-6S95,200.63,94.54,199s-.89-3.19-1.31-4.59a25.52,25.52,0,0,0-1.3-3.78,6.92,6.92,0,0,0-4.15-3.39A8.29,8.29,0,0,0,85.88,186.89Z" style="fill:#455a64"></path><path d="M143.23,363s-16.72-66.61-19.41-79.24c-3.59-16.85-6.84-40.55-12.54-49.09-4.64-6.94-15.94-14.24-18.85-27.05-1.56-6.84-3.16-12.27-4.32-15.85a7,7,0,0,0-6.64-4.83" style="fill:none"></path><path d="M81.47,186.89a3.69,3.69,0,0,1,.49,0,6.77,6.77,0,0,1,1.44.23,7,7,0,0,1,4.3,3.39c1.85,4.5,3.46,11.35,5.66,19.67a33,33,0,0,0,2.85,6.09,46.22,46.22,0,0,0,4.32,5.9c1.63,1.94,3.44,3.83,5.32,5.79a56.64,56.64,0,0,1,5.48,6.33,33.58,33.58,0,0,1,3.66,8c1,2.85,1.76,5.8,2.48,8.83,1.47,6.05,2.67,12.38,3.91,18.86s2.42,12.8,3.87,18.85,2.84,11.88,4.17,17.43c2.71,11.1,5.16,21.09,7.21,29.5s3.72,15.16,4.87,19.88c.57,2.33,1,4.15,1.31,5.41.14.6.25,1.07.32,1.41a4.58,4.58,0,0,1,.1.48s-.06-.15-.15-.47-.21-.8-.37-1.4c-.33-1.25-.8-3.06-1.4-5.38-1.2-4.71-2.91-11.48-5-19.85s-4.57-18.38-7.33-29.46c-1.36-5.55-2.78-11.38-4.2-17.44s-2.64-12.39-3.88-18.86-2.44-12.8-3.9-18.84c-.71-3-1.51-6-2.45-8.79a32.89,32.89,0,0,0-3.59-7.91,58,58,0,0,0-5.41-6.29c-1.87-1.95-3.69-3.86-5.32-5.82a46.91,46.91,0,0,1-4.33-6A32.33,32.33,0,0,1,93,210.28c-.66-2.07-1.07-4.09-1.53-6s-.91-3.67-1.36-5.32-.89-3.19-1.31-4.6a25.56,25.56,0,0,0-1.29-3.78,6.92,6.92,0,0,0-4.15-3.39A8.45,8.45,0,0,0,81.47,186.89Z" style="fill:#455a64"></path><path d="M123.48,301l1,4.28h90.6a3.65,3.65,0,0,0,3.6-3.06h0a3.64,3.64,0,0,0-2.08-3.92c-5.76-2.63-21.59-8.36-49.86-8-40.08.47-43.25,6.78-43.25,6.78Z" style="fill:#263238"></path><path d="M188.13,301.78C188,303.16,173,354,173,354H157.49l14.95-52.26Z" style="fill:#263238"></path><path d="M216.62,305.3c0,.14-20.38.26-45.51.26s-45.52-.12-45.52-.26S146,305,171.11,305,216.62,305.15,216.62,305.3Z" style="fill:#455a64"></path><path d="M218.88,367.31l-.36.15-1.05.37-4.06,1.41c-3.52,1.23-8.67,2.87-15.08,4.71-3.22.85-6.73,1.89-10.57,2.7-1.92.42-3.89,1-5.95,1.31l-6.34,1.16a161.61,161.61,0,0,1-28.62,2c-2.55-.06-5.07-.09-7.54-.33l-3.69-.28-1.82-.13-1.79-.22-7-.86-6.69-1.1c-2.19-.33-4.29-.79-6.34-1.2L106,375.77c-3.82-.91-7.38-1.72-10.62-2.55l-8.69-2.33c-2.56-.7-4.74-1.37-6.53-1.89l-4.12-1.23L75,367.44a1.91,1.91,0,0,1-.36-.13l.37.08,1.08.28,4.14,1.14,6.55,1.8,8.71,2.25c3.24.81,6.8,1.59,10.62,2.49l6,1.21c2,.41,4.15.85,6.33,1.17l6.68,1.09,7,.85,1.79.21,1.82.13,3.67.27c2.47.24,5,.27,7.52.33a162.69,162.69,0,0,0,28.53-2l6.33-1.13c2.06-.35,4-.87,5.94-1.28,3.84-.79,7.35-1.8,10.57-2.64,6.42-1.79,11.58-3.37,15.12-4.54l4.09-1.31,1.07-.33A2.21,2.21,0,0,1,218.88,367.31Z" style="fill:#263238"></path><path d="M158.2,396.93a49.41,49.41,0,0,1-7.11.26,49.41,49.41,0,0,1-7.11-.26,47.74,47.74,0,0,1,7.11-.26A47.74,47.74,0,0,1,158.2,396.93Z" style="fill:#263238"></path></g></svg>