<svg xmlns="http://www.w3.org/2000/svg" viewBox="0 0 500 500"><g id="freepik--background-simple--inject-37"><path d="M415.31,141.72A70.67,70.67,0,0,0,303.55,118c-13.22,11.89-21.45,28.24-28.86,44.41s-14.51,32.85-26.16,46.28-29,23.33-46.66,21.17c-21.51-2.62-36.9-21.45-49.44-39.12s-26.6-37-47.73-41.83c-7.9-1.79-17.91-.27-21.26,7.11-2.78,6.11.31,13.14,3.36,19.12q31,60.77,62,121.53c12.6,24.7,26,50.33,48.32,66.73C224,383.18,260.4,386.26,293,379.07c18.06-4,35.9-11.11,49.35-23.81,18.1-17.1,26.12-41.94,35.69-64.94,10.43-25.06,18.31-51.41,32-74.84C432,177.93,415.31,141.72,415.31,141.72Z" style="fill:#6EDD92"></path><g style="opacity:0.9"><path d="M415.31,141.72A70.67,70.67,0,0,0,303.55,118c-13.22,11.89-21.45,28.24-28.86,44.41s-14.51,32.85-26.16,46.28-29,23.33-46.66,21.17c-21.51-2.62-36.9-21.45-49.44-39.12s-26.6-37-47.73-41.83c-7.9-1.79-17.91-.27-21.26,7.11-2.78,6.11.31,13.14,3.36,19.12q31,60.77,62,121.53c12.6,24.7,26,50.33,48.32,66.73C224,383.18,260.4,386.26,293,379.07c18.06-4,35.9-11.11,49.35-23.81,18.1-17.1,26.12-41.94,35.69-64.94,10.43-25.06,18.31-51.41,32-74.84C432,177.93,415.31,141.72,415.31,141.72Z" style="fill:#fff"></path></g></g><g id="freepik--character-2--inject-37"><g id="freepik--freepik--Character--inject-63--inject-37"><path d="M372.27,308.1a3.19,3.19,0,0,1-3.19,3.19H297.43a3.19,3.19,0,0,1-3.19-3.19l.78-1.89a9.43,9.43,0,0,1,8.72-5.83H363a9.43,9.43,0,0,1,9.28,7.72Z" style="fill:#6EDD92"></path><polygon points="305.41 311.29 301.9 311.29 298.99 404.37 301.52 404.37 305.41 311.29" style="fill:#6EDD92"></polygon><polygon points="305.41 311.29 301.9 311.29 298.99 404.37 301.52 404.37 305.41 311.29" style="fill:#fff;opacity:0.6000000000000001"></polygon><polygon points="320.96 311.29 324.46 311.29 327.38 396.7 324.85 396.7 320.96 311.29" style="fill:#6EDD92"></polygon><polygon points="320.96 311.29 324.46 311.29 327.38 396.7 324.85 396.7 320.96 311.29" style="fill:#fff;opacity:0.6000000000000001"></polygon><polygon points="348.68 311.29 345.17 311.29 342.25 404.37 344.79 404.37 348.68 311.29" style="fill:#6EDD92"></polygon><polygon points="348.68 311.29 345.17 311.29 342.25 404.37 344.79 404.37 348.68 311.29" style="fill:#fff;opacity:0.6000000000000001"></polygon><polygon points="364.23 311.29 367.73 311.29 370.65 396.7 368.11 396.7 364.23 311.29" style="fill:#6EDD92"></polygon><polygon points="364.23 311.29 367.73 311.29 370.65 396.7 368.11 396.7 364.23 311.29" style="fill:#fff;opacity:0.6000000000000001"></polygon><polygon points="277.02 346.66 263.11 377.17 256.11 373.65 263.38 340.32 277.02 346.66" style="fill:#ffc3bd"></polygon><polygon points="277.02 346.66 275.11 351.11 262.18 345.69 263.7 340.32 277.02 346.66" style="opacity:0.2;isolation:isolate"></polygon><path d="M253.84,368.74c-3.54.76-10,.82-13.9-.66-1.64-.62-4.26,2.48-.92,4.63s8.73,4.24,11.41,5.41c4.35,1.91,5.88,2.82,9.29,4.39a1.94,1.94,0,0,0,2.39-.81l3.75-7.62,0-.09a.59.59,0,0,0-.36-.76l-9.88-4.38A3,3,0,0,0,253.84,368.74Z" style="fill:#263238"></path><path d="M250.46,367.6c-.88-.89-1.62-2-1.53-2.66a.9.9,0,0,1,.76-.71,1.28,1.28,0,0,1,.92.14c1.52.88,2.55,4.81,2.59,5a.24.24,0,0,1-.09.26.28.28,0,0,1-.28,0A17.49,17.49,0,0,1,250.46,367.6Zm.28-2.52a1.59,1.59,0,0,0-.36-.28.69.69,0,0,0-.57-.11c-.34.09-.4.23-.41.34-.14.79,1.63,2.62,3.12,3.8A11.17,11.17,0,0,0,250.74,365.08Z" style="fill:#6EDD92"></path><path d="M252.81,369.58a.18.18,0,0,1-.07-.08c-.46-1.24-.6-4.5.36-5.14.22-.18.6-.26,1.11.16a1.8,1.8,0,0,1,.64,1.24c.14,1.65-1.61,3.75-1.69,3.85a.23.23,0,0,1-.23.08A.22.22,0,0,1,252.81,369.58ZM254,365l-.09-.11c-.33-.28-.47-.18-.53-.15-.53.44-.64,2.78-.29,4.19a5.64,5.64,0,0,0,1.27-3.13,1.28,1.28,0,0,0-.36-.8Z" style="fill:#6EDD92"></path><path d="M357.06,271.94s1.25,14.57-2.26,24.05c-4,10.68-34.75,8.68-60,8.68-3.08,17.64-15.35,42.61-15.35,42.61l-19.71-6.2S266.2,324,273.33,294.8C277,280,322,271.9,322,271.9Z" style="fill:#263238"></path><polygon points="284.38 340.08 260.19 331.64 258.29 341.57 280.48 348.82 284.38 340.08" style="fill:#6EDD92"></polygon><polygon points="308.51 349.26 294.24 346.39 290.11 383.65 298.37 386.97 308.51 349.26" style="fill:#ffc3bd"></polygon><polygon points="306.4 357.1 293.4 354 294.98 340.44 309.99 343.52 306.4 357.1" style="opacity:0.2;isolation:isolate"></polygon><path d="M288.57,377.81c-3.25,1.6-9.5,3.22-13.64,2.73-1.74-.22-3.54,3.41.22,4.71s9.5,2,12.38,2.51c4.68.8,6.39,1.33,10.07,2a2,2,0,0,0,2.13-1.36l1.8-8.3s0-.06,0-.09a.62.62,0,0,0-.55-.67l-10.64-1.82A3,3,0,0,0,288.57,377.81Z" style="fill:#263238"></path><path d="M285.82,376.67c-.88-.89-1.63-2-1.54-2.66a.9.9,0,0,1,.76-.71,1.26,1.26,0,0,1,.93.14c1.51.88,2.54,4.81,2.59,5a.26.26,0,0,1-.1.26.28.28,0,0,1-.28,0A17.41,17.41,0,0,1,285.82,376.67Zm.27-2.52a1.7,1.7,0,0,0-.36-.29.71.71,0,0,0-.57-.1c-.33.09-.39.23-.4.34-.14.79,1.63,2.62,3.11,3.8A11,11,0,0,0,286.09,374.15Z" style="fill:#6EDD92"></path><path d="M288.16,378.65a.16.16,0,0,1-.06-.08c-.47-1.24-.6-4.5.36-5.15.21-.17.59-.26,1.1.17a1.76,1.76,0,0,1,.64,1.23c.15,1.66-1.61,3.76-1.69,3.86a.23.23,0,0,1-.23.08A.25.25,0,0,1,288.16,378.65Zm1.19-4.63-.09-.11c-.33-.28-.47-.18-.53-.15-.53.44-.64,2.77-.29,4.19a5.56,5.56,0,0,0,1.27-3.13,1.26,1.26,0,0,0-.36-.8Z" style="fill:#6EDD92"></path><path d="M373.21,271.9S374.46,286.47,371,296c-4,10.72-35.08,9.45-52.88,9.45-.1,17.91-7.75,43.86-7.75,43.86l-17.55-3.14s2.11-14.48.41-45.32c-2.51-20.71,52.2-28.9,52.2-28.9Z" style="fill:#263238"></path><path d="M373.21,271.9S374.46,286.47,371,296c-4,10.72-35.08,9.45-52.88,9.45-.1,17.91-7.95,47-7.95,47l-18.31-4.69s5-17,1.37-46.89c-2.51-20.71,52.2-28.9,52.2-28.9Z" style="fill:#fff;opacity:0.1"></path><polygon points="313.18 345.67 290.68 340.32 289.92 349.47 310.51 353.95 313.18 345.67" style="fill:#6EDD92"></polygon><path d="M310.12,243l.56-2.08,1.09-4.23c1.45-5.68,2.82-11.44,4.22-17.19s1-5.17,2.45-10.89l12.67,3c-1.34,5.86-1,5.29-2.5,11.08s-3.19,11.54-5,17.32c-.41,1.44-.92,2.89-1.41,4.34l-.75,2.18-.39,1.1Z" style="fill:#ffc3bd"></path><path d="M311.41,238.11l-23.1-13-3.78,5.29s23.51,19,24,19.55,10,5.27,12.56-2.35S311.41,238.11,311.41,238.11Z" style="fill:#ffc3bd"></path><g style="opacity:0.1;isolation:isolate"><path d="M310.12,243l.56-2.08,1.09-4.23c1.45-5.68,2.82-11.44,4.22-17.19s1-5.17,2.45-10.89l12.67,3c-1.34,5.86-1,5.29-2.5,11.08s-3.19,11.54-5,17.32c-.41,1.44-.92,2.89-1.41,4.34l-.75,2.18-.39,1.1Z"></path><path d="M311.41,238.11l-23.1-13-3.78,5.29s23.51,19,24,19.55,10,5.27,12.56-2.35S311.41,238.11,311.41,238.11Z"></path></g><path d="M330.44,235.27l-18.94-5.84s-.56-3.48,1.22-10.14c3.67-13.7,12.37-18,17.86-11.86C338.05,215.77,334.51,226.27,330.44,235.27Z" style="fill:#6EDD92"></path><g style="opacity:0.6000000000000001"><path d="M330.44,235.27l-18.94-5.84s-.56-3.48,1.22-10.14c3.67-13.7,12.37-18,17.86-11.86C338.05,215.77,334.51,226.27,330.44,235.27Z" style="fill:#fff"></path></g><path d="M256.31,261.58,253,252.17,300.87,255c8.59.51,11,3.88,11,3.88a2.11,2.11,0,0,1-2.06,2.63C307.19,261.78,256.31,261.58,256.31,261.58Z" style="fill:#263238"></path><path d="M292.21,256.46a5.15,5.15,0,0,0-1.69,4.8,6.17,6.17,0,0,0,2.81,4.1,9.22,9.22,0,0,0,4.77,1.28,7.52,7.52,0,0,0,5.93-2.27,5.69,5.69,0,0,0-.18-7.43c-2.05-2-5.49-.42-5.49-.42S294.17,254.89,292.21,256.46Z" style="fill:#6EDD92"></path><path d="M292.21,256.46a5.15,5.15,0,0,0-1.69,4.8,6.17,6.17,0,0,0,2.81,4.1,9.22,9.22,0,0,0,4.77,1.28,7.52,7.52,0,0,0,5.93-2.27,5.69,5.69,0,0,0-.18-7.43c-2.05-2-5.49-.42-5.49-.42S294.17,254.89,292.21,256.46Z" style="fill:#fff;opacity:0.2"></path><path d="M299.89,254c.23,1-1.34,1.93-1.1,2.88l-.57-.24c0,.05.6-.28,1-2.49C299.26,253.92,299.5,254,299.89,254Z" style="fill:#6EDD92"></path><path d="M299.07,255.77s1.78-2.24,3.07-.71C302.14,255.06,301.32,257.7,299.07,255.77Z" style="fill:#6EDD92"></path><path d="M299.07,255.77s1.78-2.24,3.07-.71C302.14,255.06,301.32,257.7,299.07,255.77Z" style="opacity:0.1"></path><polygon points="306.94 253.95 266.73 258.25 265.8 249.54 303.49 245.51 306.18 246.85 306.94 253.95" style="fill:#6EDD92"></polygon><polygon points="303.49 245.51 306.18 246.85 306.94 253.95 266.73 258.25 265.8 249.54 303.49 245.51" style="fill:#fff;opacity:0.5"></polygon><path d="M266.73,258.25l-.76-7.1,40.21-4.3h0a16.15,16.15,0,0,1,.76,7.1h0Z" style="fill:#fafafa;opacity:0.5"></path><polygon points="294.74 247.98 295.35 255.09 297.88 254.92 297.28 247.8 294.74 247.98" style="fill:#6EDD92"></polygon><path d="M239.51,267.58l-.85-20.74,18.48-10.93s16.81,1.55,21.62.24c4.17-1.15,13.49-17.38,13.49-17.38l5.6,2.44s.43,5.91-3.42,13.31c-4.16,8-13.15,17.77-28.07,23.91C237.69,270.24,239.51,267.58,239.51,267.58Z" style="fill:#6EDD92"></path><path d="M266.93,258.71l-.4-.92c32.58-14.09,30.85-36.31,30.82-36.54l1-.09C298.37,221.39,300.22,244.31,266.93,258.71Z" style="fill:#263238"></path><path d="M292.25,218.77s-9.32,16.23-13.49,17.38c-4.81,1.31-21.62-.24-21.62-.24l-18.48,10.93,29.87,1.76a10,10,0,0,0,7-2.26C281.78,241.17,295,228.89,292.25,218.77Z" style="opacity:0.2"></path><polygon points="311.53 264.44 331.82 264.44 331.82 267.6 290.57 267.6 311.53 264.44" style="fill:#6EDD92"></polygon><path d="M323.13,204.49c-3.62,1.73-5.49,18.39-5.48,22,0,7.08,1.84,8.33,3.12,11.37,8,18.9,5.88,24.57,6.23,34h46.19c-9.52-30.44-3.37-54.42-10-67.49a9.51,9.51,0,0,0-9.49-6.56L340,198.5l-10.67,3Z" style="fill:#6EDD92"></path><polygon points="311.53 264.44 331.82 264.44 331.82 267.6 290.57 267.6 311.53 264.44" style="fill:#fff;opacity:0.2"></polygon><path d="M239.51,267.58l.67-11.34s66,5.08,71.68,2.64l-.33,5.56S312.38,270.5,239.51,267.58Z" style="fill:#6EDD92"></path><path d="M372.27,263.09h0a.25.25,0,0,1-.22-.28l.68-5.12a.25.25,0,0,1,.28-.22.25.25,0,0,1,.21.28l-.67,5.13A.26.26,0,0,1,372.27,263.09Z" style="fill:#6EDD92"></path><path d="M373.24,255.7h0a.24.24,0,0,1-.21-.28l1.44-11a2.59,2.59,0,0,0-2.6-2.56h-1.51a.25.25,0,0,1,0-.5h1.51a3.1,3.1,0,0,1,3.1,3.1l-1.45,11A.24.24,0,0,1,373.24,255.7Z" style="fill:#6EDD92"></path><polygon points="290.11 222.33 285.52 221.91 280.93 227.18 284.53 233.53 288.97 228.1 288.8 224.41 290.11 222.33" style="fill:#ffc3bd"></polygon><path d="M244,236.23l-1.6,9.42L264.66,247a15.17,15.17,0,0,0,15.44-10.63c.16-.54.31-1.11.43-1.69a5.35,5.35,0,0,0-4.16-6.4l-.26-.05c-4.79-.8-16.61.06-16.61.06Z" style="fill:#6EDD92"></path><path d="M244,236.23l-1.6,9.42,22,1.3a15.56,15.56,0,0,0,16.08-11.77c0-.17.09-.35.12-.53a5.35,5.35,0,0,0-4.16-6.4l-.26-.05c-4.79-.8-16.61.06-16.61.06Z" style="fill:#fff;opacity:0.2"></path><path d="M261.2,245a.74.74,0,0,1-.69-.77,17.36,17.36,0,0,1,6.34-12.38l5.53-4.51a.72.72,0,1,1,.92,1.12L267.77,233a15.88,15.88,0,0,0-5.8,11.35A.73.73,0,0,1,261.2,245Z" style="fill:#263238"></path><path d="M346.2,206.82c-.86,1.86-2.42,7.74-4.52,7.38a37.24,37.24,0,0,0-4-.63c-1.89,0-2.62,3-4.22,4-1.25.78-1.62.79-2.93.1-1-.54-2.2-2.38-3-3.71-.31-.56-1.52-.49-2.13-.33-1.08.28-1.21.32-1.85-.56-1.06-1.43-.86-3.45-.19-5.1,1.52-3.8,3.75-6.29,7.62-7.62C336.1,198.62,351.88,194.53,346.2,206.82Z" style="fill:#fff;opacity:0.7000000000000001"></path><path d="M331.82,214.29c5.8-2.79,10.5-7.45,11.8-10.79.95-2.39.6-2.88-1.05-4.51-4.68-4.6-5.14-12-5.61-17.88l-5.47,6.34-6.71,7.85a14.83,14.83,0,0,1,2.45,3.33c.83,1.53,1,3,.21,4.32-.66,1.2-1.47,4-1.09,5.3C326.89,211.26,329.28,212.57,331.82,214.29Z" style="fill:#ffc3bd"></path><path d="M324.78,195.3l.16.1a18.86,18.86,0,0,1,2.29,3.23c.1.18.19.36.3.53,2.54-1.86,4.86-5.76,4.17-8.49a15,15,0,0,0-.82-2.36c-.09-.18-.18-.35-.25-.51L326.84,194Z" style="opacity:0.2;isolation:isolate"></path><path d="M309.14,167.13c-4.54,3.2,3.58,17.79,4.46,12.12C315.26,168.46,314.68,163.21,309.14,167.13Z" style="fill:#263238"></path><path d="M337.14,156.59A18.52,18.52,0,0,1,344,170.18,24.22,24.22,0,0,1,339.61,185c-.53.78-1.24,1.62-2.19,1.63a2.16,2.16,0,0,1-1.87-1.39,7.31,7.31,0,0,1-.45-2.42,33.37,33.37,0,0,0-8.75-19.84c-2-2.13-7.23-7.3-2.33-9C328.29,152.39,333.68,153.93,337.14,156.59Z" style="fill:#263238"></path><path d="M317.33,161.76c-8.85,4.86-8.48,18.58-5.48,26.52,3.37,8.81,15.58,11.45,21.94,3.45,4.23-5.32,3.44-10.67,2.92-19.88S326.18,156.9,317.33,161.76Z" style="fill:#ffc3bd"></path><path d="M326.51,162.29c.43,1,1.59,1.5,2.52,2.11s1.69,2.45,1.07,3.38c.73-.11,1.6-.33,2,.32s-.18.86-.67,1.42c0,0,2.56,0,2,1.19l-.64,1.18a3.48,3.48,0,0,1,2.09.38c.44.59-.44,1.09-.86,1.75a4.94,4.94,0,0,0,5.55-1.9,5.05,5.05,0,0,0,.46-.77,13.9,13.9,0,0,1,1.61,2.86,7.09,7.09,0,0,1-.32,6.47c-1.34,2-2.83,1.39-4.2,3.36-1.76,2.55-1.24,7.54.9,8.87s5.28.52,7.45-.76a11,11,0,0,0,4.54-5.85c1.77-4.88.95-10.42-1.23-15.14a39.81,39.81,0,0,0-5.91-8.86c-1.32-1.55-4.05-5.74-6.5-5.25a2.51,2.51,0,0,0-.8.31,24.86,24.86,0,0,1-1.35-2.14l-1.06.19a49.6,49.6,0,0,0-4.29,2.67,7.14,7.14,0,0,0-1.92,1.75A2.66,2.66,0,0,0,326.51,162.29Z" style="fill:#263238"></path><path d="M337.33,173.4c-2.42,1-3.4,4.57-3,6.88.49,2.57,3.09,4.27,5,2.27a8.79,8.79,0,0,0,2.33-5.67C341.73,174.3,339.75,172.36,337.33,173.4Z" style="fill:#ffc3bd"></path><path d="M325.54,169.71a5.41,5.41,0,0,1-5.93-3.42c0,1.51.3,2.22,1.33,3.89-1.86.78-4.52-.3-5.76-1.88a3.3,3.3,0,0,0,1.45,2.5c-1.8.61-3.91.79-5.29-.54-.27.67.07,1.4,1,2-2.39.83-5.06-1.25-5.57-3.73s-.52-6.57,1-8.59c2.12-2.82,10.69-7.49,14.62-5.14,2.13,1.27,4.43,3.12,4.44,5.06C326.91,162.74,323.92,167.29,325.54,169.71Z" style="fill:#263238"></path><polygon points="335.79 161.51 339.03 168.91 336.84 170.15 333.2 162.51 335.79 161.51" style="fill:#6EDD92"></polygon><path d="M336.12,174.22a4.77,4.77,0,0,0-1.31,2.92c-.08,1.74-1.33-2.54-.86-3.12S336.16,173.4,336.12,174.22Z" style="fill:#263238"></path><path d="M320.46,175.44c-.49.12-.78.83-.61,1.59s.68,1.28,1.17,1.16.76-.83.61-1.59S321,175.32,320.46,175.44Z" style="fill:#263238"></path><path d="M320.46,175.42s-.1.53-.38.54a7.22,7.22,0,0,1-1.22-.27Z" style="fill:#263238"></path><path d="M312,177.46c-.49.12-.78.83-.61,1.59s.68,1.28,1.17,1.16.76-.83.61-1.59S312.45,177.34,312,177.46Z" style="fill:#263238"></path><path d="M312,177.45s-.09.52-.38.53a6.5,6.5,0,0,1-1.22-.26Z" style="fill:#263238"></path><path d="M317.6,184.57s-1.76,1.07-3.16.36a24.49,24.49,0,0,0,1.52-6.36Z" style="fill:#ed847e"></path><path d="M318.28,188.93h0a.22.22,0,0,1-.23-.21v0a.2.2,0,0,1,.2-.21,6.4,6.4,0,0,0,4.82-2.88s0,0,0,0a.22.22,0,0,1,.32-.05.23.23,0,0,1,0,.32,6.7,6.7,0,0,1-4.29,3C318.87,188.87,318.58,188.91,318.28,188.93Z" style="fill:#263238"></path><path d="M322.29,173.47a6.53,6.53,0,0,0-4.39-.9.45.45,0,1,1-.29-.86,7.25,7.25,0,0,1,5.26,1.06.46.46,0,0,1,.06.64.59.59,0,0,1-.18.13A.47.47,0,0,1,322.29,173.47Z" style="fill:#263238"></path><path d="M312,173.78a3.44,3.44,0,0,0-1.95,2.56h0a.44.44,0,0,1-.49.4h0a.45.45,0,0,1-.41-.49,4.35,4.35,0,0,1,2.43-3.29.47.47,0,0,1,.61.21.52.52,0,0,1,0,.21A.5.5,0,0,1,312,173.78Z" style="fill:#263238"></path><path d="M363.35,204.73c-2.25,10.45-9.59,33-10.65,36.2l-.49,1.25-.25.66c-.09.22-.15.37-.31.79a12.2,12.2,0,0,1-2.45,3.51,16.88,16.88,0,0,1-5.63,3.6,36.51,36.51,0,0,1-10.25,2.33c-3.22.29-12.32.79-15.45.29l-2.14-6.57c5.79-.5,20.85-5,23.14-6.14a5.71,5.71,0,0,0,1.88-1.47c.15-.17.12-.32.1-.26l.1-.26.16-.41c.09-.27.14-.61.25-.88.64-2.68,8.05-23.72,10.19-32.73Z" style="fill:#ffc3bd"></path><path d="M359.53,229.64l-17.75-4.52a69.38,69.38,0,0,1,2.8-14.12c4.18-12.5,10.66-16.89,17.84-10.24C370.62,208.34,364.41,221.06,359.53,229.64Z" style="fill:#6EDD92"></path><path d="M359.53,229.64l-17.75-4.52a69.38,69.38,0,0,1,2.8-14.12c4.18-12.5,10.66-16.89,17.84-10.24C370.62,208.34,364.41,221.06,359.53,229.64Z" style="fill:#fff;opacity:0.6000000000000001"></path><path d="M299.68,244.18,298,247.73l6.68-.76.35.62a12.62,12.62,0,0,0,7.56,6c2.75.76,8-.5,8.76-2.62l-3.16-1.27c-.76-2.36-8.29-8.65-8.29-8.65a3.11,3.11,0,0,0-1.92-.36l-4.06.55A5.44,5.44,0,0,0,299.68,244.18Z" style="fill:#ffc3bd"></path></g></g><g id="freepik--character-1--inject-37"><g id="freepik--character-1--inject-37"><polygon points="165.31 395.05 175.39 395.46 183.48 351.02 184.2 347.01 184.69 344.32 169.52 344.32 169.45 345.26 169.01 350.45 165.31 395.05" style="fill:#ffc3bd"></polygon><path d="M177.19,390.26a.26.26,0,0,1-.18-.21.24.24,0,0,1,.12-.24c.16-.08,3.76-1.95,5.43-1.42a1.24,1.24,0,0,1,.73.58.92.92,0,0,1,0,1c-.44.53-1.75.71-3,.66A18.83,18.83,0,0,1,177.19,390.26ZM178,390c1.87.3,4.42.39,4.91-.25.07-.08.14-.22,0-.52a.71.71,0,0,0-.45-.36,1.77,1.77,0,0,0-.46-.07A10.89,10.89,0,0,0,178,390Z" style="fill:#6EDD92"></path><path d="M177.07,390.24a.23.23,0,0,1-.1-.22c0-.13.4-2.84,1.72-3.84a1.77,1.77,0,0,1,1.35-.36c.65.09.85.43.86.71.17,1.14-2.34,3.23-3.57,3.72a.12.12,0,0,1-.1,0A.23.23,0,0,1,177.07,390.24Zm2.79-4a1.23,1.23,0,0,0-.84.27,5.7,5.7,0,0,0-1.46,3c1.28-.69,2.94-2.34,2.9-3,0-.06,0-.24-.46-.29Z" style="fill:#6EDD92"></path><path d="M176.22,388.81l-11-.44a.89.89,0,0,0-.9.66L162,397.91a1.47,1.47,0,0,0,1,1.81,1.18,1.18,0,0,0,.31,0c4,.09,7.52,0,12.46.21,5.83.24,4.32.87,11.18,1.24,4.13.22,5.07-4.45,3.33-4.75-8-1.32-8.72-3.78-11.7-6.77A3.49,3.49,0,0,0,176.22,388.81Z" style="fill:#263238"></path><path d="M182.37,205.57l.76.16.62.07,1.18.12c.77.06,1.51.09,2.26.12,1.49.05,3,0,4.42,0a67.31,67.31,0,0,0,8.61-1,68.87,68.87,0,0,0,8.36-2.05c1.36-.38,2.74-.86,4.06-1.33s2.58-1,4-1.6a23.5,23.5,0,0,0,8.45-6.47,46.19,46.19,0,0,0,5.06-7.28c1.37-2.44,6.69-18.91,7.43-21.58l-5.94-4.62c-2.75,4.11-7.8,15.85-11,19.65a44.49,44.49,0,0,1-4.75,4.86,11.68,11.68,0,0,1-4.19,2.53c-1,.28-2.26.63-3.38.92s-2.29.58-3.46.79-2.31.47-3.47.64-2.32.34-3.49.54c-4.34-.91-7.86-2-9-2l-5.87-1L181.8,187Z" style="fill:#6EDD92"></path><path d="M182.37,205.57l.76.16.62.07,1.18.12c.77.06,1.51.09,2.26.12,1.49.05,3,0,4.42,0a67.31,67.31,0,0,0,8.61-1,68.87,68.87,0,0,0,8.36-2.05c1.36-.38,2.74-.86,4.06-1.33s2.58-1,4-1.6a23.5,23.5,0,0,0,8.45-6.47,46.19,46.19,0,0,0,5.06-7.28c1.37-2.44,6.69-18.91,7.43-21.58l-5.94-4.62c-2.75,4.11-7.8,15.85-11,19.65a44.49,44.49,0,0,1-4.75,4.86,11.68,11.68,0,0,1-4.19,2.53c-1,.28-2.26.63-3.38.92s-2.29.58-3.46.79-2.31.47-3.47.64-2.32.34-3.49.54c-4.34-.91-7.86-2-9-2l-5.87-1L181.8,187Z" style="fill:#fff;opacity:0.6000000000000001"></path><path d="M251.65,155.34,244.26,160a12.37,12.37,0,0,1-6.15,4.61,3.87,3.87,0,0,1-4.29-1.45l-2.17-3,3.89-7.33.1.08-.1-.09,8.65-2.85Z" style="fill:#ffc3bd"></path><path d="M231.23,140.42H259.6a1,1,0,0,1,1,1v12.44a2.08,2.08,0,0,1-2.08,2.08H232.35a2.08,2.08,0,0,1-2.08-2.08V141.38A1,1,0,0,1,231.23,140.42Z" style="fill:#6EDD92"></path><path d="M231.21,140.42h28.42a.94.94,0,0,1,.94.94v12.73a1.81,1.81,0,0,1-1.81,1.81H232.08a1.81,1.81,0,0,1-1.81-1.81V141.36A.94.94,0,0,1,231.21,140.42Z" style="opacity:0.2"></path><path d="M231.07,140.42h28.51a1.7,1.7,0,0,1,1.7,1.7v4.29a0,0,0,0,1,0,0h-31.9a0,0,0,0,1,0,0v-4.29A1.7,1.7,0,0,1,231.07,140.42Z" style="fill:#6EDD92"></path><rect x="229.38" y="146.16" width="31.9" height="0.5" style="fill:#fff"></rect><path d="M242.74,143.51v5.79h5.79v-5.79Zm5.17,5h-4.54v-4.16h4.54Z" style="fill:#fff"></path><rect x="242.12" y="143.51" width="0.62" height="1.19" style="opacity:0.2"></rect><rect x="248.53" y="143.51" width="0.62" height="1.19" style="opacity:0.2"></rect><path d="M246.87,148.53h-2.46a1,1,0,0,1-1-.94h0a1,1,0,0,1,1-.93h2.46a1,1,0,0,1,1,.93h0A1,1,0,0,1,246.87,148.53Z" style="opacity:0.4"></path><path d="M192.46,260.61c-.1.73-.2,1.48-.31,2.23l-53.94-2.16c-.05-7.62,5.23-30.31,1.09-64.44a9.32,9.32,0,0,1,8.06-10.41l.33,0c2.65-.22,5.58-.39,8.45-.43a202,202,0,0,1,22.94.91c2.94.39,5.8,1,8.25,1.52l.47.13c4.27,1.28,6.15,6.2,6.65,10.73C195.46,208,197.26,225.74,192.46,260.61Z" style="fill:#263238"></path><path d="M192.46,260.61c-.1.73-.2,1.48-.31,2.23l-53.94-2.16c-.05-7.62,5.23-30.31,1.09-64.44a9.32,9.32,0,0,1,8.06-10.41l.33,0c2.65-.22,5.58-.39,8.45-.43a202,202,0,0,1,22.94.91c2.94.39,5.8,1,8.25,1.52l.47.13c4.27,1.28,6.15,6.2,6.65,10.73C195.46,208,197.26,225.74,192.46,260.61Z" style="fill:#6EDD92"></path><path d="M252.38,158.34H250a.25.25,0,0,1-.25-.25.25.25,0,0,1,.25-.25h2.38a.25.25,0,0,1,.25.25A.25.25,0,0,1,252.38,158.34Z" style="fill:#6EDD92"></path><path d="M259.66,158.34h-4.91a.26.26,0,0,1-.25-.25.25.25,0,0,1,.25-.25h4.91a2.61,2.61,0,0,0,2.6-2.6v-1.52a.25.25,0,0,1,.25-.25.25.25,0,0,1,.25.25v1.52A3.1,3.1,0,0,1,259.66,158.34Z" style="fill:#6EDD92"></path><path d="M156,192.88c1.36,1.84,7.83,7.8,10,6.93a42.5,42.5,0,0,1,4.28-1.6c2.08-.43,3.55,2.73,5.54,3.47,1.54.59,1.95.52,3.23-.54a12,12,0,0,0,3.12-4.47,1.57,1.57,0,0,1,1.56-1.1c1.26.06,3-.07,3.47-1.17.84-1.81.17-4-.93-5.65-2.53-3.82-7.09-5.91-11.63-6.5C168.64,181.46,147,180.67,156,192.88Z" style="fill:#6EDD92"></path><path d="M156,192.88c1.36,1.84,7.83,7.8,10,6.93a42.5,42.5,0,0,1,4.28-1.6c2.08-.43,3.55,2.73,5.54,3.47,1.54.59,1.95.52,3.23-.54a12,12,0,0,0,3.12-4.47,1.57,1.57,0,0,1,1.56-1.1c1.26.06,3-.07,3.47-1.17.84-1.81.17-4-.93-5.65-2.53-3.82-7.09-5.91-11.63-6.5C168.64,181.46,147,180.67,156,192.88Z" style="fill:#fff;opacity:0.6000000000000001"></path><path d="M161.44,168c.26,5.16-.06,10.92-1.89,15a5.66,5.66,0,0,0,2,7.05,84.22,84.22,0,0,0,12.29,6.74,5.65,5.65,0,0,0,7-2l.1-.15a5.62,5.62,0,0,0-1.68-7.64c-5-3.36-4.69-8-3-13.12l-10.55-8.39C164,163.8,161.32,165.36,161.44,168Z" style="fill:#ffc3bd"></path><path d="M161.44,168c-.13-2.6,2.49-4.16,4.26-2.56l10.56,8.43a15.09,15.09,0,0,0-.86,7.78,15,15,0,0,1-7-1.08,15.38,15.38,0,0,1-7-5.61A52.15,52.15,0,0,0,161.44,168Z" style="opacity:0.2;isolation:isolate"></path><path d="M176.6,146.38l2.46-2.84s-3.15-5.58-6.72-5.94S176.6,146.38,176.6,146.38Z"></path><path d="M149.32,159.91c.53,1.21,1,2.37,1.5,3.46,3.12,7.19,5.32,11.77,11.51,14.31,10.69,4.4,22.3-4.66,21.43-15-.77-9.32-8-24.19-19.79-24.16-9.21,0-15.17,8-15.72,15.26A12.67,12.67,0,0,0,149.32,159.91Z" style="fill:#ffc3bd"></path><path d="M177.25,163.35h0a8,8,0,0,1-7.35.66.27.27,0,0,1-.13-.37.27.27,0,0,1,.37-.13h0a7.57,7.57,0,0,0,6.81-.65.31.31,0,0,1,.4.1A.28.28,0,0,1,177.25,163.35Z" style="fill:#263238"></path><path d="M167.44,154.41c.46.76,1.23,1.12,1.73.82s.53-1.15.06-1.92-1.24-1.12-1.73-.82S167,153.65,167.44,154.41Z" style="fill:#263238"></path><path d="M176.15,150.89c.47.77,1.24,1.19,1.74.83a1.43,1.43,0,0,0,.06-1.92c-.46-.77-1.25-1.19-1.74-.83S175.69,150.14,176.15,150.89Z" style="fill:#263238"></path><path d="M163.91,152.13a.53.53,0,0,0,.38-.4,4.1,4.1,0,0,1,2.29-3,.53.53,0,0,0,.3-.68.5.5,0,0,0-.65-.3h0a5.17,5.17,0,0,0-2.93,3.75.53.53,0,0,0,.44.61Z" style="fill:#263238"></path><path d="M177,146.42a.48.48,0,0,0,.24-.2.5.5,0,0,0-.14-.71h0a5.14,5.14,0,0,0-4.73-.56.52.52,0,0,0-.24.7.53.53,0,0,0,.67.25h0a4.08,4.08,0,0,1,3.78.49A.58.58,0,0,0,177,146.42Z" style="fill:#263238"></path><path d="M174.73,154.86c1.86,1.22,2.08,1,4.33,1.79a4.55,4.55,0,0,1-2.93,1.79Z" style="fill:#ff5652"></path><path d="M149.32,159.91c.53,1.21,1,2.37,1.5,3.46a4.59,4.59,0,0,1,2.65-.17,6.67,6.67,0,0,1,3.56,2.42,70.07,70.07,0,0,0-3.16-10.47c-.43-1.08-.73-2.91-2.18-2.76a9.09,9.09,0,0,0-3.44,1.38A12.67,12.67,0,0,0,149.32,159.91Z" style="opacity:0.2;isolation:isolate"></path><path d="M150.92,168.85a8.14,8.14,0,0,0,5.36,2.72c2.57.14,2.93-2.55,1.43-4.86-1.32-2.13-4.27-4.76-6.48-3.8S149.11,166.86,150.92,168.85Z" style="fill:#ffc3bd"></path><polygon points="169.45 345.26 169.01 350.45 183.23 352.38 184.2 347.01 185.05 347.11 185.75 338.69 185.81 337.95 168.32 337.25 167.87 339.77 166.96 344.97 169.45 345.26" style="opacity:0.2;isolation:isolate"></polygon><path d="M192.2,262.84a273.51,273.51,0,0,1,1.47,55.61c-1.19,13.28-3.65,20-3.65,20l-22.17,1.32s-.49-7-.66-19.45c.53-34.3-10.48-58.9-10.48-58.9Z" style="fill:#6EDD92"></path><path d="M192.2,262.84a273.51,273.51,0,0,1,1.47,55.61c-1.19,13.28-3.65,20-3.65,20l-22.17,1.32s-.49-7-.66-19.45c.53-34.3-10.48-58.9-10.48-58.9Z" style="fill:#263238"></path><path d="M163.36,277.86c8.88,2.31,6.3,17.29,3.27,27.38a160.69,160.69,0,0,0-4.55-27.31Z" style="opacity:0.30000000000000004;isolation:isolate"></path><polygon points="87.26 359.28 93.01 367.58 136.39 338.28 125.89 326.71 87.26 359.28" style="fill:#ffc3bd"></polygon><path d="M98.24,365.91a.26.26,0,0,1,0-.21.24.24,0,0,1,.32-.11c.16.08,3.82,1.84,4.4,3.48a1.27,1.27,0,0,1,0,.94.94.94,0,0,1-.85.62c-.72,0-1.57-.95-2.31-2A17.52,17.52,0,0,1,98.24,365.91Zm4.05,2.91a10.66,10.66,0,0,0-3.35-2.49c.86,1.7,2.32,3.8,3.13,3.81.1,0,.26,0,.41-.34a.73.73,0,0,0,0-.58,1.53,1.53,0,0,0-.21-.4Z" style="fill:#6EDD92"></path><path d="M98.19,365.75a.27.27,0,0,1,.12-.21c.1-.05,2.5-1.37,4.1-.91a1.76,1.76,0,0,1,1.13.86.86.86,0,0,1-.05,1.11c-.83.8-4,0-5.14-.64h-.09A.48.48,0,0,1,98.19,365.75Zm4.11-.61a5.64,5.64,0,0,0-3.32.67c1.32.6,3.67,1,4.17.49,0,0,.17-.15,0-.54l-.08-.11A1.23,1.23,0,0,0,102.3,365.14Z" style="fill:#6EDD92"></path><path d="M98.81,364.26l-6.27-9.07a.87.87,0,0,0-1.05-.32L83,358.33a1.46,1.46,0,0,0-.82,1.9,1.41,1.41,0,0,0,.17.32c2.32,3.23,5.77,7.83,8.62,11.94,3.32,4.82.88,1.84,4.77,7.48,2.37,3.42,6.46,2,5.79.34-3.07-7.48-2.56-9.43-2-13.6A3.43,3.43,0,0,0,98.81,364.26Z" style="fill:#263238"></path><polygon points="140.07 335.61 129.25 343.1 120.88 330.94 131.16 322.71 140.07 335.61" style="opacity:0.2;isolation:isolate"></polygon><path d="M173,262.08s-5.89,30-18.61,56.69c-9.49,17.06-14.88,18.48-14.88,18.48l-16.44-12.4s2.67-4.26,5.26-14.57c7.63-33.29,9.86-49.59,9.86-49.59Z" style="fill:#263238"></path><path d="M173,262.08s-5.89,30-18.61,56.69c-9.49,17.06-14.88,18.48-14.88,18.48l-16.44-12.4s2.67-4.26,5.26-14.57c7.63-33.29,9.86-49.59,9.86-49.59Z" style="fill:#fff;opacity:0.1"></path><path d="M145.81,337.58c0,.06-5.81,4.18-5.81,4.18l-20.1-16.39,4.24-4.78Z" style="fill:#6EDD92"></path><path d="M145.81,337.58c0,.06-5.81,4.18-5.81,4.18l-20.1-16.39,4.24-4.78Z" style="fill:#fff;opacity:0.6000000000000001"></path><path d="M165.08,335.83l0,8.91L167,345l2.49.29L184.2,347l.85.1,5,.58s2-9.75,1.92-9.75l-1.73-.14L167.65,336Z" style="fill:#6EDD92"></path><path d="M165.08,335.83l0,8.91L167,345l2.49.29L184.2,347l.85.1,5,.58s2-9.75,1.92-9.75l-1.73-.14L167.65,336Z" style="fill:#fff;opacity:0.6000000000000001"></path><path d="M142.67,187.85c-8.16,3.82-14.9,18-16.42,20.27-1,1.47-2,2.93-2.83,4.45-1.91,3.29-3.79,6.65-5.54,10.08l-.24.46-.43.89a12.86,12.86,0,0,0-.78,2.34,10.81,10.81,0,0,0,.19,5.3,11.89,11.89,0,0,0,2,3.92,16.52,16.52,0,0,0,2.35,2.38,21.47,21.47,0,0,0,4.52,2.9,39.92,39.92,0,0,0,4.31,1.85,62,62,0,0,0,8.44,2.32,65.73,65.73,0,0,0,8.49,1.21l1.67-7.36a130.55,130.55,0,0,1-13.79-6.66,32.4,32.4,0,0,1-2.89-1.87,14.81,14.81,0,0,1-2-1.83c-.47-.51-.43-.95-.11-.29a2.48,2.48,0,0,1,.13,1.24,3.12,3.12,0,0,1-.09.44h0l.07-.1.27-.4q4.25-6.55,8.84-12.87l.05-.06a29.84,29.84,0,0,0,4.3-27.13Z" style="fill:#6EDD92"></path><path d="M142.67,187.85c-8.16,3.82-14.9,18-16.42,20.27-1,1.47-2,2.93-2.83,4.45-1.91,3.29-3.79,6.65-5.54,10.08l-.24.46-.43.89a12.86,12.86,0,0,0-.78,2.34,10.81,10.81,0,0,0,.19,5.3,11.89,11.89,0,0,0,2,3.92,16.52,16.52,0,0,0,2.35,2.38,21.47,21.47,0,0,0,4.52,2.9,39.92,39.92,0,0,0,4.31,1.85,62,62,0,0,0,8.44,2.32,65.73,65.73,0,0,0,8.49,1.21l1.67-7.36a130.55,130.55,0,0,1-13.79-6.66,32.4,32.4,0,0,1-2.89-1.87,14.81,14.81,0,0,1-2-1.83c-.47-.51-.43-.95-.11-.29a2.48,2.48,0,0,1,.13,1.24,3.12,3.12,0,0,1-.09.44h0l.07-.1.27-.4q4.25-6.55,8.84-12.87l.05-.06a29.84,29.84,0,0,0,4.3-27.13Z" style="fill:#fff;opacity:0.6000000000000001"></path><path d="M174,265.26A25.71,25.71,0,0,1,161.35,262c-17.35-9.65-9.71-54.14-9.38-56l3,.52c-.08.44-7.62,44.27,7.88,52.89,14.33,8,28.89-3.13,29-3.24l1.84,2.37C193.21,258.83,184.77,265.26,174,265.26Z" style="fill:#6EDD92"></path><g style="opacity:0.30000000000000004"><path d="M174,265.26A25.71,25.71,0,0,1,161.35,262c-17.35-9.65-9.71-54.14-9.38-56l3,.52c-.08.44-7.62,44.27,7.88,52.89,14.33,8,28.89-3.13,29-3.24l1.84,2.37C193.21,258.83,184.77,265.26,174,265.26Z" style="opacity:0.7000000000000001"></path></g><path d="M178.35,252.38l9.9-1.13L165,209.37c-4.18-7.53-8.26-8.23-8.26-8.23a2.11,2.11,0,0,0-1.48,3C156.13,206.61,178.35,252.38,178.35,252.38Z" style="fill:#263238"></path><polygon points="161.49 207.35 175.03 244.64 180 239.7 167.83 206.04 165.2 205.53 161.49 207.35" style="fill:#6EDD92"></polygon><g style="opacity:0.30000000000000004"><polygon points="161.49 207.35 175.03 244.64 180 239.7 167.83 206.04 165.2 205.53 161.49 207.35"></polygon></g><polygon points="178.24 241.45 175.04 244.64 161.49 207.35 165.19 205.53 178.24 241.45" style="fill:#fff;opacity:0.2"></polygon><polygon points="167.19 206.03 183.29 251.97 185.88 250.84 169.74 204.84 167.19 206.03" style="fill:#6EDD92"></polygon><polygon points="167.19 206.03 183.29 251.97 185.88 250.84 169.74 204.84 167.19 206.03" style="opacity:0.2"></polygon><polygon points="169.74 204.84 185.88 250.84 192.29 246.78 177.08 204.67 169.74 204.84" style="fill:#6EDD92"></polygon><polygon points="169.74 204.84 185.88 250.84 192.29 246.78 177.08 204.67 169.74 204.84" style="opacity:0.30000000000000004"></polygon><path d="M173.57,204.67,164.8,239l19.81,5.07Zm-.11,18.41L177.35,237l-7-1.78Z" style="fill:#fafafa;opacity:0.8"></path><path d="M180.23,270.11l19.06-8.21,1.84-21.39s-8.68-14.48-9.58-19.38c-.78-4.26,9.82-19.69,9.82-19.69l-4.63-4s-5.51,2.19-10.51,8.85c-5.42,7.23-10.32,19.56-9.4,35.66C178.62,272.91,180.23,270.11,180.23,270.11Z" style="fill:#6EDD92"></path><path d="M180.23,270.11l19.06-8.21,1.84-21.39s-8.68-14.48-9.58-19.38c-.78-4.26,9.82-19.69,9.82-19.69l-4.63-4s-5.51,2.19-10.51,8.85c-5.42,7.23-10.32,19.56-9.4,35.66C178.62,272.91,180.23,270.11,180.23,270.11Z" style="fill:#fff;opacity:0.2"></path><path d="M176.34,241.56c-1.44-36.24,20-44.51,20.23-44.59l.35.94c-.21.08-21,8.14-19.58,43.61Z" style="fill:#263238"></path><path d="M201.37,201.44s-10.6,15.43-9.82,19.69c.9,4.9,9.58,19.38,9.58,19.38l-1.84,21.39-14.53-26.16a10,10,0,0,1-1-7.25C185.72,220.58,191.07,203.37,201.37,201.44Z" style="fill:#6EDD92"></path><path d="M201.37,201.44s-10.6,15.43-9.82,19.69c.9,4.9,9.58,19.38,9.58,19.38l-1.84,21.39-14.53-26.16a10,10,0,0,1-1-7.25C185.72,220.58,191.07,203.37,201.37,201.44Z" style="opacity:0.2"></path><path d="M180.23,270.11l9.92-5.51S157,207.32,156.72,201.14l-4.86,2.71S146,205.71,180.23,270.11Z" style="fill:#6EDD92"></path><path d="M180.23,270.11l9.92-5.51S157,207.32,156.72,201.14l-4.86,2.71S146,205.71,180.23,270.11Z" style="fill:#fff;opacity:0.2"></path><path d="M207.35,251.7l-7.8,5.52-10.84-19.51a15.16,15.16,0,0,1,2.89-18.52c.42-.39.86-.76,1.33-1.13a5.37,5.37,0,0,1,7.58,1l.15.21c2.8,4,7.15,15,7.15,15Z" style="fill:#6EDD92"></path><path d="M207.35,251.7l-7.8,5.52L188.89,238A15.53,15.53,0,0,1,192,218.8c.29-.25.59-.5.9-.74a5.4,5.4,0,0,1,7.64,1.07l.09.12c2.8,4,7.15,15,7.15,15Z" style="fill:#6EDD92"></path><path d="M191.46,239.65a.72.72,0,0,0,1,.33,17.32,17.32,0,0,0,9-10.57l2.06-6.83a.73.73,0,1,0-1.39-.42L200.08,229a15.93,15.93,0,0,1-8.28,9.69A.73.73,0,0,0,191.46,239.65Z" style="fill:#263238"></path><path d="M145.11,238.19l5.18-1.06.7,11.23a12.8,12.8,0,0,1-7.19-1.15,4.8,4.8,0,0,1-2.4-5.5h0A4.82,4.82,0,0,1,145.11,238.19Z" style="fill:#ffc3bd"></path><path d="M157.45,242.39l-1.63,4.11a3,3,0,0,1-3,1.92l-1.83-.13-.7-11.24,5.07,1.3a3,3,0,0,1,2.23,3.66A2.78,2.78,0,0,1,157.45,242.39Z" style="fill:#ffc3bd"></path><path d="M179.06,143.54a18.16,18.16,0,0,0-8.36.84l-4.55-3.07.77,4.46c-9.88,4.2-18.79,12-19.63,11.58-1.56-.73-3.08-3.48-3.23-5.21C142.89,138,169.78,126.87,179.06,143.54Z" style="fill:#263238"></path></g></g><g id="freepik--Desk--inject-37"><g id="freepik--Group--inject-37"><polygon points="145.82 271.57 145.82 411.74 149.46 411.74 154.04 271.57 145.82 271.57" style="fill:#6EDD92"></polygon><polygon points="145.82 271.57 145.82 411.74 149.46 411.74 154.04 271.57 145.82 271.57" style="fill:#fff;opacity:0.7000000000000001"></polygon><polygon points="188.83 276.15 188.83 406.01 192.47 406.01 197.06 276.15 188.83 276.15" style="fill:#6EDD92"></polygon><polygon points="188.83 276.15 188.83 406.01 192.47 406.01 197.06 276.15 188.83 276.15" style="fill:#fff;opacity:0.7000000000000001"></polygon><polygon points="364.31 271.57 364.31 406.01 360.67 406.01 356.09 271.57 364.31 271.57" style="fill:#6EDD92"></polygon><polygon points="364.31 271.57 364.31 406.01 360.67 406.01 356.09 271.57 364.31 271.57" style="fill:#6EDD92;opacity:0.5"></polygon><g style="opacity:0.7000000000000001"><polygon points="364.31 271.57 364.31 406.01 360.67 406.01 356.09 271.57 364.31 271.57" style="fill:#fff"></polygon></g><polygon points="321.3 276.15 321.3 410.88 317.66 410.88 313.07 276.15 321.3 276.15" style="fill:#6EDD92"></polygon><g style="opacity:0.7000000000000001"><polygon points="321.3 276.15 321.3 410.88 317.66 410.88 313.07 276.15 321.3 276.15" style="fill:#fff"></polygon></g><rect x="118" y="267.35" width="271.48" height="5.88" style="fill:#6EDD92"></rect><rect x="118" y="267.35" width="271.48" height="5.88" style="fill:#fff;opacity:0.7000000000000001"></rect><polygon points="371.63 279.52 137.22 279.52 127.71 273.23 381.14 273.23 371.63 279.52" style="fill:#6EDD92"></polygon></g><path d="M222.67,254.69c.64.75-.32,2.33.33,3.07l-.63,0c0,.06.41-.52-.24-2.67C222.07,254.92,222.32,254.87,222.67,254.69Z" style="fill:#6EDD92"></path><path d="M222.74,256.66s.57-2.8,2.41-2C225.15,254.63,225.63,257.35,222.74,256.66Z" style="fill:#6EDD92"></path><path d="M222.74,256.66s.57-2.8,2.41-2C225.15,254.63,225.63,257.35,222.74,256.66Z" style="opacity:0.1"></path><path d="M216.26,257.39a5.2,5.2,0,0,0-1.69,4.8,6.17,6.17,0,0,0,2.81,4.11,9.26,9.26,0,0,0,4.78,1.28,7.56,7.56,0,0,0,5.93-2.27,5.7,5.7,0,0,0-.19-7.44c-2.05-2-5.49-.42-5.49-.42S218.23,255.83,216.26,257.39Z" style="fill:#6EDD92"></path><path d="M216.26,257.39a5.2,5.2,0,0,0-1.69,4.8,6.17,6.17,0,0,0,2.81,4.11,9.26,9.26,0,0,0,4.78,1.28,7.56,7.56,0,0,0,5.93-2.27,5.7,5.7,0,0,0-.19-7.44c-2.05-2-5.49-.42-5.49-.42S218.23,255.83,216.26,257.39Z" style="fill:#fff;opacity:0.2"></path><polygon points="369.55 267.67 356.95 267.67 355.06 250 371.45 250 369.55 267.67" style="fill:#6EDD92"></polygon><polygon points="369.55 267.67 356.95 267.67 355.06 250 371.45 250 369.55 267.67" style="fill:#fff;opacity:0.30000000000000004"></polygon><path d="M360.77,265.79l5-22a.73.73,0,0,1,.14-.31l1.14-1.63.39,1.82a.92.92,0,0,1,0,.37l-4.41,22.23a.89.89,0,0,1-1,.72l-.54-.08A.9.9,0,0,1,360.77,265.79Z" style="fill:#263238"></path><path d="M360.77,265.79l5-22a.73.73,0,0,1,.14-.31l1.14-1.63.39,1.82a.92.92,0,0,1,0,.37l-4.41,22.23a.89.89,0,0,1-1,.72l-.54-.08A.9.9,0,0,1,360.77,265.79Z" style="fill:#fff;opacity:0.1"></path><path d="M362.2,266.26,362,243.67a.93.93,0,0,1,.06-.34l.74-1.86.8,1.69a.73.73,0,0,1,.09.35l.88,22.65a.9.9,0,0,1-.82.93l-.53.05A.9.9,0,0,1,362.2,266.26Z" style="fill:#263238"></path><path d="M362.2,266.26,362,243.67a.93.93,0,0,1,.06-.34l.74-1.86.8,1.69a.73.73,0,0,1,.09.35l.88,22.65a.9.9,0,0,1-.82.93l-.53.05A.9.9,0,0,1,362.2,266.26Z" style="fill:#fff;opacity:0.2"></path><path d="M363.13,266.32l-4.58-22.12a1,1,0,0,1,0-.35l.36-2,1.12,1.5a1,1,0,0,1,.15.33l5.22,22.06a.89.89,0,0,1-.62,1.07l-.52.15A.89.89,0,0,1,363.13,266.32Z" style="fill:#263238"></path><path d="M363.13,266.32l-4.58-22.12a1,1,0,0,1,0-.35l.36-2,1.12,1.5a1,1,0,0,1,.15.33l5.22,22.06a.89.89,0,0,1-.62,1.07l-.52.15A.89.89,0,0,1,363.13,266.32Z" style="fill:#fff;opacity:0.30000000000000004"></path><path d="M367.05,266.8l-11.81-19.26a.93.93,0,0,1-.12-.33l-.32-2,1.55,1a.81.81,0,0,1,.26.26l12.39,19a.91.91,0,0,1-.22,1.22l-.43.31A.89.89,0,0,1,367.05,266.8Z" style="fill:#263238"></path><path d="M367.05,266.8l-11.81-19.26a.93.93,0,0,1-.12-.33l-.32-2,1.55,1a.81.81,0,0,1,.26.26l12.39,19a.91.91,0,0,1-.22,1.22l-.43.31A.89.89,0,0,1,367.05,266.8Z" style="fill:#fff;opacity:0.4"></path><path d="M357.11,265.11l12.34-18.93a.82.82,0,0,1,.24-.25l1.63-1.13-.26,1.85a1,1,0,0,1-.12.34L359.1,266.32a.9.9,0,0,1-1.19.33l-.48-.26A.9.9,0,0,1,357.11,265.11Z" style="fill:#263238"></path><polygon points="369.55 267.67 356.95 267.67 355.06 250 371.45 250 369.55 267.67" style="fill:#fff;opacity:0.2"></polygon></g></svg>