<svg xmlns="http://www.w3.org/2000/svg" viewBox="0 0 500 500"><g id="freepik--background-simple--inject-1"><path d="M111.84,112.15a35.93,35.93,0,0,1,16.44-6c33.18-3.66,50.05,41.56,57.08,66.77,7.27,26.05,20.24,48.32,48.06,55.67,18.17,4.8,37.49,2.61,55.81-1.64,41.15-9.55,105.41-37.77,134.81,9.28,9,14.38,11.39,32.26,8.85,49A92.76,92.76,0,0,1,394.26,347c-47.5,32.7-96.05,8.36-132.55-28.17-39.34-39.39-73.51-78.24-122.08-107.45-11.07-6.67-22.57-12.94-31.88-21.91C86.53,169,86,129.74,111.84,112.15Z" style="fill:#82D6FF"></path><path d="M111.84,112.15a35.93,35.93,0,0,1,16.44-6c33.18-3.66,50.05,41.56,57.08,66.77,7.27,26.05,20.24,48.32,48.06,55.67,18.17,4.8,37.49,2.61,55.81-1.64,41.15-9.55,105.41-37.77,134.81,9.28,9,14.38,11.39,32.26,8.85,49A92.76,92.76,0,0,1,394.26,347c-47.5,32.7-96.05,8.36-132.55-28.17-39.34-39.39-73.51-78.24-122.08-107.45-11.07-6.67-22.57-12.94-31.88-21.91C86.53,169,86,129.74,111.84,112.15Z" style="fill:#fff;opacity:0.9;isolation:isolate"></path></g><g id="freepik--Board--inject-1"><polygon points="350 377.52 350 267 339 267 339 377.52 332 379.67 332 383 357 383 357 379.67 350 377.52" style="fill:#2e353a"></polygon><polygon points="210 267 199 267 199 377.52 192 379.67 192 383 217 383 217 379.67 210 377.52 210 267" style="fill:#2e353a"></polygon><g style="opacity:0.2;isolation:isolate"><polygon points="350 280 339 280 339 377.52 332 379.67 332 383 357 383 357 379.67 350 377.52 350 280" style="fill:#fff"></polygon><polygon points="210 280 199 280 199 377.52 192 379.67 192 383 217 383 217 379.67 210 377.52 210 280" style="fill:#fff"></polygon></g><rect x="185.5" y="72.5" width="178" height="219" transform="translate(456.5 -92.5) rotate(90)" style="fill:#2e353a"></rect><rect x="185.5" y="72.5" width="178" height="219" transform="translate(456.5 -92.5) rotate(90)" style="fill:#fff;opacity:0.2;isolation:isolate"></rect><rect x="169.87" y="97.94" width="209.26" height="168.02" style="fill:#82D6FF"></rect><rect x="169.87" y="97.94" width="209.26" height="168.02" style="fill:#fff;opacity:0.30000000000000004;isolation:isolate"></rect><polygon points="193.5 113 193.5 158.5 266.01 158.5 193.5 113" style="fill:none;stroke:#263238;stroke-miterlimit:10"></polygon><polyline points="197.14 158.62 197.14 154.9 193.42 154.9" style="fill:none;stroke:#263238;stroke-miterlimit:10;stroke-width:0.793303px"></polyline><text transform="translate(228.99 129.46)" style="font-size:9.51963996887207px;fill:#263238;font-family:Cabin-Regular, Cabin">b</text><text transform="translate(193.82 198.17)" style="font-size:9.51963996887207px;fill:#263238;font-family:Cabin-Regular, Cabin">b</text><text transform="translate(219.01 167.79)" style="font-size:9.51963996887207px;fill:#263238;font-family:Cabin-Regular, Cabin">c</text><text transform="translate(193.82 212.14)" style="font-size:9.51963996887207px;fill:#263238;font-family:Cabin-Regular, Cabin">c</text><text transform="translate(185.44 140.3)" style="font-size:9.51963996887207px;fill:#263238;font-family:Cabin-Regular, Cabin">a</text><text transform="translate(193.82 184.19)" style="font-size:9.51963996887207px;fill:#263238;font-family:Cabin-Regular, Cabin">a</text><line x1="283" y1="113.5" x2="323" y2="113.5" style="fill:none;stroke:#263238;stroke-miterlimit:10"></line><line x1="283" y1="121.5" x2="305" y2="121.5" style="fill:none;stroke:#263238;stroke-miterlimit:10"></line><line x1="283" y1="127.5" x2="314" y2="127.5" style="fill:none;stroke:#263238;stroke-miterlimit:10"></line><line x1="283" y1="134.5" x2="309" y2="134.5" style="fill:none;stroke:#263238;stroke-miterlimit:10"></line><line x1="283" y1="142.5" x2="322" y2="142.5" style="fill:none;stroke:#263238;stroke-miterlimit:10"></line><line x1="283" y1="149.5" x2="321" y2="149.5" style="fill:none;stroke:#263238;stroke-miterlimit:10"></line><line x1="283" y1="156.5" x2="309" y2="156.5" style="fill:none;stroke:#263238;stroke-miterlimit:10"></line><line x1="328" y1="217.5" x2="355" y2="217.5" style="fill:none;stroke:#263238;stroke-miterlimit:10"></line><line x1="328" y1="225.5" x2="343" y2="225.5" style="fill:none;stroke:#263238;stroke-miterlimit:10"></line><line x1="328" y1="231.5" x2="349" y2="231.5" style="fill:none;stroke:#263238;stroke-miterlimit:10"></line><line x1="328" y1="238.5" x2="346" y2="238.5" style="fill:none;stroke:#263238;stroke-miterlimit:10"></line><line x1="191" y1="230.5" x2="218" y2="230.5" style="fill:none;stroke:#263238;stroke-miterlimit:10"></line><line x1="191" y1="238.5" x2="206" y2="238.5" style="fill:none;stroke:#263238;stroke-miterlimit:10"></line><line x1="191" y1="244.5" x2="212" y2="244.5" style="fill:none;stroke:#263238;stroke-miterlimit:10"></line><line x1="191" y1="251.5" x2="209" y2="251.5" style="fill:none;stroke:#263238;stroke-miterlimit:10"></line><line x1="336" y1="127.5" x2="362" y2="127.5" style="fill:none;stroke:#263238;stroke-miterlimit:10"></line><line x1="336" y1="134.5" x2="362" y2="134.5" style="fill:none;stroke:#263238;stroke-miterlimit:10"></line><line x1="336" y1="141.5" x2="354" y2="141.5" style="fill:none;stroke:#263238;stroke-miterlimit:10"></line><line x1="259" y1="230.5" x2="285" y2="230.5" style="fill:none;stroke:#263238;stroke-miterlimit:10"></line><line x1="259" y1="237.5" x2="285" y2="237.5" style="fill:none;stroke:#263238;stroke-miterlimit:10"></line><line x1="259" y1="244.5" x2="277" y2="244.5" style="fill:none;stroke:#263238;stroke-miterlimit:10"></line><line x1="210" y1="184.5" x2="268" y2="184.5" style="fill:none;stroke:#263238;stroke-miterlimit:10"></line><line x1="210" y1="197.5" x2="268" y2="197.5" style="fill:none;stroke:#263238;stroke-miterlimit:10"></line><line x1="210" y1="210.5" x2="268" y2="210.5" style="fill:none;stroke:#263238;stroke-miterlimit:10"></line><circle cx="306.47" cy="199.31" r="18.25" style="fill:none;stroke:#263238;stroke-miterlimit:10;stroke-width:0.793303px"></circle><polyline points="306.5 181 306.5 199.5 325 199.5" style="fill:none;stroke:#263238;stroke-miterlimit:10"></polyline><rect x="169.87" y="97.94" width="209.26" height="168.02" style="fill:#fff;opacity:0.6000000000000001;isolation:isolate"></rect></g><g id="freepik--Teacher--inject-1"><path d="M300.26,188.62l-15.44-9a30.65,30.65,0,0,1-7.37-.34c-4-.69-4.86-.73-4.38-3.88s-.19-7.35,1-7.79,9.61,3.11,11.07,5.52l15.58,5.57Z" style="fill:#b97964"></path><path d="M346,173.37v18s-3.84,1.27-8.61,2.6c-5.47,1.52-12.16,3.12-15.64,3-6.5-.32-28.5-11.74-28.5-11.74l4-7.62s24,8.18,27,7.59S346,173.37,346,173.37Z" style="fill:#82D6FF"></path><path d="M346,182.14v9.24s-3.84,1.27-8.61,2.6C339.15,188.62,343.54,184.25,346,182.14Z" style="opacity:0.2;isolation:isolate"></path><path d="M350,237.44s-10.84,57.76-13.73,81.48c-3.78,30.94-19.23,76.2-19.23,76.2l6.18,1.6s21.78-38.46,26-73.07c17.3-35.37,18.69-78.93,18.69-78.93Z" style="fill:#b97964"></path><path d="M305.58,409.12a8.93,8.93,0,0,1,3.17-.8h0s3.8-2.24,7.57-10.92l4.23,0a3.5,3.5,0,0,1,3.25,2.33,2,2,0,0,1,.12.59,24.08,24.08,0,0,1-.32,3,86.41,86.41,0,0,1-2.48,10l-.72-.19,1.31-6.31c.43-2.15-1.82-.08-2.87,2.09s-2.65,4.34-7.32,3.27C306.07,410.89,303.87,410.1,305.58,409.12Z" style="fill:#2e353a"></path><path d="M361.29,236.52s1.35,58.75,3.43,82.56c2.7,31.05-3.06,78.53-3.06,78.53l6.38.28s13.35-42.13,10.35-76.87c9.61-38.19,2-81.09,2-81.09Z" style="fill:#b97964"></path><path d="M351.74,411.06a9,9,0,0,1,3.07-1.15h0s3.54-2.63,6.34-11.67l4.21-.48a3.47,3.47,0,0,1,3.48,2,1.9,1.9,0,0,1,.18.57,24.19,24.19,0,0,1,0,3.07,85.44,85.44,0,0,1-1.38,10.17l-.74-.11.62-6.42c.2-2.18-1.82.13-2.63,2.39s-2.16,4.6-6.93,4.05C352.42,412.76,350.15,412.22,351.74,411.06Z" style="fill:#2e353a"></path><path d="M382.83,136.58s3.17.17,5.84,5.38-.67,11-1.34,13.77-4,5.22,1.5,9.41,8.8,8.64,4.34,13.17.44,8-6,11.36S357,188,354,181.5s.62-11.44.81-13.38S351,164.19,350,157.84s4.12-7.71,4.81-10.61-2.52-6.56,0-12.73S382.49,127,382.83,136.58Z" style="fill:#2e353a"></path><path d="M398.8,223.09c-3.79.49-8.17-6.91-11.34-13.81-2.71-5.85-4.6-11.35-4.6-11.35l2-5.64,5.22-14.72s3.65,5.09,9.14,24.47c.88,3.12,1.94,6.61,2.91,10.51a4.67,4.67,0,0,0,.87,2.75h0C403,218.23,403.35,222.5,398.8,223.09Z" style="fill:#82D6FF"></path><path d="M387.39,209.28c-2.7-5.85-4.56-11.35-4.56-11.35l2-5.64C386.23,196.19,388.28,203.26,387.39,209.28Z" style="opacity:0.2;isolation:isolate"></path><path d="M403,215.3h0c-2,1.32-4.09,1.3-5.26-1.11-2.37-4.87-.08-9.69,1.54-12.16.89,3.12,1.91,6.61,2.88,10.51A4.48,4.48,0,0,0,403,215.3Z" style="opacity:0.2;isolation:isolate"></path><path d="M343.34,221.17s20,7.16,39.06,5.83c0,0-1.73-23.6-11.73-27.8S343.34,201,343.34,221.17Z" style="fill:#82D6FF"></path><path d="M343.34,221.17s20,7.16,39.06,5.83c0,0-1.73-23.6-11.73-27.8S343.34,201,343.34,221.17Z" style="opacity:0.2;isolation:isolate"></path><path d="M346.17,222.85l33,2.85a117.34,117.34,0,0,1,3.51-24.24c.79-3.16,1.78-6.69,3.05-10.77.68-2.18,1.43-4.52,2.27-7,.63-1.91,1.31-3.94,2.06-6.08a98,98,0,0,0-13.7-3.31,105.2,105.2,0,0,0-14.82-1.56c-6.42,0-13.8.67-13.8.67s-1.05.25-1.71,7.06C345.44,186.82,344.85,199.6,346.17,222.85Z" style="fill:#82D6FF"></path><path d="M346.33,227.8l33,2.72c.52-8.2.91-19.28,3.38-29.06.79-3.16,1.78-6.69,3.05-10.77.68-2.18,1.43-4.52,2.27-7,.63-1.91,1.31-3.94,2.06-6.08a98,98,0,0,0-13.7-3.31,105.2,105.2,0,0,0-14.82-1.56c-6.42,0-13.8.67-13.8.67s-1.05.25-1.71,7.06C345.44,186.82,345,204.55,346.33,227.8Z" style="fill:#2e353a"></path><path d="M364.27,180c8.14-1,10.58-4.52,10.58-4.52-5.16-4.87-.87-13.31-.87-13.31L364.19,164a27.67,27.67,0,0,1,.38,4.13c.08,5.94-2.61,6-2.61,6C360.24,177.34,364.27,180,364.27,180Z" style="fill:#b97964"></path><path d="M364.19,164a27.67,27.67,0,0,1,.38,4.13c6.61,0,9.41-6,9.41-6Z" style="opacity:0.2;isolation:isolate"></path><path d="M369.6,136.61c-8.51-.46-11.5,3.95-12.6,12.68-1.38,10.92.62,18.84,11.39,17.08C383,164,383.74,137.39,369.6,136.61Z" style="fill:#b97964"></path><path d="M362.52,149.12a17.81,17.81,0,0,1-2.67,3.39,2.36,2.36,0,0,0,2.2,1.09Z" style="fill:#a24e3f"></path><path d="M367.77,148.71c0,.7.28,1.29.75,1.33s.88-.5.94-1.2-.28-1.29-.75-1.33S367.83,148,367.77,148.71Z" style="fill:#2e353a"></path><path d="M368.91,147.56l-1.48-.72S368.09,148.18,368.91,147.56Z" style="fill:#2e353a"></path><path d="M359.1,147.88c-.05.7.28,1.3.75,1.33s.88-.5.94-1.2-.28-1.29-.74-1.33S359.16,147.18,359.1,147.88Z" style="fill:#2e353a"></path><path d="M360.24,146.73l-1.48-.71S359.42,147.36,360.24,146.73Z" style="fill:#2e353a"></path><path d="M368.18,142.83a4.43,4.43,0,0,1,3.62,1.49" style="fill:none;stroke:#2e353a;stroke-linecap:round;stroke-linejoin:round;stroke-width:0.7246800000000001px"></path><path d="M362,142.14a4,4,0,0,0-3.43.51" style="fill:none;stroke:#2e353a;stroke-linecap:round;stroke-linejoin:round;stroke-width:0.7246800000000001px"></path><path d="M363.1,157a21.15,21.15,0,0,1,.83,3,5.24,5.24,0,0,0,.56,0c2.49-.11,3.6-1,4.09-1.92a3.16,3.16,0,0,0,.32-1.49,2.81,2.81,0,0,0-.11-.86A11.71,11.71,0,0,1,364,157C363.43,157,363.1,157,363.1,157Z" style="fill:#2e353a"></path><path d="M364,157l.27.88c2.35-.11,4-.51,4.68-1.25a2.81,2.81,0,0,0-.11-.86A11.71,11.71,0,0,1,364,157Z" style="fill:#fff"></path><path d="M364.49,160c2.49-.11,3.6-1,4.09-1.92a8,8,0,0,0-2.74.67A3,3,0,0,0,364.49,160Z" style="fill:#de5753"></path><path d="M378.12,151.47s-3.6-7.21-2.7-12.58c0,0-16.49-7.81-18.26,9.26,0,0-.82-15.29,13.83-14.83s13.42,21.87,5.51,27.83C376.5,161.15,380.34,156,378.12,151.47Z" style="fill:#2e353a"></path><path d="M376.63,153.19a3.73,3.73,0,0,1,4.21-3.19c2.62.43,3.58,5.91-3,6.86C376.83,157,376.35,156,376.63,153.19Z" style="fill:#b97964"></path><path d="M382.4,176.38S372.84,184.13,364,184s-12-10.12-12-10.12S365.73,169.79,382.4,176.38Z" style="fill:#b97964"></path><path d="M381.58,174.92S365.9,203,382.4,227c0,0,2.24-29.61,7.67-49.43Z" style="fill:#82D6FF"></path><path d="M352.81,172.7s-.14,19.87-3,27.25-6.49,21.22-6.49,21.22-2.76-33.1,2.66-47.8Z" style="fill:#82D6FF"></path><path d="M375.42,138.89s-6.34-2.19-11.92,0-4.06,8-6.89,9.06" style="fill:none;stroke:#2e353a;stroke-linecap:round;stroke-linejoin:round;stroke-width:0.5px"></path><path d="M425.75,169.12l-2.62-1.5-9.63,2.63-13-3.37-3,9.87s-.62,11,0,11.13,14.88.87,14.88.87l7.25-4.62Z" style="fill:#e0e0e0"></path><polygon points="397 167.62 391.25 190.39 409 192.38 421.25 189 427.5 167.62 413.5 171.25 397 167.62" style="fill:#82D6FF"></polygon><polygon points="413.5 171.25 409 192.38 391.25 190.39 397 167.62 413.5 171.25" style="fill:#fff;opacity:0.4;isolation:isolate"></polygon><polygon points="413.5 171.25 409 192.38 421.25 189 427.5 167.62 413.5 171.25" style="fill:#fff;opacity:0.2"></polygon><path d="M397.92,213l8.25-15.84a30.44,30.44,0,0,1,0-7.38c.5-4,.5-4.89,3.66-4.56s7.34-.53,7.84.64-2.67,9.74-5,11.31L407.82,213Z" style="fill:#b97964"></path><path d="M395.25,221.7c5.25,4.47,11.25.63,14.58-12.2l-10.33-1.33Z" style="fill:#82D6FF"></path><polygon points="400.03 205.35 397.92 209.07 411 210.83 411 207 400.03 205.35" style="fill:#2e353a"></polygon><polygon points="292.72 186.15 296.34 188.43 298.71 175.45 294.88 175.27 292.72 186.15" style="fill:#2e353a"></polygon><path d="M346.33,227.8,325.53,350s50.34,6,67.4,2.5c0,0,4.19-87.48-13.62-122Z" style="fill:#82D6FF"></path><path d="M346.33,227.8,325.53,350s50.34,6,67.4,2.5c0,0,4.19-87.48-13.62-122Z" style="fill:#fff;opacity:0.4;isolation:isolate"></path><path d="M278.79,174.08l-5.18-5.35c-3.09-3.23-7.29-7.46-11.46-11.71l-6.17-6.2-5.39-5.41-3.81-3.82c-.46-.46-.83-.82-1.07-1.07a.86.86,0,0,0-.69-.06l1.41-1.42a.86.86,0,0,0,.06.69l1.08,1.07,3.84,3.79,5.42,5.37,6.24,6.14c4.27,4.15,8.52,8.33,11.76,11.41l5.38,5.15Z" style="fill:#2e353a"></path><path d="M317.08,395.12s-5.28,11.06-8.33,13.2c0,0,4.08,2.43,8.33-3,5.5-7,6.84-5,6.84-5a19.61,19.61,0,0,0-.66-3.57C322.43,394.46,317.08,395.12,317.08,395.12Z" style="fill:#b97964"></path><path d="M362.31,395s-1.5,4.1-3.5,8.6a19.43,19.43,0,0,1-4,6.28s3.48,1.13,5.35-1.05,5.08-10,8.68-9.14a8.21,8.21,0,0,0-.8-1.83C367.5,397,362.31,395,362.31,395Z" style="fill:#b97964"></path></g></svg>