<svg xmlns="http://www.w3.org/2000/svg" viewBox="0 0 750 500"><g id="freepik--character-3--inject-315"><path d="M690.79,405.26a3.42,3.42,0,0,1-.72.06l-2.08.05-7.62.08-25.16.07c-13.66,0-25.51,0-31.34-.13v-.25l3.16.06a7.52,7.52,0,0,1,1.08.06,5.32,5.32,0,0,1-1.08.07l-3.16.06v-.25c5.83-.08,17.68-.14,31.34-.14l25.16.08,7.62.08,2.08,0A5.86,5.86,0,0,1,690.79,405.26Z" style="fill:#263238"></path><path d="M703.21,412.76a3.13,3.13,0,0,1-.72.05l-2.08.05-7.62.09-25.16.07c-13.66,0-25.52,0-31.34-.14v-.24l3.16.06a7.52,7.52,0,0,1,1.08.06,6.47,6.47,0,0,1-1.08.07l-3.16.05v-.24c5.82-.08,17.68-.14,31.34-.14l25.16.08,7.62.08,2.08,0A4.08,4.08,0,0,1,703.21,412.76Z" style="fill:#263238"></path><path d="M662.15,304.52l7.21-15.19s17.87,2.22,19.47-.46l-29-15-12.21,23.22Z" style="fill:#18DBAC"></path><path d="M659.75,285.93a1.33,1.33,0,0,1-.12-1.77,1.29,1.29,0,0,1,1.76-.14,1.41,1.41,0,0,1,.12,1.88,1.34,1.34,0,0,1-1.85-.06" style="fill:#fff"></path><path d="M659.87,273.83l-1.14,2.39,28.2,13.53s1.58.11,1.9-.88Z" style="fill:#fff"></path><path d="M669.75,289.72c.07-.15-.6-.58-1.06-1.39s-.53-1.61-.68-1.62-.38.92.2,1.89S669.71,289.86,669.75,289.72Z" style="fill:#263238"></path><path d="M673.44,290c.1-.12-.38-.68-.55-1.53s0-1.55-.13-1.62-.65.69-.41,1.74S673.37,290.17,673.44,290Z" style="fill:#263238"></path><path d="M677.05,287.3c-.11-.1-.67.51-.71,1.47s.46,1.61.58,1.53-.07-.72,0-1.51S677.19,287.39,677.05,287.3Z" style="fill:#263238"></path><path d="M667.72,293c0-.16-.74-.3-1.51-.77s-1.26-1.05-1.4-1,.2.89,1.12,1.43S667.74,293.15,667.72,293Z" style="fill:#263238"></path><path d="M666.21,296c0-.06-.48-.44-1.45-.75a7.54,7.54,0,0,0-2.82-.31,2.2,2.2,0,0,0-.62.11.69.69,0,0,0-.45.72.88.88,0,0,0,.45.65,2.23,2.23,0,0,0,.58.2,5.79,5.79,0,0,0,2.86,0c1-.27,1.49-.68,1.46-.74s-.6.2-1.55.36a6.9,6.9,0,0,1-1.67.05,5.54,5.54,0,0,1-1-.17c-.35-.08-.62-.21-.62-.39s0-.09.11-.15a1.73,1.73,0,0,1,.45-.08,8.61,8.61,0,0,1,1,0,8.85,8.85,0,0,1,1.68.19A13.78,13.78,0,0,0,666.21,296Z" style="fill:#263238"></path><path d="M666.13,295.74c0-.05-.58.31-1.11,1.2a5.14,5.14,0,0,0-.62,1.69,4.69,4.69,0,0,0-.09,1.07,1.37,1.37,0,0,0,.54,1.22.77.77,0,0,0,.82-.09,2.59,2.59,0,0,0,.43-.46,3.73,3.73,0,0,0,.5-1,3.69,3.69,0,0,0,.16-1.82c-.17-1.05-.68-1.52-.71-1.48s.26.57.32,1.52a3.65,3.65,0,0,1-.25,1.6,3.41,3.41,0,0,1-.46.83c-.2.28-.45.47-.55.38a1,1,0,0,1-.26-.74,6.05,6.05,0,0,1,0-1,5.94,5.94,0,0,1,.47-1.6C665.77,296.25,666.2,295.8,666.13,295.74Z" style="fill:#263238"></path><path d="M687.07,343.13l14.22-9s13.9,11.44,16.69,10L701.55,316l-22.73,13.1Z" style="fill:#18DBAC"></path><path d="M695,326.14a1.34,1.34,0,0,1,.85-1.56,1.29,1.29,0,0,1,1.56.83,1.41,1.41,0,0,1-.91,1.65,1.33,1.33,0,0,1-1.52-1" style="fill:#fff"></path><path d="M701.55,316l-2.24,1.41L715.9,343.9s1.28.94,2.08.28Z" style="fill:#fff"></path><path d="M701.41,334.69c.13-.08-.2-.81-.16-1.74s.42-1.64.29-1.73-.8.57-.84,1.7S701.3,334.79,701.41,334.69Z" style="fill:#263238"></path><path d="M704.36,336.93c.15,0,0-.77.34-1.58s.85-1.3.76-1.44-.91.24-1.28,1.25S704.22,337,704.36,336.93Z" style="fill:#263238"></path><path d="M708.87,336.55c0-.14-.84.07-1.39.86s-.47,1.61-.32,1.6.32-.64.78-1.28S708.94,336.7,708.87,336.55Z" style="fill:#263238"></path><path d="M697.94,336.38c.09-.13-.46-.65-.87-1.46s-.5-1.56-.66-1.56-.32.86.17,1.81S697.87,336.51,697.94,336.38Z" style="fill:#263238"></path><path d="M695,338.14c.06,0-.18-.63-.83-1.41a7.18,7.18,0,0,0-1.32-1.21,6.56,6.56,0,0,0-.9-.56,2.11,2.11,0,0,0-.58-.24.71.71,0,0,0-.77.37.85.85,0,0,0,0,.78,1.81,1.81,0,0,0,.38.49,5.79,5.79,0,0,0,.81.7,5.69,5.69,0,0,0,1.62.81,2.75,2.75,0,0,0,1.63.16c0-.09-.61-.16-1.5-.53a6.35,6.35,0,0,1-1.44-.85,5.52,5.52,0,0,1-.72-.66c-.26-.25-.41-.51-.32-.66s.05-.07.18-.06a1.68,1.68,0,0,1,.42.17,6.47,6.47,0,0,1,.86.5,9.09,9.09,0,0,1,1.32,1.06C694.62,337.67,695,338.18,695,338.14Z" style="fill:#263238"></path><path d="M695.13,337.84a2.65,2.65,0,0,0-1.58.43,5.33,5.33,0,0,0-1.43,1.09,4.73,4.73,0,0,0-.65.86,1.36,1.36,0,0,0-.19,1.32.78.78,0,0,0,.74.36,2.38,2.38,0,0,0,.6-.16,3.82,3.82,0,0,0,1-.55,3.74,3.74,0,0,0,1.11-1.46,2.14,2.14,0,0,0,.19-1.63c-.1,0-.09.63-.54,1.46a3.87,3.87,0,0,1-1.07,1.22,3.15,3.15,0,0,1-.83.45c-.33.13-.63.16-.67,0a1,1,0,0,1,.18-.76,5.4,5.4,0,0,1,.56-.8,5.76,5.76,0,0,1,1.25-1.09C694.55,338.08,695.15,337.93,695.13,337.84Z" style="fill:#263238"></path><path d="M369.26,399.14c1.53.47,52,4.11,52,3.69s-1.17-15.5-1.17-15.5l-49.6,3.41" style="fill:#846a5e"></path><polygon points="470.21 364.99 453.72 398.75 417.55 418.94 421.23 425.78 466.01 410.37 486.9 373.11 470.21 364.99" style="fill:#846a5e"></polygon><path d="M421.94,425.29c-.36.08-1.55,3.3-3.86,4.61s-7.9,1-7.9,1a29.54,29.54,0,0,0-4.22,4.67s2.24,2.49,1.76,3.42a2,2,0,0,1-2.09,1.29c-1-.06-3.39-1.59-4.59-2.52s-1.85-5-1.85-5l4.36-6.91,14-6.92Z" style="fill:#846a5e"></path><path d="M412.69,426a4.47,4.47,0,0,0-1,.3c-.61.23-1.49.58-2.57,1s-2.37,1-3.76,1.7a2.75,2.75,0,0,0-1,.76,1.09,1.09,0,0,0-.17.75,1.6,1.6,0,0,0,.29.68,1.77,1.77,0,0,0,1.29.65,2.15,2.15,0,0,0,.73-.1l.63-.17A22.77,22.77,0,0,1,412,431a19,19,0,0,0,4.12-.32,6.14,6.14,0,0,0,2.59-1.07,3.14,3.14,0,0,0,.55-.53,1.94,1.94,0,0,0,.17-.21c0-.05-.3.23-.83.59a6.79,6.79,0,0,1-2.54.88,21.13,21.13,0,0,1-4.06.2,22.52,22.52,0,0,0-5,.64l-.65.18a1.58,1.58,0,0,1-.56.08,1.24,1.24,0,0,1-.94-.46.72.72,0,0,1-.11-.87,2.4,2.4,0,0,1,.86-.63c1.35-.71,2.63-1.28,3.69-1.77l2.51-1.16A4.36,4.36,0,0,0,412.69,426Z" style="fill:#59433b"></path><path d="M404.82,431.26c-.06,0-.39.4-.86,1.11-.24.37-.51.77-.81,1.29a1.28,1.28,0,0,0-.1,1,3.29,3.29,0,0,0,.54.87,3.2,3.2,0,0,1,.71,1.54,1.45,1.45,0,0,1-.37,1.22,1.61,1.61,0,0,1-1.16.45s.1.12.37.16a1.39,1.39,0,0,0,1-.36,1.75,1.75,0,0,0,.58-1.52,3.33,3.33,0,0,0-.77-1.78c-.42-.52-.68-1-.43-1.42s.47-.88.71-1.31A4.22,4.22,0,0,0,404.82,431.26Z" style="fill:#59433b"></path><path d="M403.48,439.49s.15.08.45.12a3.09,3.09,0,0,0,1.29-.06,2,2,0,0,0,.82-.44,1.65,1.65,0,0,0,.5-1,2.77,2.77,0,0,0-.86-2.22,7.77,7.77,0,0,1-.76-.83.78.78,0,0,1-.06-.83,6.41,6.41,0,0,1,1-1.48c.67-.77,1.23-1.12,1.18-1.19a3.16,3.16,0,0,0-1.43,1,5.54,5.54,0,0,0-1.13,1.54,1.27,1.27,0,0,0,.07,1.25,8.11,8.11,0,0,0,.8.91,2.37,2.37,0,0,1,.78,1.83,1.37,1.37,0,0,1-1,1.16,4,4,0,0,1-1.18.2C403.64,439.44,403.48,439.46,403.48,439.49Z" style="fill:#59433b"></path><path d="M437.46,407l6.83,12.09,17.85-6.43a18.46,18.46,0,0,0,10.67-10l5.43-12.51-22.53-6.33-2.1,14.36Z" style="fill:#18DBAC"></path><path d="M400.16,349.19a1,1,0,0,1,.47-1.23,1,1,0,0,1,.15-1.94,1.9,1.9,0,0,1-.26-3.22,2,2,0,0,1,.12-3.56,1.34,1.34,0,0,1,.19-2.65,1.61,1.61,0,0,1,.83-2.76,1.75,1.75,0,0,1,.93-2.83,1.21,1.21,0,0,1,1.45-1.92,1.53,1.53,0,0,1,1.64-2.55,1.42,1.42,0,0,1,1.64-2.27,2.12,2.12,0,0,1,2.54-3.15,1.55,1.55,0,0,1,.64-2.05,4.57,4.57,0,0,1,2.32-.48,1.58,1.58,0,0,1,1.09-1.59,4.76,4.76,0,0,1,2.06-.13,2.41,2.41,0,0,1-.06-1.25l1.35-.16a2.07,2.07,0,0,1-.42-4.08c-1.12-.46-1-2.06-.79-3.25.08-.35.16-.7.23-1.05a2.62,2.62,0,0,1,.33-.91,1.33,1.33,0,0,1,1.76-.36,1.38,1.38,0,0,1,1.83-2,2.24,2.24,0,0,1,3.2-1.82c-.33-.58.46-1.21,1.12-1.23s1.39.23,2-.08a5.67,5.67,0,0,0,.91-.8,1.93,1.93,0,0,1,2.63.36,2.94,2.94,0,0,1,3.66-.66c1.37-.92,3.15-.89,4.8-.82.79,0,1.86.43,1.65,1.19a2.27,2.27,0,0,1,3.39.73,1.92,1.92,0,0,1,3.17,1.16,1.3,1.3,0,0,1,2.13.93,1.46,1.46,0,0,1,2.38.86c.56-.59,1.64.06,1.72.87a3.21,3.21,0,0,1-.92,2.17,2.24,2.24,0,0,1,1.63-.57c.58.09,1.06.81.72,1.29a2.28,2.28,0,0,1,3.26,1.17,1.29,1.29,0,0,1,1.95,1.34,1.83,1.83,0,0,1,1.65,2.63,3.34,3.34,0,0,1,3,3.78,1.35,1.35,0,0,1,1,2.22,2.56,2.56,0,0,1,.28,4.16,1.5,1.5,0,0,1,2.12,2,.64.64,0,0,1,.08.14c.11.3.08.65.18,1a.14.14,0,0,0,0,.06,2.35,2.35,0,0,1,.51.62l.06.16a4.68,4.68,0,0,1,.69.72c.87,1.24,0,3-.35,4.64a6.57,6.57,0,0,0,0,2.65c.21,1,.45,2.42-.59,2.86a1.59,1.59,0,0,1,.21,2.77c.59-.16.93.6.71,1.16a10.74,10.74,0,0,1-1.08,1.48c-.36.57-.48,1.24-.79,1.84a1.74,1.74,0,0,1-1.56,1.08,1.48,1.48,0,0,1,0,.21h0c.41,0,.6.6.43,1a2,2,0,0,1-.9.83l-1.19.69a12,12,0,0,1-4.59,3.49,2.6,2.6,0,0,1-2.4,1.86,4.4,4.4,0,0,1-3.14,2.23,3.37,3.37,0,0,1-3.25-1.31l-1.57.58-4.22,4.73a5.82,5.82,0,0,1-3.16,2.22,2.75,2.75,0,0,1-2.66,1.77,4,4,0,0,1-3.57,2.34,2.65,2.65,0,0,1-1.56,2.26,10.86,10.86,0,0,0-1.23.49c-.75.45-1.3,1.46-2.11,1.38-.48-.05-.78-.49-1.23-.62a3.45,3.45,0,0,0-1.75.28c-.58.15-2.92-1.77-3-2.32-1.16.76-3.24-.81-4.79-2.28a2.6,2.6,0,0,1-2.4-2.39,4.76,4.76,0,0,1-4.39-2.09,1.29,1.29,0,0,1-1.55-.37,6.09,6.09,0,0,0-1.2-1.23c-.47-.27-1.07-.29-1.46-.65a2.27,2.27,0,0,1-.52-1c-.44-1.28-.89-2.56-1.33-3.83a1.35,1.35,0,0,1-1.69-1.48l-1.67-.07a1.29,1.29,0,0,1,.17-1.08h-1.44a1.45,1.45,0,0,0-.34-1.43l1.77-1.76-1.87,1.85A2.1,2.1,0,0,1,400.16,349.19Z" style="fill:#263238"></path><path d="M444.21,371.12,440.66,364s-7.57,2.62-13.93-5.65c-3.17-4.12-7-11.63-9.85-17.87-2.61-5.62.29-14.23,6-16.6l16.2-5.18a3.93,3.93,0,0,1,4.7,1.94h0l20.44,40.45a11.21,11.21,0,0,1-4.82,15h0A11.2,11.2,0,0,1,444.21,371.12Z" style="fill:#846a5e"></path><path d="M421.45,345.75a1.32,1.32,0,0,0,1.75.56,1.26,1.26,0,0,0,.63-1.7,1.32,1.32,0,0,0-1.75-.56A1.26,1.26,0,0,0,421.45,345.75Z" style="fill:#263238"></path><path d="M420.35,343.93c.22.13.9-1,2.24-1.45s2.59-.06,2.67-.29-.23-.38-.77-.58a3.33,3.33,0,0,0-2.21,0,3.28,3.28,0,0,0-1.71,1.38C420.28,343.5,420.25,343.88,420.35,343.93Z" style="fill:#263238"></path><path d="M433.55,339.45a1.32,1.32,0,0,0,1.75.56,1.26,1.26,0,0,0,.63-1.7,1.33,1.33,0,0,0-1.76-.56A1.26,1.26,0,0,0,433.55,339.45Z" style="fill:#263238"></path><path d="M432.8,338c.26.08.86-1.21,2.28-2s2.87-.59,2.93-.86c0-.11-.31-.34-.95-.43a4,4,0,0,0-2.45.47,3.9,3.9,0,0,0-1.7,1.78C432.66,337.51,432.68,337.91,432.8,338Z" style="fill:#263238"></path><path d="M433.48,348.72a10.11,10.11,0,0,0-2.23.74c-.34.14-.67.24-.84.05a1.78,1.78,0,0,1-.31-1.06c-.12-.94-.24-1.92-.37-2.94-.57-4.18-1.17-7.54-1.34-7.51s.16,3.42.73,7.6c.15,1,.29,2,.42,2.93a2.16,2.16,0,0,0,.52,1.35.94.94,0,0,0,.78.18,2.72,2.72,0,0,0,.58-.22A9.07,9.07,0,0,0,433.48,348.72Z" style="fill:#263238"></path><path d="M440.66,364A26.27,26.27,0,0,0,451,354.15s.26,8-9.27,12.06Z" style="fill:#59433b"></path><path d="M430.69,335.46c.34.23,1.39-.75,2.86-1.55s2.84-1.23,2.82-1.64c0-.19-.42-.35-1.08-.34a5.73,5.73,0,0,0-4.33,2.43C430.61,334.92,430.54,335.34,430.69,335.46Z" style="fill:#263238"></path><path d="M418.57,340.65c.38.2,1.25-.51,2.46-1s2.3-.69,2.41-1.09c.05-.2-.23-.43-.79-.54a3.94,3.94,0,0,0-2.2.3,4,4,0,0,0-1.73,1.39C418.42,340.19,418.4,340.55,418.57,340.65Z" style="fill:#263238"></path><path d="M449.63,333.66c.1-.13,4.43-4.65,7.32.76s-3.15,7.19-3.24,7S449.63,333.66,449.63,333.66Z" style="fill:#846a5e"></path><path d="M454.27,338.53s.13,0,.33,0a1,1,0,0,0,.71-.36,2.63,2.63,0,0,0,0-2.66,3.53,3.53,0,0,0-1-1.21,1.23,1.23,0,0,0-1.09-.35.56.56,0,0,0-.42.56c0,.19.1.28.08.3s-.17,0-.24-.27a.68.68,0,0,1,0-.46.77.77,0,0,1,.45-.41,1.49,1.49,0,0,1,1.43.31,3.66,3.66,0,0,1,1.13,1.34,2.77,2.77,0,0,1-.13,3.06,1.13,1.13,0,0,1-.94.32C454.35,338.66,454.26,338.55,454.27,338.53Z" style="fill:#59433b"></path><path d="M464.59,341.29c-2.1,2.35-8.4-10.64-11.53-11s-.25,6.23-4.5,5.71c-2.76-.34-1.94-2-4.27-3.53-3.08-2-7.59,0-10.68-1.94-1.8-1.16-2.67-3.44-4.52-4.5s-3.93-.69-5.85-.1-3.83,1.42-5.84,1.38S413.21,326,413,324a106.06,106.06,0,0,1,23.22-9.93c1.88-.55,3.91-1.05,5.75-.39s3.24,2.51,4.41,4.22l17,25.06" style="fill:#263238"></path><path d="M416.76,304.88s-.09,0-.26-.05a1.22,1.22,0,0,0-.73.15,1.36,1.36,0,0,0-.7.89,2.18,2.18,0,0,0,.23,1.51l.06.12-.14,0a2.2,2.2,0,0,0-1.78,1.39,2.15,2.15,0,0,0,.76,2.46l.62.45-.73-.23a1.4,1.4,0,0,0-1.48.59,1.52,1.52,0,0,0,.13,1.92,2.07,2.07,0,0,0,.81.6,1.11,1.11,0,0,0,.88.08.27.27,0,0,0,.14-.29c0-.1-.12-.14-.24-.1a.61.61,0,0,0-.31.65,2.23,2.23,0,0,0,.86,1.28,5.88,5.88,0,0,0,2.05,1.15c.54.17.85.21.85.24h-.23c-.15,0-.37-.06-.64-.13a5.84,5.84,0,0,1-2.14-1.11,2.39,2.39,0,0,1-1-1.39.8.8,0,0,1,.45-.88.41.41,0,0,1,.31,0,.35.35,0,0,1,.22.25.5.5,0,0,1-.24.55.89.89,0,0,1-.57.09,2.46,2.46,0,0,1-.53-.15,2.31,2.31,0,0,1-.9-.66,2,2,0,0,1-.47-1.06,1.73,1.73,0,0,1,2.08-1.85l-.11.22a2.34,2.34,0,0,1,1.15-4.24l-.07.14a2.3,2.3,0,0,1-.21-1.64,1.47,1.47,0,0,1,.8-.95,1.24,1.24,0,0,1,.79-.1l.19.06Z" style="fill:#263238"></path><path d="M404.25,326.62a.41.41,0,0,1-.12-.09.82.82,0,0,1-.22-.38,1.15,1.15,0,0,1,0-.7,1,1,0,0,1,.69-.64l0,.12a1.18,1.18,0,0,1-.19-1,1.25,1.25,0,0,1,.81-.91l-.07.12A2.74,2.74,0,0,1,405,322a1.13,1.13,0,0,1,.28-.58.82.82,0,0,1,.64-.27l-.12.16a1.52,1.52,0,0,1,2.34-1.75l.86.67-1-.45a1.33,1.33,0,0,1-.38-.29,1.38,1.38,0,0,1-.18-1.43,1.59,1.59,0,0,1,1.1-.83,1.9,1.9,0,0,1,1.29.17,2.74,2.74,0,0,1,.94.76l-.18.12a1,1,0,0,1,.3-1.21,1.64,1.64,0,0,1,1.06-.39,3.89,3.89,0,0,1,1.75.35,1.92,1.92,0,0,1,.87.76,1.15,1.15,0,0,1,.12.28c0,.07,0,.1,0,.11a3,3,0,0,0-.19-.35,1.91,1.91,0,0,0-.86-.68,3.88,3.88,0,0,0-1.69-.29,1.47,1.47,0,0,0-.93.35.88.88,0,0,0-.25,1l.45.91-.63-.79a2.07,2.07,0,0,0-2-.83,1.38,1.38,0,0,0-.93.7,1.12,1.12,0,0,0,.16,1.16.89.89,0,0,0,.29.22l-.13.21a1.3,1.3,0,0,0-1.59,0,1.32,1.32,0,0,0-.38,1.44l.07.17h-.19c-.34,0-.63.33-.69.66a2.61,2.61,0,0,0,.11,1l0,.1-.09,0a1.1,1.1,0,0,0-.7.77,1,1,0,0,0,.14.89l.07.1-.12,0a.83.83,0,0,0-.61.53,1,1,0,0,0,.19,1.13Z" style="fill:#263238"></path><path d="M448.67,320.28a2.52,2.52,0,0,0-.31-1,2.48,2.48,0,0,0-.87-.82,2.07,2.07,0,0,0-1.56-.24l-.07,0v-.08a1.15,1.15,0,0,0-.88-.88,1,1,0,0,0-.71.08,1.31,1.31,0,0,1-.85.17,1.89,1.89,0,0,1-.73-.54,1.47,1.47,0,0,0-2.33.05l-.27.39.08-.47a1.3,1.3,0,0,0-2.48-.71l-.14.33-.08-.35a2.17,2.17,0,0,0-1.95-1.59,2.14,2.14,0,0,0-2.1,1.6l-.08.35-.15-.33a3.25,3.25,0,0,0-1.32-1.41,3.43,3.43,0,0,0-1.73-.44,2.89,2.89,0,0,0-1.64.56,3.31,3.31,0,0,0-1.38,2.94l0,.31-.24-.22a1.82,1.82,0,0,0-1.52-.42,2.39,2.39,0,0,0-1.4.69,4.18,4.18,0,0,0-1,2.74v.11l-.11,0a4.36,4.36,0,0,0-3.42.85,4.18,4.18,0,0,0-1.48,2.29,4.69,4.69,0,0,0-.1,1.77c.06.4.14.61.12.61a3.44,3.44,0,0,1-.18-.61,4.45,4.45,0,0,1,.05-1.8,4.33,4.33,0,0,1,1.49-2.38,4.54,4.54,0,0,1,3.56-.93l-.12.1a4.37,4.37,0,0,1,1.07-2.89,2.6,2.6,0,0,1,1.53-.76,2.08,2.08,0,0,1,1.72.48l-.21.1a3.54,3.54,0,0,1,1.47-3.16,3.13,3.13,0,0,1,1.78-.61,3.54,3.54,0,0,1,3.28,2l-.23,0a2.32,2.32,0,0,1,4.52,0h-.23a1.52,1.52,0,0,1,2.91.84l-.19-.08a1.69,1.69,0,0,1,1.85-.6c.69.18.94.9,1.43,1a1.09,1.09,0,0,0,.73-.15,1.23,1.23,0,0,1,.82-.08,1.29,1.29,0,0,1,1,1l-.09-.06a2.24,2.24,0,0,1,1.65.28,2.52,2.52,0,0,1,.87.89,2,2,0,0,1,.25.73A.86.86,0,0,1,448.67,320.28Z" style="fill:#455a64"></path><path d="M406.86,345.74a1.79,1.79,0,0,1-.37-.21,8.54,8.54,0,0,1-1-.7,3.22,3.22,0,0,1-1-1.57,2.39,2.39,0,0,1,0-1.19,1.65,1.65,0,0,1,.81-1.05l0,.16a2.11,2.11,0,0,1-.35-2,2.18,2.18,0,0,1,1.55-1.56l-.07.19a2.72,2.72,0,0,1-.58-2.1,2.67,2.67,0,0,1,1.32-1.9,2.49,2.49,0,0,1,.9-.32c.28-.07.58-.15.67-.36s0-.51,0-.83a2.39,2.39,0,0,1,.23-.88,2.51,2.51,0,0,1,2.83-1.34l-.14.15a6.53,6.53,0,0,1-.36-1.64,2.17,2.17,0,0,1,.37-1.49,2.08,2.08,0,0,1,1.16-.69,5.32,5.32,0,0,1,1.11-.18,5.64,5.64,0,0,1,1.58.12l.4.11.14.06a7.25,7.25,0,0,0-2.11-.16,5.78,5.78,0,0,0-1.08.2,1.91,1.91,0,0,0-1.05.66,2,2,0,0,0-.32,1.35,6.57,6.57,0,0,0,.37,1.58l.08.21-.22-.06a2.26,2.26,0,0,0-2.54,1.23,2.09,2.09,0,0,0-.2.78c0,.14,0,.27,0,.42a.91.91,0,0,1-.05.51.78.78,0,0,1-.39.35,2,2,0,0,1-.46.14,2.52,2.52,0,0,0-.82.3,2.39,2.39,0,0,0-1.2,1.72,2.43,2.43,0,0,0,.52,1.91l.12.15-.19.05a2.05,2.05,0,0,0-1.09,3.15l.08.1-.12.06a1.47,1.47,0,0,0-.72.92,2.2,2.2,0,0,0,0,1.11,3.15,3.15,0,0,0,1,1.51C406.37,345.42,406.88,345.71,406.86,345.74Z" style="fill:#455a64"></path><path d="M452.55,307a3,3,0,0,0-.67-.73,2.91,2.91,0,0,0-1.09-.49,2.54,2.54,0,0,0-1.58.17l-.08,0v-.09a1.93,1.93,0,0,0-.74-1.3,2,2,0,0,0-1.67-.41l-.08,0,0-.08a1.68,1.68,0,0,0-.84-1.12,1.7,1.7,0,0,0-1.49-.14,1.5,1.5,0,0,1-.89.22c-.37-.12-.47-.49-.67-.64a1,1,0,0,0-1.48.25l-.07.12-.1-.1a2.4,2.4,0,0,0-3.47.27l-.07.1-.1-.08a2.07,2.07,0,0,0-3.14.9l-.06.15-.13-.09a2.08,2.08,0,0,0-3,1.72v.26l-.21-.16a1.5,1.5,0,0,0-2,.27,1.54,1.54,0,0,0-.13,1.67l.17.29-.32-.11a2.45,2.45,0,0,0-3.07,2.47l0,.2-.19-.07a2.49,2.49,0,0,0-3.14,3.31l.07.16h-.17a3.26,3.26,0,0,0-2.62,5l0,.09-.09,0a4.92,4.92,0,0,0-2.54,2.68,4.78,4.78,0,0,0-.19,2.83,5.29,5.29,0,0,0,.71,1.66c.24.35.39.51.38.52a3.37,3.37,0,0,1-.42-.49,5,5,0,0,1-.77-1.67,4.82,4.82,0,0,1,.15-2.9,5,5,0,0,1,2.6-2.79l0,.13a3.46,3.46,0,0,1,2.77-5.33l-.1.15a2.72,2.72,0,0,1,3.43-3.63l-.16.13a2.7,2.7,0,0,1,3.4-2.74l-.15.18a1.78,1.78,0,0,1,.14-1.95,1.75,1.75,0,0,1,2.37-.31l-.2.11a2.21,2.21,0,0,1,1.22-1.92,2.14,2.14,0,0,1,2.2,0l-.19.06a2.23,2.23,0,0,1,1.56-1.38,2.19,2.19,0,0,1,2,.38l-.16,0a2.61,2.61,0,0,1,3.8-.28l-.17,0a1.24,1.24,0,0,1,1.8-.3c.26.23.36.55.59.6s.5-.09.76-.2a2,2,0,0,1,2.58,1.41l-.11-.07a2.12,2.12,0,0,1,1.8.46,2,2,0,0,1,.78,1.4l-.09,0a2.6,2.6,0,0,1,1.65-.14,2.74,2.74,0,0,1,1.11.53,2.63,2.63,0,0,1,.51.56A1.32,1.32,0,0,1,452.55,307Z" style="fill:#455a64"></path><path d="M458.45,336s.07,0,.21,0a3.1,3.1,0,0,1,.6,0,3.83,3.83,0,0,1,2,.85,4.82,4.82,0,0,1,1.65,2.82,3.77,3.77,0,0,1-.21,2,4.23,4.23,0,0,1-1.17,1.75,4.13,4.13,0,0,1-1.95.82,3.65,3.65,0,0,1-1.95-.18,4.06,4.06,0,0,1-2.32-2.28,3.78,3.78,0,0,1-.26-2.2,2,2,0,0,1,.21-.56.71.71,0,0,1,.13-.17,3.33,3.33,0,0,0-.24.75,3.85,3.85,0,0,0,.32,2.11,4,4,0,0,0,2.24,2.13,3.41,3.41,0,0,0,1.83.16,3.83,3.83,0,0,0,1.82-.77,4.06,4.06,0,0,0,1.11-1.65,3.64,3.64,0,0,0,.21-1.83,4.74,4.74,0,0,0-1.54-2.72,3.93,3.93,0,0,0-1.93-.89C458.74,336,458.45,336,458.45,336Z" style="fill:#e0e0e0"></path><path d="M437.68,348.32a1.81,1.81,0,0,0-1.23.11,2.13,2.13,0,0,0-1.25,1.31,1.53,1.53,0,0,0,.51,1.67l-.06-.15a1.75,1.75,0,0,0,1.58.66,1.88,1.88,0,0,0,1.4-1,2,2,0,0,0,0-1.73A1.66,1.66,0,0,0,437.68,348.32Z" style="fill:#59433b"></path><path d="M450.52,331.85a2.14,2.14,0,0,1-.41,2.38c.36-.16.74.31.64.69a1.39,1.39,0,0,1-.82.79,6.09,6.09,0,0,1-5.5-.22,1.78,1.78,0,0,1-2-1.94,1.6,1.6,0,0,1-1.82-1.18,1.28,1.28,0,0,1-2-.45,16.25,16.25,0,0,1-6.45-.81,1.66,1.66,0,0,1-1-2,1.24,1.24,0,0,1-1.35-1.59,1.2,1.2,0,0,1-1.48-.86c-.64.3-3.87,1.82-4.21,1.19-2,.47-3.3.06-3.66-.39s-1.17.2-1.49-.23.21-1.36.82-1.75a13.41,13.41,0,0,1,6.11-2,26.2,26.2,0,0,1,7.4.87l3.34.71c.85.18,1.84.5,2,1.34.38-.57,1.29-.47,1.85-.08s1,1,1.56,1.35a8.7,8.7,0,0,0,1.73.62,1.92,1.92,0,0,1,1.31,1.18,2.36,2.36,0,0,1,2.93.13c.3-.59,1.25-.49,1.66,0a3,3,0,0,1,.45,1.88" style="fill:#263238"></path><path d="M431.87,340.42a9.44,9.44,0,0,1-.64-1.2,5.53,5.53,0,0,1,1-5.83,5.34,5.34,0,0,1,2.42-1.55,4.92,4.92,0,0,1,1.54-.25,5,5,0,0,1,1.62.21,5.43,5.43,0,0,1,3.93,5.1,5.11,5.11,0,0,1-.2,1.62,5.48,5.48,0,0,1-2.76,3.37,5.38,5.38,0,0,1-2.45.61,5.51,5.51,0,0,1-3.44-1.14,11.1,11.1,0,0,1-1-.94,2.07,2.07,0,0,0,.22.29,2.53,2.53,0,0,0,.29.32,3.42,3.42,0,0,0,.43.4,5.58,5.58,0,0,0,3.51,1.24,5.48,5.48,0,0,0,2.53-.6,5.63,5.63,0,0,0,2.22-2,5.44,5.44,0,0,0,.67-1.49,5.27,5.27,0,0,0,.22-1.69,5.63,5.63,0,0,0-1.18-3.33,5.7,5.7,0,0,0-2.92-2,5.77,5.77,0,0,0-1.69-.22,5.33,5.33,0,0,0-1.61.27,5.7,5.7,0,0,0-2.5,1.64,5.51,5.51,0,0,0-1.23,2.3,5.57,5.57,0,0,0,.31,3.7,3.53,3.53,0,0,0,.27.52,4,4,0,0,0,.24.37Z" style="fill:#455a64"></path><path d="M417.81,347.64a8.06,8.06,0,0,1-.65-1.2,5.5,5.5,0,0,1-.23-3.62,5.45,5.45,0,0,1,3.63-3.76,4.93,4.93,0,0,1,1.54-.26,5.28,5.28,0,0,1,1.62.22,5.43,5.43,0,0,1,3.93,5.1,5.18,5.18,0,0,1-.2,1.62,5.48,5.48,0,0,1-2.76,3.37,5.37,5.37,0,0,1-2.44.61,5.58,5.58,0,0,1-3.45-1.14,10,10,0,0,1-1-.94s.06.11.21.29a2.53,2.53,0,0,0,.29.32,3.42,3.42,0,0,0,.43.4,5.58,5.58,0,0,0,3.51,1.24,5.45,5.45,0,0,0,2.53-.6,5.63,5.63,0,0,0,2.22-2,5.44,5.44,0,0,0,.67-1.49,5.27,5.27,0,0,0,.22-1.69,5.74,5.74,0,0,0-1.17-3.34,5.71,5.71,0,0,0-4.62-2.2,5.38,5.38,0,0,0-1.61.27,5.7,5.7,0,0,0-2.5,1.64,5.51,5.51,0,0,0-1.23,2.3,5.58,5.58,0,0,0,.31,3.7,2.76,2.76,0,0,0,.28.52,2.53,2.53,0,0,0,.23.36C417.72,347.55,417.8,347.65,417.81,347.64Z" style="fill:#455a64"></path><path d="M416.1,343.73a5.78,5.78,0,0,1,3-4.68,8.69,8.69,0,0,1,6.53-.38,7.53,7.53,0,0,1,4.5-2.15,6.8,6.8,0,0,1,3.42-5c2.71-1.59,6.31,0,6.31,0l2.33-.93.89,2-2.59,1.1s-3-2.92-6.11-1.4c-4.15,2-3.12,5.39-3.12,5.39l-1,.44,0-.74s-2.7.47-3.9,2.05l.39.7-.66.42a5.5,5.5,0,0,0-6.43-.59,5.2,5.2,0,0,0-2.25,6.55l-1.7.74-1-1.93Z" style="fill:#455a64"></path><path d="M438.94,341.08a2.35,2.35,0,0,0,.86-.55,4.75,4.75,0,0,0,1.37-2,4.88,4.88,0,0,0,.19-2.45,2.38,2.38,0,0,0-.34-1s.09.38.17,1a5.31,5.31,0,0,1-.25,2.34,5.17,5.17,0,0,1-1.26,2C439.25,340.84,438.92,341.05,438.94,341.08Z" style="fill:#fff"></path><path d="M425.45,347.59a1.63,1.63,0,0,0,.63-.5,4.11,4.11,0,0,0,1-3.69,1.64,1.64,0,0,0-.31-.75,6.17,6.17,0,0,0,.14.79,4.85,4.85,0,0,1-.09,1.86A4.78,4.78,0,0,1,426,347C425.66,347.36,425.42,347.56,425.45,347.59Z" style="fill:#fff"></path><path d="M438,347.28c-.2,0-.64,1.18-1.36,2.59s-1.43,2.51-1.27,2.64,1.17-.8,1.92-2.31S438.16,347.32,438,347.28Z" style="fill:#263238"></path><polyline points="617.17 346.19 572.09 347.51 612.59 363.81 617.24 348.59" style="fill:#263238"></polyline><path d="M528.29,356.38s16.68-10.29,26.64-11.1,34,6.1,44.48,8.7S626,355.62,626,355.62l57.67-30L695,340.44s-44.35,33.25-54.37,38.9-80.43,5-86.33,6.42S528.29,356.38,528.29,356.38Z" style="fill:#263238"></path><path d="M648.59,291l18.28,7.57-16.65,38.89-11.53,23.31-31.63-.22S648.8,291.78,648.59,291Z" style="fill:#263238"></path><path d="M546.7,348.64c-.1-1.89.69-3.69,1-5.56s-.18-4.13-1.89-4.91c-1.32-.6-2.94-.11-4.16.32a15.64,15.64,0,0,0-6.38,5.14c-8.63,12.5-19,13.44-32.08,14.66-11.5-2.26-25.71-7-33.35-6.94a53,53,0,0,0-9.7,1l-16.3,21.82,9.29,16a64.26,64.26,0,0,0,19.39,9.45c9,2.74,47.47-1.33,66.36-3.57q5.25-.43,10.45-1.29l.1,0h0c2.09-.35,4.17-.74,6.24-1.2,1.91-2.36,1.85-5.73,1.34-8.73a2.56,2.56,0,0,0-.05-.27,36.13,36.13,0,0,1-.55-6.14,23.52,23.52,0,0,0-.14-2.6c.81-3.76,4-7,3.58-10.85C559.08,357.72,547.08,355.85,546.7,348.64Z" style="fill:#18DBAC"></path><path d="M477.58,367.3s-2.81,11.72-6.05,15.85-46.38,20.2-51.89,21l-5.74-17.38,36.6-16.94S471,350.3,477.58,367.3Z" style="fill:#18DBAC"></path><path d="M506.49,399.31a1.84,1.84,0,0,1-.53.12c-.35.06-.87.15-1.55.22-1.35.17-3.3.35-5.73.46s-5.31.17-8.52.27c-1.6.05-3.28.11-5,.22s-3.53.34-5.4.34a30,30,0,0,1-10.31-1.81,22.17,22.17,0,0,1-4.16-1.93c-1.23-.7-2.4-1.33-3.47-1.9-2.15-1.13-3.89-2-5.06-2.72-.59-.33-1.05-.6-1.35-.79a1.92,1.92,0,0,1-.45-.32,2.49,2.49,0,0,1,.5.22l1.39.71L462,395c1.09.55,2.27,1.15,3.52,1.84a22.15,22.15,0,0,0,4.11,1.86,30.19,30.19,0,0,0,10.14,1.74c1.83,0,3.62-.24,5.38-.33s3.43-.16,5-.19l8.52-.16c2.42-.07,4.37-.18,5.72-.29S506.49,399.27,506.49,399.31Z" style="fill:#263238"></path><path d="M478.64,366.34a14.26,14.26,0,0,0-4-4,11.89,11.89,0,0,0-5.76-1.93,15.63,15.63,0,0,0-7.31,1.54,38.56,38.56,0,0,0-6.52,3.92c-1.91,1.36-3.63,2.61-5.15,3.56a26.49,26.49,0,0,1-3.73,2c-.46.19-.83.33-1.08.41s-.38.12-.39.1a14.84,14.84,0,0,1,1.38-.7,32.09,32.09,0,0,0,3.62-2.13c1.48-1,3.17-2.25,5.07-3.64a37.18,37.18,0,0,1,6.59-4,15.51,15.51,0,0,1,7.55-1.54,12,12,0,0,1,8.95,5.08,8,8,0,0,1,.59,1C478.6,366.2,478.66,366.33,478.64,366.34Z" style="fill:#263238"></path><path d="M470.53,389c0,.18-3.93.14-8.67.94a47.68,47.68,0,0,0-6,1.43,19.15,19.15,0,0,1-2.46.74,9.81,9.81,0,0,1,2.34-1.08,32,32,0,0,1,6-1.6,39.05,39.05,0,0,1,6.19-.55A11.31,11.31,0,0,1,470.53,389Z" style="fill:#263238"></path><path d="M541.78,351.29a8,8,0,0,1-1.42.66c-.92.39-2.27.92-4,1.54a88.21,88.21,0,0,1-13.5,3.77A74.21,74.21,0,0,1,509,358.58c-1.8,0-3.25-.05-4.25-.13a9.91,9.91,0,0,1-1.55-.16,8.29,8.29,0,0,1,1.56,0c1,0,2.45,0,4.23,0a87.1,87.1,0,0,0,13.86-1.47,104.9,104.9,0,0,0,13.48-3.61l4-1.38A9.51,9.51,0,0,1,541.78,351.29Z" style="fill:#263238"></path><path d="M431.59,400.49a15.33,15.33,0,0,1-1.2-2.64c-.68-1.67-1.58-4-2.55-6.53s-1.82-4.9-2.41-6.59a15.29,15.29,0,0,1-.85-2.78,17.25,17.25,0,0,1,1.2,2.66c.67,1.66,1.58,4,2.55,6.52s1.81,4.89,2.4,6.58A17.49,17.49,0,0,1,431.59,400.49Z" style="fill:#fff"></path><path d="M446.57,394.38s-.25-.17-.59-.57a14,14,0,0,1-1.26-1.81c-1-1.61-1.9-4-3.19-6.51s-2.57-4.71-3.48-6.32a19.21,19.21,0,0,1-1.41-2.65,16.17,16.17,0,0,1,1.72,2.46c1,1.56,2.34,3.75,3.63,6.28s2.18,4.94,3.05,6.56S446.63,394.32,446.57,394.38Z" style="fill:#fff"></path><path d="M458.5,389c-.13.05-1.9-4.39-3.95-9.92A105.71,105.71,0,0,1,451.08,369c.13-.05,1.9,4.39,3.95,9.92A104.65,104.65,0,0,1,458.5,389Z" style="fill:#fff"></path><path d="M467.9,360.12a4.81,4.81,0,0,1,.54,1,24.58,24.58,0,0,1,1.13,2.91,31.5,31.5,0,0,1,1.09,4.51,34.58,34.58,0,0,1,.45,5.67,36.13,36.13,0,0,1-.54,5.65,31.43,31.43,0,0,1-1.17,4.49,26.61,26.61,0,0,1-1.18,2.9,5.58,5.58,0,0,1-.55,1c-.09,0,.61-1.51,1.38-4a36.56,36.56,0,0,0,1.05-4.46,39.55,39.55,0,0,0,.49-5.58,38.87,38.87,0,0,0-.4-5.59,35.84,35.84,0,0,0-1-4.47C468.49,361.64,467.81,360.16,467.9,360.12Z" style="fill:#fff"></path><path d="M464.83,389.71a7.57,7.57,0,0,1-.44,2.74,7.36,7.36,0,0,1-.95,2.61,7.5,7.5,0,0,1,.45-2.74A7.68,7.68,0,0,1,464.83,389.71Z" style="fill:#fff"></path><path d="M484.15,354.66a1.65,1.65,0,0,1,.07.48c0,.37.06.82.1,1.37.08,1.18.18,2.91.26,5A103.36,103.36,0,0,1,484,378.2a50.64,50.64,0,0,1-4.62,16,34,34,0,0,1-2.57,4.35c-.33.5-.63.86-.82,1.11a2.46,2.46,0,0,1-.32.36,13.2,13.2,0,0,1,1-1.58,41.36,41.36,0,0,0,2.4-4.4,53.1,53.1,0,0,0,4.44-15.9,116.73,116.73,0,0,0,.69-16.57c0-2.07-.07-3.77-.09-5.05,0-.54,0-1,0-1.37A1.68,1.68,0,0,1,484.15,354.66Z" style="fill:#fff"></path><path d="M501.33,398.24a11.27,11.27,0,0,1,0-1.61c0-1.13,0-2.6.06-4.38,0-3.7,0-8.81-.29-14.45s-.78-10.72-1.19-14.4c-.2-1.76-.37-3.23-.5-4.35a11,11,0,0,1-.14-1.6,9.24,9.24,0,0,1,.34,1.57c.18,1,.41,2.5.67,4.34.5,3.67,1,8.77,1.34,14.42s.27,10.77.14,14.47c-.07,1.86-.14,3.35-.23,4.39A8.44,8.44,0,0,1,501.33,398.24Z" style="fill:#fff"></path><path d="M521.87,395.67a9.36,9.36,0,0,1,0-1.5c0-1,0-2.35-.05-4.06a97.73,97.73,0,0,0-1.32-13.32,96.53,96.53,0,0,0-3.18-13c-.52-1.63-1-2.94-1.3-3.85a8.37,8.37,0,0,1-.45-1.43,7.7,7.7,0,0,1,.64,1.36c.39.88.89,2.18,1.46,3.81a81.84,81.84,0,0,1,4.52,26.43c0,1.72,0,3.12-.11,4.08A8,8,0,0,1,521.87,395.67Z" style="fill:#fff"></path><path d="M541.72,393.87a10.23,10.23,0,0,1-.17-1.54c-.07-1-.2-2.43-.38-4.19a119.15,119.15,0,0,0-5.9-27.09c-.57-1.68-1-3-1.4-4a8.12,8.12,0,0,1-.48-1.47,8.53,8.53,0,0,1,.67,1.4c.4.91.94,2.25,1.56,3.92a100.95,100.95,0,0,1,5.92,27.17c.13,1.78.2,3.23.21,4.22A7.76,7.76,0,0,1,541.72,393.87Z" style="fill:#fff"></path><path d="M524.31,356.11c-.13.07-.37-.15-.55-.48s-.22-.65-.09-.72.37.15.55.48S524.44,356,524.31,356.11Z" style="fill:#fff"></path><path d="M537.71,351.46a12.91,12.91,0,0,1-2-2.33,12,12,0,0,1-1.85-2.48,7.6,7.6,0,0,1,2.25,2.15A7.44,7.44,0,0,1,537.71,351.46Z" style="fill:#fff"></path><path d="M556.42,376.61c-.09,0-.5-1.49-1.39-3.86a48.27,48.27,0,0,0-10.42-16.56c-1.74-1.82-2.93-2.85-2.87-2.91a4.28,4.28,0,0,1,.89.64c.56.44,1.33,1.13,2.25,2a43.17,43.17,0,0,1,6.23,7.74,42.47,42.47,0,0,1,4.27,9c.4,1.21.69,2.2.84,2.89A5,5,0,0,1,556.42,376.61Z" style="fill:#fff"></path><path d="M453.75,415.64a56.14,56.14,0,0,1-5-5.81,57.21,57.21,0,0,1-4.61-6.13,56.14,56.14,0,0,1,5,5.81A57.21,57.21,0,0,1,453.75,415.64Z" style="fill:#fff"></path><path d="M465.53,407.56a104.37,104.37,0,0,1-11.75-8.92,52.22,52.22,0,0,1,6,4.25A50.38,50.38,0,0,1,465.53,407.56Z" style="fill:#fff"></path><path d="M465.71,351.65a18.33,18.33,0,0,1,1.08,3.74,12.72,12.72,0,0,1,.58,3.87,18.94,18.94,0,0,1-1.09-3.75A12.11,12.11,0,0,1,465.71,351.65Z" style="fill:#fff"></path><path d="M458.45,362.48a6.24,6.24,0,0,1-1.28-2.41,6.37,6.37,0,0,1-.64-2.66,21.37,21.37,0,0,1,1.92,5.07Z" style="fill:#fff"></path><path d="M371.43,390.68l-10.91-4.86L348.2,385s-1,1.53,3.2,2.15l5.63,1.26s-13.18,3-15.29,4.55c-.82.6-1.07,2,1.21,1.56s7.83-1.36,7.83-1.36-4.92,2.11-7.32,3.45a1.13,1.13,0,0,0,1,2c2-.56,7.45-2.35,7.45-2.35s-7.14,6.25-4.11,6.45c.5,0,5.34-3.36,5.34-3.36s16.66-.15,17.19-.09,1.08-8.61,1.08-8.61" style="fill:#846a5e"></path><path d="M572.09,347.51a3.27,3.27,0,0,1,.54.1l1.55.34,5.9,1.36,21,5h0l25,1.08-.13,0,4.52-2.35L668,333.58l11.43-5.84,3.12-1.57.82-.4a1.27,1.27,0,0,1,.28-.11,1.56,1.56,0,0,1-.26.16l-.79.44-3.08,1.66-11.35,6L630.66,353.5l-4.52,2.35-.06,0H626l-25-1.15h0l-21-5.16-5.87-1.48-1.54-.41A2.5,2.5,0,0,1,572.09,347.51Z" style="fill:#455a64"></path></g><g id="freepik--character-2--inject-315"><path d="M401.9,109.9l-7,6.35-4,2.19,3.88,8.81,4.89-.42,11.13-5.64s8,.44,9.56-.5,1.34-1.45,1.34-1.45l-10.23-1.32a5,5,0,0,1,3.29-1c2.23,0,6.27.45,7.18-.57s.52-1.34.52-1.34l-8.08-1.2s6.49,0,7.23-.78a1.86,1.86,0,0,0,.48-1.67l-4.9-1.58L410.11,108Z" style="fill:#ffd4bd"></path><path d="M399,115.53a4.49,4.49,0,0,1,1.05,0c.67,0,1.64,0,2.84.11s2.63.13,4.23.3a3.5,3.5,0,0,1,1.25.32,2.44,2.44,0,0,1,1,1,2.29,2.29,0,0,1,.29,1.42,2.1,2.1,0,0,1-.82,1.24,4.1,4.1,0,0,1-1.81.8,12.78,12.78,0,0,1-1.82.13c-1.18,0-2.28,0-3.29-.06l.19-.15a5.33,5.33,0,0,1-1.23,2.35,4.68,4.68,0,0,1-1.68,1.15,4.34,4.34,0,0,1-1.26.32,1.09,1.09,0,0,1-.46,0,8.77,8.77,0,0,0,1.63-.52,4.59,4.59,0,0,0,1.54-1.16,5,5,0,0,0,1.09-2.23l0-.15h.16c1,0,2.09,0,3.26,0a15,15,0,0,0,1.76-.13,3.89,3.89,0,0,0,1.61-.72,1.64,1.64,0,0,0,.65-1,1.81,1.81,0,0,0-.23-1.13,2.28,2.28,0,0,0-1.91-1.08c-1.57-.18-3-.28-4.2-.39l-2.83-.25A5.09,5.09,0,0,1,399,115.53Z" style="fill:#fdb094"></path><path d="M414.82,113.71a17.2,17.2,0,0,1-4.61-.64,10.15,10.15,0,0,1-1-.33l.26-.08a5.76,5.76,0,0,1-2.05,1.66c-.58.29-1,.37-1,.32s.32-.22.85-.57a6.68,6.68,0,0,0,1.82-1.64l.1-.15.17.06c.3.11.63.2,1,.3A43.77,43.77,0,0,1,414.82,113.71Z" style="fill:#fdb094"></path><path d="M169.86,142l6.45,6.41,3.75,2.28L176,159l-4.69-.61-10.48-5.9s-7.71.08-9.18-.88-1.24-1.45-1.24-1.45l9.92-.84a4.81,4.81,0,0,0-3.13-1.06c-2.15-.09-6.06.17-6.89-.85s-.45-1.31-.45-1.31l7.83-.82s-6.25-.23-6.92-1.05a1.77,1.77,0,0,1-.4-1.63l4.79-1.31,6.93-1.46Z" style="fill:#ffd4bd"></path><path d="M172.46,147.5a4.51,4.51,0,0,0-1-.06c-.65,0-1.59,0-2.75,0s-2.53,0-4.08.11a3.38,3.38,0,0,0-1.21.26,2.27,2.27,0,0,0-1,.87,2.16,2.16,0,0,0-.33,1.35,2,2,0,0,0,.73,1.23,3.94,3.94,0,0,0,1.71.85,12,12,0,0,0,1.75.2c1.13.07,2.2.09,3.17.08l-.18-.14a5.18,5.18,0,0,0,1.09,2.31,4.49,4.49,0,0,0,1.57,1.18,4.13,4.13,0,0,0,1.2.36c.28,0,.44,0,.44,0a8.33,8.33,0,0,1-1.55-.56,4.55,4.55,0,0,1-1.43-1.18,4.94,4.94,0,0,1-1-2.2l0-.14h-.15c-1,0-2,0-3.14-.13a13.67,13.67,0,0,1-1.69-.2,3.64,3.64,0,0,1-1.52-.76,1.62,1.62,0,0,1-.59-1,1.7,1.7,0,0,1,.27-1.07,2.17,2.17,0,0,1,1.89-1c1.51-.12,2.9-.15,4.05-.21l2.74-.12A4.16,4.16,0,0,0,172.46,147.5Z" style="fill:#fdb094"></path><path d="M157.27,145.08a16,16,0,0,0,4.46-.42,8.9,8.9,0,0,0,1-.27l-.24-.1a5.55,5.55,0,0,0,1.9,1.69c.55.31.93.4.94.35s-.3-.22-.79-.58a6.55,6.55,0,0,1-1.69-1.66l-.09-.15-.16.05c-.29.1-.61.17-1,.25A42,42,0,0,0,157.27,145.08Z" style="fill:#fdb094"></path><path d="M276.47,189.76c16.49-1.47-9.83-40.37-26.38-40-19.37.47-40.61,1-41.27.91-1.21-.26-27.41-3.26-27.41-3.26l-6.24,13.45,83.64,15.63Z" style="fill:#18DBAC"></path><g style="opacity:0.30000000000000004"><path d="M265.7,163.36c-.24.42.43-.21,0,0Z"></path></g><g style="opacity:0.30000000000000004"><path d="M262.94,151.42a10.63,10.63,0,0,0-6.1-2.21,41.88,41.88,0,0,0-6.72,0c-6.41.58-19,1-19,1l.17.34c4,4.26,6.67,10.16,12,12.64a23.6,23.6,0,0,0,5.43,1.55c1.78.36,3.71.7,5.36-.06a7.73,7.73,0,0,1,2.27-1,4,4,0,0,1,1.93.49,3.42,3.42,0,0,0,3.78-1c.65-.71,2.82.55,3.69.13,1.11-1.93,1.7-2.05,1.16-4.2C266.14,156.31,265.18,153.32,262.94,151.42Z"></path></g><path d="M251.19,106.6c-2.88-.89-5.72-1.91-8.49-.95-2.51.86-4.22,3.15-6.48,4.55-1.65,1-3.56,1.53-5.24,2.48s-3.21,2.57-3.22,4.5c0,1.14.52,2.23.51,3.36,0,2.34-2.31,4.31-2,6.64.22,1.89,2,3.17,2.79,4.92s.35,4.07.15,6.13.08,4.49,1.83,5.61c1.54,1,3.67.56,5.19,1.57,1.11.73,1.64,2.05,2.4,3.14s2.11,2.06,3.34,1.55l14.23-5.46c5.33-1.3,10.8-2.66,15.24-5.87s7.65-8.77,6.46-14.12a3.14,3.14,0,0,1-2.27.47,5.29,5.29,0,0,0,.29-4.53,2.2,2.2,0,0,1-3.06.67,5.06,5.06,0,0,1-1.94-2.87,14.19,14.19,0,0,0-1.24-3.29,5,5,0,0,0-5.61-2,4.68,4.68,0,0,0-3.68-5.67,18.53,18.53,0,0,0-3.56.19,10.75,10.75,0,0,1-2-.12" style="fill:#263238"></path><path d="M268.8,131.4a68,68,0,0,0-4.26-11,23.85,23.85,0,0,0-7.56-8.89c-.5-.33-4.12-2.34-4.57-1.94s2.61,2.48,2.65,2.9a20.31,20.31,0,0,0,5.05,10.9,53.69,53.69,0,0,0,8.69,8" style="fill:#263238"></path><path d="M277.39,165.63c4.87-3.67,2.68-18.52,2.68-18.52l-19.69-28c-5.51-8.18-14.86-11.79-22.88-6.06l-.71.57a17.63,17.63,0,0,0-3.51,23.65c4.81,7.06,10.21,14.8,13.12,18.33,6,7.29,14.32,2.5,14.32,2.5s1.33,1.74,3,4c3.7,5,10.54,5.41,13.69,3.54Z" style="fill:#ffd4bd"></path><path d="M260.69,158a22.85,22.85,0,0,0,7.3-10.56s2,7.24-5.9,12.5Z" style="fill:#fdb094"></path><path d="M238.19,139.89a1.35,1.35,0,0,0,1.87.24,1.29,1.29,0,0,0,.32-1.82,1.36,1.36,0,0,0-1.87-.25A1.29,1.29,0,0,0,238.19,139.89Z" style="fill:#263238"></path><path d="M236.4,137.25c.19,0,.87-.85,2.14-1.56s2.41-.89,2.49-1.05-.2-.14-.7-.06a6.31,6.31,0,0,0-2.06.74,5.49,5.49,0,0,0-1.64,1.34C236.34,137,236.3,137.25,236.4,137.25Z" style="fill:#263238"></path><path d="M249.67,132.64a1.35,1.35,0,0,0,1.87.24,1.29,1.29,0,0,0,.32-1.82,1.36,1.36,0,0,0-1.87-.25A1.3,1.3,0,0,0,249.67,132.64Z" style="fill:#263238"></path><path d="M248.34,130.11c.19-.05.6-1.06,1.62-2.09s2.06-1.54,2.1-1.71-.23-.08-.69.13a6.26,6.26,0,0,0-1.77,1.3,5.48,5.48,0,0,0-1.2,1.74C248.23,129.92,248.25,130.14,248.34,130.11Z" style="fill:#263238"></path><path d="M251.69,142.44a9.65,9.65,0,0,0-2.11,1.15c-.31.21-.63.37-.84.21a1.83,1.83,0,0,1-.5-1l-.92-2.89c-1.34-4.09-2.55-7.36-2.72-7.31s.79,3.42,2.13,7.51q.5,1.5,1,2.88a2.16,2.16,0,0,0,.77,1.25.93.93,0,0,0,.81,0,2.35,2.35,0,0,0,.55-.33A9.54,9.54,0,0,0,251.69,142.44Z" style="fill:#263238"></path><path d="M255.65,140.54c-.19.14.79,1.37.44,3.09s-1.76,2.64-1.63,2.82.48,0,1-.43a4,4,0,0,0,1.42-2.28,3.46,3.46,0,0,0-.45-2.53C256.11,140.66,255.73,140.47,255.65,140.54Z" style="fill:#263238"></path><path d="M245.1,125.83c.36.22,1.37-.84,2.83-1.75s2.82-1.42,2.77-1.83c0-.2-.45-.34-1.12-.29a5.77,5.77,0,0,0-4.27,2.73C245,125.28,244.93,125.72,245.1,125.83Z" style="fill:#263238"></path><path d="M234.71,134.81c.41.1,1-.8,1.9-1.57s1.87-1.22,1.84-1.64c0-.19-.36-.35-.9-.31a3.54,3.54,0,0,0-3,2.58C234.42,134.4,234.52,134.76,234.71,134.81Z" style="fill:#263238"></path><path d="M264.14,125c.08-.16,3.85-5.58,7.75-.41s-2.58,8.19-2.7,8S264.14,125,264.14,125Z" style="fill:#ffd4bd"></path><path d="M269.78,129.26s.13,0,.34,0a1.1,1.1,0,0,0,.68-.49,2.78,2.78,0,0,0-.48-2.78,3.58,3.58,0,0,0-1.22-1.09,1.3,1.3,0,0,0-1.2-.18.56.56,0,0,0-.34.64c0,.2.15.28.13.31s-.18,0-.3-.25a.75.75,0,0,1,0-.48.84.84,0,0,1,.4-.5,1.55,1.55,0,0,1,1.54.09,3.7,3.7,0,0,1,1.4,1.2,2.92,2.92,0,0,1,.37,3.22,1.23,1.23,0,0,1-.92.49C269.88,129.38,269.77,129.29,269.78,129.26Z" style="fill:#fdb094"></path><path d="M230.22,126.06c-1.18.15-.68-4.44.7-6.91,2.07-3.74,6.2-8.15,9.68-9.46,4.2-1.59,8.36-2,12.45-.13a25.48,25.48,0,0,1,10,8.74A7.76,7.76,0,0,1,264.7,122c.13,1.69-.73,3.45.5,5a2.68,2.68,0,0,1,.64,2c-.2,1.72-2.07,1.63-3.31,1.07-2.65-1.19-4.58-3.52-6.41-5.78a19.18,19.18,0,0,1-3.34-5.19c-.38-1.06-.58-2.18-1-3.21a3.86,3.86,0,0,0-2.29-2.32,4.37,4.37,0,0,0-.74-.12,6.76,6.76,0,0,0-6.14,3c-2.16,3.21-6,8.46-8.05,8.44a10,10,0,0,1-4.08-.64Z" style="fill:#263238"></path><path d="M239.81,109.18a14.21,14.21,0,0,0-8.43,7,7.42,7.42,0,0,0-.57,5.78,4.22,4.22,0,0,0,4.69,2.77h.15c2.77-.9,4-2.26,5.64-4.67,1.38-2,2.19-4.39,3.58-6.41a13.13,13.13,0,0,1,6-4.76A21.46,21.46,0,0,0,239.81,109.18Z" style="fill:#263238"></path><path d="M253.52,107.18c0,.07-.8-.13-2.08-.1a9.39,9.39,0,0,0-2.21.29,6.1,6.1,0,0,0-2.39,1.19,8.77,8.77,0,0,0-2.57,4.14c-.35,1.23-.34,2-.41,2s-.06-.2-.07-.57a7.39,7.39,0,0,1,.18-1.54,8.36,8.36,0,0,1,2.59-4.4,6,6,0,0,1,2.57-1.24,8.54,8.54,0,0,1,2.31-.22A5,5,0,0,1,253.52,107.18Z" style="fill:#455a64"></path><path d="M255.38,108.66a5.61,5.61,0,0,1,.68,1.79,13.42,13.42,0,0,1,.33,4.6,13.16,13.16,0,0,1-1.25,4.45,5.22,5.22,0,0,1-1,1.61A20.21,20.21,0,0,0,256,115,20,20,0,0,0,255.38,108.66Z" style="fill:#455a64"></path><path d="M258.13,108a2.52,2.52,0,0,1,.45.58,12.43,12.43,0,0,1,.94,1.78,13.54,13.54,0,0,1-1.18,12.74,11.1,11.1,0,0,1-1.25,1.58c-.32.34-.53.51-.55.49s.68-.8,1.54-2.23a14.23,14.23,0,0,0,1.15-12.47C258.65,108.88,258.06,108,258.13,108Z" style="fill:#263238"></path><path d="M233.44,113c.05,0-.41.58-1,1.53a14.29,14.29,0,0,0-1.75,4,14.49,14.49,0,0,0-.44,4.33,17.27,17.27,0,0,1,.13,1.83,5.33,5.33,0,0,1-.43-1.8,12.2,12.2,0,0,1,2.23-8.52A5.29,5.29,0,0,1,233.44,113Z" style="fill:#455a64"></path><path d="M248.35,96.9s.11,0,.28.16a2.74,2.74,0,0,1,.62.69,3.74,3.74,0,0,1,.15,3.34,7,7,0,0,1-3.7,3.31c-1.7.8-3.68,1.34-5.37,2.6a12.65,12.65,0,0,0-3.8,4.46,12.51,12.51,0,0,0-1.28,4.64,18.24,18.24,0,0,0,.36,4.47,4.13,4.13,0,0,1-.4-1.16,11.42,11.42,0,0,1-.32-3.33,12.24,12.24,0,0,1,1.21-4.83,12.7,12.7,0,0,1,3.93-4.67c1.77-1.32,3.82-1.87,5.47-2.62a6.8,6.8,0,0,0,3.57-3,3.62,3.62,0,0,0,0-3.08A5.35,5.35,0,0,0,248.35,96.9Z" style="fill:#263238"></path><path d="M252,100.55c.06,0,.22.57-.11,1.42a5.86,5.86,0,0,1-2.25,2.54,10.81,10.81,0,0,1-2.94,1.66c-.85.27-1.41.17-1.41.11s.53-.12,1.28-.45a15.91,15.91,0,0,0,2.76-1.75,6.66,6.66,0,0,0,2.23-2.26C251.88,101.09,251.87,100.55,252,100.55Z" style="fill:#263238"></path><path d="M273,111.4s.07.27,0,.76a5.89,5.89,0,0,1-.63,2,6.36,6.36,0,0,1-2,2.29c-.94.68-2.08,1.22-3.17,1.9a7.79,7.79,0,0,0-3.58,5.18,16.48,16.48,0,0,0-.15,2.72,1.74,1.74,0,0,1-.2-.72,6.29,6.29,0,0,1,0-2.06,7.66,7.66,0,0,1,1-2.89,7.89,7.89,0,0,1,2.66-2.67c1.12-.71,2.25-1.22,3.16-1.85a6.41,6.41,0,0,0,2-2.08A10.09,10.09,0,0,0,273,111.4Z" style="fill:#263238"></path><path d="M273.21,114.29a9.59,9.59,0,0,1-2.31,3.65,7.68,7.68,0,0,1-2.4,2c-.76.33-1.29.24-1.28.18s.47-.13,1.11-.51a10.32,10.32,0,0,0,2.19-2C272.09,115.86,273.08,114.22,273.21,114.29Z" style="fill:#263238"></path><path d="M286,126.4a20.6,20.6,0,0,1,7.07-1.13l-6.5,6.12-2.36-.77Z" style="fill:#263238"></path><path d="M386.18,144.53c-3.19-5.29-8.52-9-14.13-11.58a32.7,32.7,0,0,0-12.34-3.34c-6.63-.26-13,2.37-19.34,4.24A88.27,88.27,0,0,1,310,137.26l-3.41,3.51a62.1,62.1,0,0,0,8.64,8.2c8.62,7.12,17.71,13.88,28.06,18.11s22.13,5.76,32.74,2.26c4.14-1.36,8.17-3.6,10.58-7.23C390,157,389.38,149.83,386.18,144.53Z" style="fill:#455a64"></path><path d="M477,135.55l7.86-15.76s18.67,2.69,20.41-.08l-30-16.35L462,127.43Z" style="fill:#18DBAC"></path><path d="M474.88,116a1.39,1.39,0,0,1-.08-1.86,1.34,1.34,0,0,1,1.84-.1,1.47,1.47,0,0,1,.08,2,1.39,1.39,0,0,1-1.93-.11" style="fill:#fff"></path><path d="M475.26,103.36,474,105.84l29.25,14.75s1.66.15,2-.88Z" style="fill:#fff"></path><path d="M485.28,120.2c.07-.15-.62-.61-1.09-1.48s-.51-1.69-.68-1.7-.41,1,.17,2S485.24,120.36,485.28,120.2Z" style="fill:#263238"></path><path d="M489.14,120.62c.11-.13-.39-.72-.55-1.61s.05-1.63-.1-1.7-.69.7-.47,1.81S489.06,120.75,489.14,120.62Z" style="fill:#263238"></path><path d="M493,117.82c-.12-.1-.72.52-.78,1.53s.45,1.7.58,1.61-.07-.75,0-1.58S493.11,117.91,493,117.82Z" style="fill:#263238"></path><path d="M483.09,123.6c0-.17-.78-.33-1.57-.84s-1.3-1.12-1.45-1,.19,1,1.14,1.53S483.1,123.75,483.09,123.6Z" style="fill:#263238"></path><path d="M481.44,126.75c0-.06-.49-.47-1.51-.81a7.38,7.38,0,0,0-1.83-.37,8.28,8.28,0,0,0-1.12,0,2.38,2.38,0,0,0-.64.11.71.71,0,0,0-.49.74.91.91,0,0,0,.45.69,2.33,2.33,0,0,0,.61.23,6.45,6.45,0,0,0,1.11.19,6,6,0,0,0,1.88-.16c1.05-.27,1.59-.68,1.55-.74s-.63.19-1.63.34a6.71,6.71,0,0,1-1.75,0,6.44,6.44,0,0,1-1-.2c-.36-.09-.63-.24-.64-.42s0-.1.13-.15a1.82,1.82,0,0,1,.47-.08,9.15,9.15,0,0,1,1,0,9.3,9.3,0,0,1,1.76.23A12.13,12.13,0,0,0,481.44,126.75Z" style="fill:#263238"></path><path d="M481.36,126.44c0-.06-.61.31-1.18,1.23a5.48,5.48,0,0,0-.69,1.76,5.06,5.06,0,0,0-.12,1.12,1.41,1.41,0,0,0,.55,1.28.78.78,0,0,0,.85-.07,2.52,2.52,0,0,0,.46-.47,3.85,3.85,0,0,0,.55-1,4,4,0,0,0,.2-1.91,2.27,2.27,0,0,0-.71-1.56c-.09,0,.26.61.31,1.6a3.9,3.9,0,0,1-.3,1.67,3.57,3.57,0,0,1-.5.86c-.22.29-.48.48-.58.38s-.27-.45-.26-.77a5.57,5.57,0,0,1,.07-1,6.11,6.11,0,0,1,.53-1.66C481,127,481.43,126.5,481.36,126.44Z" style="fill:#263238"></path><path d="M470.69,189.71l11.82-13.07s17.25,7.63,19.67,5.43l-24.51-23.83-19.25,19.61Z" style="fill:#18DBAC"></path><path d="M473.9,170.34a1.4,1.4,0,0,1,.42-1.82,1.35,1.35,0,0,1,1.8.4,1.47,1.47,0,0,1-.45,1.92,1.39,1.39,0,0,1-1.83-.62" style="fill:#fff"></path><path d="M477.67,158.24l-1.87,2L500,182.37s1.55.58,2.17-.3Z" style="fill:#fff"></path><path d="M482.79,177.16c.11-.13-.44-.76-.65-1.72s0-1.77-.2-1.83-.65.81-.37,2S482.71,177.29,482.79,177.16Z" style="fill:#263238"></path><path d="M486.39,178.59c.14-.09-.18-.8-.09-1.7s.49-1.55.36-1.66-.86.49-.94,1.62S486.28,178.7,486.39,178.59Z" style="fill:#263238"></path><path d="M490.84,176.93c-.08-.13-.83.31-1.16,1.26s0,1.76.13,1.71.14-.74.42-1.52S491,177.06,490.84,176.93Z" style="fill:#263238"></path><path d="M479.76,179.84c.06-.16-.65-.53-1.28-1.24s-1-1.42-1.12-1.38-.07,1,.69,1.78S479.73,180,479.76,179.84Z" style="fill:#263238"></path><path d="M477.33,182.43c.05-.05-.35-.58-1.23-1.19a7.63,7.63,0,0,0-1.67-.85,6.69,6.69,0,0,0-1.07-.31,2.06,2.06,0,0,0-.65-.08.74.74,0,0,0-.68.59.94.94,0,0,0,.26.78,2.47,2.47,0,0,0,.53.39,7.7,7.7,0,0,0,1,.48,6,6,0,0,0,1.86.35,2.87,2.87,0,0,0,1.69-.29c0-.1-.66,0-1.66-.12a6.94,6.94,0,0,1-1.69-.44,6.15,6.15,0,0,1-.92-.47c-.33-.19-.55-.4-.5-.58s0-.09.16-.11a1.71,1.71,0,0,1,.47,0,8.73,8.73,0,0,1,1,.26,9.82,9.82,0,0,1,1.63.7A13.65,13.65,0,0,0,477.33,182.43Z" style="fill:#263238"></path><path d="M477.34,182.1c0-.06-.68.14-1.48.88a5.6,5.6,0,0,0-1.13,1.5,5.48,5.48,0,0,0-.42,1.05,1.4,1.4,0,0,0,.19,1.38.79.79,0,0,0,.84.16,2.12,2.12,0,0,0,.56-.33,3.69,3.69,0,0,0,.81-.82,4,4,0,0,0,.71-1.78,2.26,2.26,0,0,0-.27-1.7,14.69,14.69,0,0,1-.14,1.62,3.82,3.82,0,0,1-.73,1.53,3.33,3.33,0,0,1-.71.69c-.29.23-.6.34-.67.22a1,1,0,0,1,0-.82,5.75,5.75,0,0,1,.35-1,6.14,6.14,0,0,1,1-1.46C476.83,182.51,477.39,182.19,477.34,182.1Z" style="fill:#263238"></path><path d="M351.17,170.39c-.19.54,11.95-.41,17.16,2.33,6.3,3.31,15.26,5.08,15.26,5.08l44.74-3.64,33.84-51.59,19.37,9.54-32.39,63.55a13.42,13.42,0,0,1-9.25,7.15L382,214.88l-43.28-2Z" style="fill:#263238"></path><path d="M334.9,205.4l6.81,17.06c22.83,10.95,71.43,23.39,77.51,22.1,8.45-1.79,55.25-57.22,55.25-57.22L461.05,173l-43.47,41.23-74.93-30Z" style="fill:#263238"></path><path d="M480.91,131.17l-.16.39-.53,1.14-2.06,4.35-7.64,16c-3.25,6.73-7.11,14.75-11.39,23.64-2.15,4.45-4.41,9.12-6.74,14-.6,1.21-1.16,2.43-1.8,3.66a18.24,18.24,0,0,1-2.37,3.43,18.49,18.49,0,0,1-6.88,5,19.47,19.47,0,0,1-4.11,1.19l-4.13.78c-2.74.49-5.43.95-8.09,1.36-5.32.83-10.45,1.56-15.36,2.14-9.81,1.21-18.69,1.94-26.16,2.33s-13.52.37-17.7.17l-2.77-.16-2-.2-1.24-.14-.42-.07.42,0,1.25.09,2,.17,2.77.11c4.17.15,10.22.11,17.68-.32s16.32-1.19,26.12-2.42c4.9-.59,10-1.33,15.34-2.16,2.65-.42,5.35-.88,8.08-1.37l4.12-.78a19.54,19.54,0,0,0,4-1.16,18.29,18.29,0,0,0,9-8.17c.63-1.2,1.2-2.44,1.79-3.65l6.76-13.94c4.32-8.88,8.21-16.88,11.49-23.6L478,137l2.14-4.31c.24-.48.43-.85.56-1.12S480.91,131.17,480.91,131.17Z" style="fill:#455a64"></path><path d="M345.1,225l.23,0Z" style="fill:#18DBAC"></path><path d="M351.13,168.39s-22.68-10.22-35.31-23.3c-.27-.29-.55-.57-.82-.84L289.16,126s-6.41,5.91-9.24,10.92l-3.74,5.89s2.4,20.13-3.54,23c-4.14,2-8-1.82-8-1.82a14,14,0,0,0,2,9.46c4,6,6.11,13.45,11.89,17.15,8.06,5.15,51.78,36.92,66,34.51,0,0,19.26-19.63,22-54.83Z" style="fill:#18DBAC"></path><path d="M345.1,225l-.46.08Z" style="fill:#18DBAC"></path><path d="M345.4,224.91Z" style="fill:#18DBAC"></path><path d="M345.33,224.93l.07,0Z" style="fill:#18DBAC"></path><path d="M290,129.93c.07,0,.68.81,1.8,2.08a29.32,29.32,0,0,0,10.57,7.62c1.55.66,2.55,1,2.53,1.05a9.58,9.58,0,0,1-2.66-.71,24.76,24.76,0,0,1-10.72-7.73A9.91,9.91,0,0,1,290,129.93Z" style="fill:#263238"></path><path d="M353.52,149.59a1.86,1.86,0,0,1-.27.38c-.18.24-.47.58-.86,1a30.57,30.57,0,0,1-3.58,3.31,34,34,0,0,1-6.16,3.82,21.22,21.22,0,0,1-4,1.67,7.08,7.08,0,0,1-2.31.28,4.64,4.64,0,0,1-2.31-.77,147.09,147.09,0,0,1-13-9.48c-1.57-1.33-2.8-2.46-3.61-3.27-.42-.4-.72-.73-.93-.95a2.12,2.12,0,0,1-.29-.36,13.15,13.15,0,0,1,1.36,1.16c.85.76,2.11,1.85,3.7,3.14,3.18,2.59,7.82,5.85,13,9.33a5,5,0,0,0,4.2.43,22,22,0,0,0,3.88-1.61,34.86,34.86,0,0,0,9.81-6.85A16.51,16.51,0,0,1,353.52,149.59Z" style="fill:#263238"></path><path d="M256.68,174a4.57,4.57,0,0,1,.9.67l2.36,1.93c2,1.64,4.75,3.88,7.87,6.26s6,4.46,8.12,5.94l2.49,1.76a4.8,4.8,0,0,1,.88.7,4.68,4.68,0,0,1-1-.53c-.63-.36-1.51-.92-2.59-1.62-2.16-1.41-5.1-3.44-8.23-5.83s-5.86-4.68-7.79-6.4c-1-.85-1.74-1.56-2.25-2.06S256.65,174,256.68,174Z" style="fill:#263238"></path><path d="M264.22,170.74c-.07,0-.34-.46-.72-1.26a22,22,0,0,1-1.23-3.27,10.62,10.62,0,0,1-.42-3.49,3.09,3.09,0,0,1,.31-1.43,21.47,21.47,0,0,0,.61,4.78C263.52,168.63,264.39,170.67,264.22,170.74Z" style="fill:#263238"></path><path d="M261.81,161c-.85,2.28-1.43,4.34-2.11,6.68" style="fill:#455a64"></path><g style="opacity:0.30000000000000004"><path d="M289.36,146.42A38.28,38.28,0,0,0,301.85,158a115.42,115.42,0,0,0,15.46,7.4,63.43,63.43,0,0,0,8.93,3.22c2.28.58,4.62.9,6.91,1.42,3.5.81,6.87,2.1,10.4,2.76s7.34.64,10.5-1.05c1-.55,2-1.44,2-2.59-1.14-.92-2.8-.59-4.26-.74-3.5-.33-6.05-3.48-9.36-4.66a19.85,19.85,0,0,0-4.92-.81A149.14,149.14,0,0,1,320.37,160a77.85,77.85,0,0,1-10.32-2.69,65.64,65.64,0,0,1-8.38-3.9,98.93,98.93,0,0,1-12.26-7.49"></path></g><path d="M345.78,164.36c-1.91,1.94-4.91,2.2-7.62,2.19a72.37,72.37,0,0,1-47.7-18.37c-4.38-4-9.68-9.43-9.33-15.31a7.88,7.88,0,0,1,5.25-6.62c-1.35,1.83-1,4.34.53,7.5,0,0,7.23,9.53,16.22,15,5.81,3.56,12.47,5.46,18.69,8.23,0,0,16.53,5.15,22,4.08Z" style="fill:#455a64"></path><path d="M258.8,160.1a16.19,16.19,0,0,0-.83,10.81A36.59,36.59,0,0,0,262.52,181a49.22,49.22,0,0,0,8.24,10.67,65.72,65.72,0,0,0,9.95,7.21,73.33,73.33,0,0,0,11.1,6.15,35.73,35.73,0,0,0,12.06,2.2s-24.92-16-32-23.33c-11-11.38-9.74-22.65-9.74-22.65l-1.83-2Z" style="fill:#455a64"></path><path d="M358.48,155.83a11.16,11.16,0,0,1-1.89,1.93,42.72,42.72,0,0,1-10.9,7,11.64,11.64,0,0,1-2.53.92,16.89,16.89,0,0,1,2.37-1.26,59.86,59.86,0,0,0,5.6-3.2,61,61,0,0,0,5.22-3.77A17.69,17.69,0,0,1,358.48,155.83Z" style="fill:#263238"></path><path d="M377.42,168.72a12,12,0,0,0,.79-2.71,9.32,9.32,0,0,0-.11-3.29,15.87,15.87,0,0,0-1.56-4.09,32.52,32.52,0,0,0-6.9-9.08,26.16,26.16,0,0,0-12.59-5.74,81.84,81.84,0,0,0-14-1c-4.35-.05-8.27-.25-11.54-.5s-5.93-.56-7.76-.79c-.91-.12-1.61-.22-2.09-.3a3.75,3.75,0,0,1-.73-.15,5.82,5.82,0,0,1,.74,0l2.11.2c1.83.18,4.47.42,7.75.63s7.18.36,11.53.39a80.27,80.27,0,0,1,14.13,1A26.29,26.29,0,0,1,370,149.19a32.41,32.41,0,0,1,6.91,9.27,15.53,15.53,0,0,1,1.51,4.2,9.15,9.15,0,0,1,0,3.38,8.32,8.32,0,0,1-.63,2c-.1.23-.19.39-.25.5S377.43,168.73,377.42,168.72Z" style="fill:#263238"></path><path d="M376.69,135.65a5.23,5.23,0,0,1-.39,2.28,15.41,15.41,0,0,1-3,4.74,29,29,0,0,1-4.24,3.61,10.17,10.17,0,0,1-1.94,1.25,10.62,10.62,0,0,1,1.71-1.54,41.06,41.06,0,0,0,4.08-3.67,17.72,17.72,0,0,0,3-4.52C376.48,136.51,376.6,135.63,376.69,135.65Z" style="fill:#263238"></path><path d="M386.51,145.57a4.87,4.87,0,0,1-.87,2.14,12.81,12.81,0,0,1-4,3.9,28.42,28.42,0,0,1-2.66,1.54,21.17,21.17,0,0,1-2.27,1.07,3.65,3.65,0,0,1-2.29.32,11.68,11.68,0,0,0,2.15-.66c.63-.28,1.36-.7,2.18-1.15s1.71-1,2.6-1.55a14.64,14.64,0,0,0,4-3.67C386.14,146.37,386.43,145.54,386.51,145.57Z" style="fill:#263238"></path><path d="M300.78,196.88a9.51,9.51,0,0,1-.57-1.37c-.34-.89-.82-2.18-1.39-3.78-1.13-3.21-2.65-7.66-4.24-12.6s-3-9.45-3.91-12.72c-.48-1.63-.85-3-1.09-3.88a8,8,0,0,1-.33-1.44,7.22,7.22,0,0,1,.52,1.38c.33,1,.75,2.29,1.25,3.84,1.07,3.33,2.48,7.76,4.05,12.66s3,9.31,4.1,12.64c.5,1.55.91,2.84,1.23,3.84A7.19,7.19,0,0,1,300.78,196.88Z" style="fill:#fff"></path><path d="M307.94,203a12.18,12.18,0,0,1-.53-1.58c-.33-1.11-.76-2.57-1.29-4.33-1.09-3.66-2.65-8.7-4.52-14.22s-3.7-10.46-5.06-14l-1.6-4.23a9.38,9.38,0,0,1-.54-1.57,9.94,9.94,0,0,1,.72,1.49c.44,1,1,2.4,1.77,4.17,1.44,3.54,3.33,8.48,5.2,14s3.38,10.6,4.38,14.28c.51,1.85.89,3.35,1.14,4.39A8.9,8.9,0,0,1,307.94,203Z" style="fill:#fff"></path><path d="M317.87,179.89a7.18,7.18,0,0,1-1.31.19c-.85.09-2.08.19-3.6.28-3,.18-7.26.29-11.91.12s-8.85-.58-11.87-1c-1.51-.2-2.73-.38-3.57-.54a6.08,6.08,0,0,1-1.3-.29,7.29,7.29,0,0,1,1.33.09l3.58.38c3,.31,7.21.66,11.85.83s8.83.12,11.87,0l3.6-.11A6,6,0,0,1,317.87,179.89Z" style="fill:#fff"></path><path d="M317.21,185.13a5.21,5.21,0,0,1-1.23.18c-.79.08-1.94.17-3.37.27-2.84.18-6.78.35-11.14.38s-8.3-.08-11.15-.22c-1.42-.08-2.57-.15-3.37-.22a6.38,6.38,0,0,1-1.23-.16,5.22,5.22,0,0,1,1.24,0l3.38.05c2.85,0,6.78.1,11.13.07s8.28-.14,11.13-.23l3.37-.1A6.27,6.27,0,0,1,317.21,185.13Z" style="fill:#fff"></path><path d="M592.62,152.69c0,.15-16.77.26-37.46.26s-37.46-.11-37.46-.26,16.77-.26,37.46-.26S592.62,152.55,592.62,152.69Z" style="fill:#263238"></path><path d="M574.28,147.93c0,.14-16.77.26-37.46.26s-37.46-.12-37.46-.26,16.77-.26,37.46-.26S574.28,147.78,574.28,147.93Z" style="fill:#263238"></path><path d="M288.85,126.25a49.13,49.13,0,0,1,19.09-5.14c10.82-.57,85.85-6.67,85.85-6.67l2.13,13.35-39.86,8.14-45.1,9Z" style="fill:#18DBAC"></path></g><g id="freepik--character-1--inject-315"><path d="M214.87,423.33a10.69,10.69,0,0,1-1.65.15c-1.06.07-2.59.13-4.49.19-3.79.13-9,.2-14.83.11s-11-.33-14.82-.57c-1.89-.12-3.42-.23-4.48-.33a11.9,11.9,0,0,1-1.64-.2,8.73,8.73,0,0,1,1.65,0l4.49.17c3.79.14,9,.32,14.81.41s11,.07,14.82,0l4.49,0A9.71,9.71,0,0,1,214.87,423.33Z" style="fill:#263238"></path><path d="M226.7,414.3c0,.15-18.86.26-42.12.26s-42.13-.11-42.13-.26,18.86-.26,42.13-.26S226.7,414.16,226.7,414.3Z" style="fill:#263238"></path><path d="M146.36,217.64a.91.91,0,0,1,.27-.08,2.12,2.12,0,0,1,.81,0,3.11,3.11,0,0,1,2.23,2.06,3.88,3.88,0,0,1-1.92,4.3,6.81,6.81,0,0,1-6.38-.14,9.07,9.07,0,0,1-3-2.35c-.87-1-1.6-2.17-2.5-3.23a11.42,11.42,0,0,0-7.68-3.93,20,20,0,0,0-9.61,1.61c-1.6.62-3.14,1.44-4.78,2.18a11.59,11.59,0,0,1-5.36,1.26,6.52,6.52,0,0,1-2.7-.81,10.09,10.09,0,0,1-2.18-1.69c-1.29-1.27-2.37-2.67-3.63-3.8a9.06,9.06,0,0,0-2-1.43,7.4,7.4,0,0,0-2.33-.67,12.77,12.77,0,0,0-4.74.44c-3,.83-5.75,2.25-8.58,2.78a16.28,16.28,0,0,1-7.84-.72,26.91,26.91,0,0,0-6.32-1.22,22,22,0,0,0-4.84.3,20.86,20.86,0,0,0-3,.75,8.86,8.86,0,0,1-1,.32,15.92,15.92,0,0,1,4-1.27,21.3,21.3,0,0,1,4.9-.39,26.59,26.59,0,0,1,6.4,1.16c2.3.6,4.91,1.26,7.65.64s5.45-1.95,8.55-2.81a13.2,13.2,0,0,1,4.92-.48,8,8,0,0,1,2.49.72,9.39,9.39,0,0,1,2.16,1.5c1.31,1.17,2.39,2.58,3.65,3.81a7.17,7.17,0,0,0,4.56,2.35,11,11,0,0,0,5.1-1.22c1.62-.72,3.19-1.55,4.82-2.17a20.19,20.19,0,0,1,9.85-1.61,11.87,11.87,0,0,1,8,4.12c.91,1.1,1.63,2.27,2.47,3.25a8.82,8.82,0,0,0,2.86,2.28,6.54,6.54,0,0,0,6.08.22,3.66,3.66,0,0,0,1.87-4,3,3,0,0,0-2.06-2A2.87,2.87,0,0,0,146.36,217.64Z" style="fill:#263238"></path><path d="M159.06,246.55a8,8,0,0,1-1.73-2.21c-.67-1.69.36-3.53.56-5.33a6.11,6.11,0,0,0-6.3-6.47,12.63,12.63,0,0,0,4-7.42,15.09,15.09,0,0,1-16-3.11c-1.93-1.91-3.38-4.39-5.73-5.73-3.58-2-8.08-.87-11.94.57s-8,3.13-12,2c-5.36-1.57-8.29-7.82-13.62-9.47a12.3,12.3,0,0,0-6.26-.06,7,7,0,0,0-3.28.72,9.06,9.06,0,0,0-1.38,0c-2.2.2-4.38,1-6.57.68-1.94-.24-3.68-1.27-5.53-1.9a14,14,0,0,0-9.87.5,5.37,5.37,0,0,0-1.31.66,12.91,12.91,0,0,0-2.27,1.63,13.86,13.86,0,0,0-4.16,13.08,10,10,0,0,0,.39,1.32l0,0c.05.08.08.17.12.25.12.29.23.58.36.87a11.06,11.06,0,0,1-.3,6c-.63,2.36-1.38,4.88-.6,7.19,1.37,4.1,6.9,5.77,8,9.94.61,2.24-.23,4.7.51,6.9s2.75,3.53,4.83,4.38c1.15.47,2.34.82,3.52,1.21,5.05,5.43,9.6-2.59,14.82,7.41.87,1.65-1.67,7.48-.28,8.73,2.87,2.6,7.3,2.73,11,1.45s6.74-3.75,9.89-6a5,5,0,0,1,2.89-1.22,6.34,6.34,0,0,1,2.34.81,14.83,14.83,0,0,0,14.58-1.21c4.73-3.31,7.85-9.56,13.58-10.24,3.33-.4,6.57,1.3,9.92,1.38a10.31,10.31,0,0,0,7.88-17.24Z" style="fill:#263238"></path><path d="M226.06,400.57c3.94.75,7.55-2.14,10.47-4.87,7.26-6.78,14.76-14.86,15-24.79.13-5.08-1.71-10.11-1.14-15.16.64-5.53,4.07-10.32,7.7-14.54s7.63-8.31,9.83-13.43,3.53-10.36-.46-14.25l-26.8,3.81-21.12,35.27-7.69,28Z" style="fill:#455a64"></path><g style="opacity:0.30000000000000004"><path d="M226.06,400.57c3.94.75,7.55-2.14,10.47-4.87,7.26-6.78,14.76-14.86,15-24.79.13-5.08-1.71-10.11-1.14-15.16.64-5.53,4.07-10.32,7.7-14.54s7.63-8.31,9.83-13.43,3.53-10.36-.46-14.25l-26.8,3.81-21.12,35.27-7.69,28Z"></path></g><path d="M125.07,249.6s-12.75,4.83-10.87,11.88,13.84.57,16.43,0,5.82,1,5.46,3.62a21.92,21.92,0,0,1-1.35,5s28.92,2.82,30,3.05,4.39-1.67,7.22-1,7.29-1.14,6.88-3.19a13,13,0,0,0-5.22-8.06C170.05,258.39,137.53,249.44,125.07,249.6Z" style="fill:#e0e0e0"></path><path d="M171.36,265.39a3.1,3.1,0,1,1-3.65-2.43A3.1,3.1,0,0,1,171.36,265.39Z" style="fill:#e0e0e0"></path><path d="M171.36,265.39a6.77,6.77,0,0,1-.34-.68,3,3,0,0,0-1.43-1.33,3,3,0,0,0-2.76.18,2.87,2.87,0,0,0,1.07,5.27,3,3,0,0,0,2.61-.91,3,3,0,0,0,.8-1.78,6.91,6.91,0,0,1,.05-.75s.14.25.16.76a3.09,3.09,0,0,1-.73,2,3.26,3.26,0,0,1-3,1.14,3.33,3.33,0,0,1-1.25-6.15,3.26,3.26,0,0,1,3.17-.1,3.08,3.08,0,0,1,1.46,1.57C171.39,265.1,171.39,265.38,171.36,265.39Z" style="fill:#263238"></path><path d="M224.84,352.93c1.07.11,28.31,23.6,28.31,23.6l37.07-25.45,9.69,9.82-39.64,37.81a12.08,12.08,0,0,1-13.76,2.05l-38.44-19.33Z" style="fill:#ffbe9d"></path><path d="M255.28,387.42a11.55,11.55,0,0,0,.12-5.77,11.3,11.3,0,0,0-2.22-5.32,42.91,42.91,0,0,1,1.67,5.43A45.53,45.53,0,0,1,255.28,387.42Z" style="fill:#eb996e"></path><path d="M292.79,368.76l12.6-11.46s15.88,9,18.41,7.08l-21.33-25.24-20.37,17Z" style="fill:#18DBAC"></path><path d="M297.7,350.42a1.34,1.34,0,0,1,.57-1.7,1.29,1.29,0,0,1,1.7.55,1.42,1.42,0,0,1-.62,1.8,1.34,1.34,0,0,1-1.7-.77" style="fill:#e0e0e0"></path><path d="M302.47,339.14l-2,1.8,21.2,23.52s1.44.71,2.12-.08Z" style="fill:#263238"></path><path d="M305.61,357.82c.12-.11-.35-.77-.46-1.71s.12-1.71,0-1.78-.7.72-.54,1.85S305.52,357.94,305.61,357.82Z" style="fill:#263238"></path><path d="M308.94,359.54c.14-.07-.1-.78.07-1.64s.62-1.45.51-1.57-.88.4-1.06,1.47S308.82,359.64,308.94,359.54Z" style="fill:#263238"></path><path d="M313.38,358.37c-.07-.14-.83.21-1.24,1.1s-.19,1.69,0,1.65.21-.69.55-1.42S313.47,358.5,313.38,358.37Z" style="fill:#263238"></path><path d="M302.45,360.11c.06-.14-.58-.57-1.12-1.3s-.79-1.47-.95-1.44-.15.92.5,1.77S302.4,360.25,302.45,360.11Z" style="fill:#263238"></path><polygon points="83.03 314.51 102.84 346.44 100.53 386.85 111.18 387.08 119.22 342.21 98.78 304.7 83.03 314.51" style="fill:#ffbe9d"></polygon><path d="M109.38,382.84c-.15.4,2.24,3.48,2.1,6.5s-3.84,8.19-3.84,8.19a33.6,33.6,0,0,0,1.94,6.88s3.75-.65,4.35.38a2.31,2.31,0,0,1,0,2.79c-.65.91-3.58,2.3-5.2,2.89s-5.89-1.22-5.89-1.22l-4-8.36,1.8-17.67Z" style="fill:#ffbe9d"></path><path d="M104.5,392.19a4.39,4.39,0,0,0-.3,1.12c-.15.73-.36,1.79-.58,3.1s-.48,2.87-.64,4.64a3,3,0,0,0,.11,1.46,1.23,1.23,0,0,0,.61.62,1.59,1.59,0,0,0,.83.12,2,2,0,0,0,1.41-.84,2.15,2.15,0,0,0,.34-.76l.22-.71a25.93,25.93,0,0,1,2.34-5.14,22.19,22.19,0,0,0,2.19-4.16,7.16,7.16,0,0,0,.53-3.14,3.71,3.71,0,0,0-.18-.85,1.23,1.23,0,0,0-.1-.28c-.07,0,0,.43.07,1.15a7.6,7.6,0,0,1-.69,3,23.55,23.55,0,0,1-2.26,4,25,25,0,0,0-2.43,5.23c-.08.25-.15.49-.22.74a2.11,2.11,0,0,1-.26.59,1.43,1.43,0,0,1-1,.62.83.83,0,0,1-.91-.42,2.75,2.75,0,0,1-.08-1.2c.13-1.74.35-3.31.52-4.62s.29-2.26.4-3.12A5.55,5.55,0,0,0,104.5,392.19Z" style="fill:#eb996e"></path><path d="M104.77,402.93a4.6,4.6,0,0,0,.55,1.5c.21.45.43.95.75,1.56a1.41,1.41,0,0,0,.94.71,3.55,3.55,0,0,0,1.17,0,3.59,3.59,0,0,1,1.91.24,1.63,1.63,0,0,1,.94,1.1,1.77,1.77,0,0,1-.26,1.38s.18,0,.37-.25a1.54,1.54,0,0,0,.28-1.21,2,2,0,0,0-1.1-1.48,3.85,3.85,0,0,0-2.19-.33c-.75.09-1.35.06-1.62-.45l-.84-1.48C105.18,403.4,104.84,402.9,104.77,402.93Z" style="fill:#eb996e"></path><path d="M111.88,409.2s.17-.1.39-.36a3.75,3.75,0,0,0,.72-1.28,2.31,2.31,0,0,0,.07-1.06,1.81,1.81,0,0,0-.65-1.08,3.17,3.17,0,0,0-2.66-.51,10.5,10.5,0,0,1-1.26.22.9.9,0,0,1-.83-.43,7.36,7.36,0,0,1-.84-1.83c-.34-1.11-.34-1.86-.43-1.86a3.69,3.69,0,0,0,0,2,6.71,6.71,0,0,0,.8,2,1.43,1.43,0,0,0,1.25.69,10.18,10.18,0,0,0,1.36-.22,2.74,2.74,0,0,1,2.24.35,1.59,1.59,0,0,1,.52,1.65,4.74,4.74,0,0,1-.52,1.25C111.93,409,111.85,409.18,111.88,409.2Z" style="fill:#eb996e"></path><path d="M234.16,318.94s40.67,8.61,42.25,8.86c4.12.64,49.08,9.83,49.08,9.83l2.13,14.93-90.81-4.36Z" style="fill:#ffbe9d"></path><path d="M323.69,337.24l22.3,4.22,19.57-3.83a2.37,2.37,0,0,1,2.61,2.29h0a2.94,2.94,0,0,1-1.32,2.05c-3.9,3-18.75,13.51-18.75,13.51-1.92-.46-25.16-3-25.16-3Z" style="fill:#18DBAC"></path><path d="M103.17,257.65s11.86-8.38,18.43-9.11,28,4.55,28,4.55l-6.06,20.43,13.35,18.68a4.68,4.68,0,0,1,.56,4.42h0l-35.2,33.22h-.69a4.67,4.67,0,0,1-3.24-1.2L101,313l-18.26,8.65S75,300.24,74.41,294.33c-.89-9,13.5-24.92,13.5-24.92Z" style="fill:#18DBAC"></path><path d="M242.19,311c-23.32,2.95-54.91-11.93-63.53-12.8-5.81-.59-21.61-1.12-21.61-1.12l-34.77,32.81s25.4,26.87,42,41.08c23.66,20.29,57,30.36,64.55,30.66,6,.23,5.75-27,9.07-36,0,0,15.45-53.7,30.67-50.78C268.53,314.84,266.17,307.92,242.19,311Z" style="fill:#455a64"></path><path d="M136.15,261.46c-.13.11,2,2.7,4.16,6.21s3.5,6.59,3.65,6.52a7.33,7.33,0,0,0-.72-2.09,37.18,37.18,0,0,0-2.46-4.72,38.15,38.15,0,0,0-3.09-4.33A7.35,7.35,0,0,0,136.15,261.46Z" style="fill:#263238"></path><g style="opacity:0.30000000000000004"><path d="M89.87,298.94a32.7,32.7,0,0,0,.94,7.12,11.17,11.17,0,0,0,3.78,6,6.81,6.81,0,0,0,6.78,1c-4.13-4.39-8.78-8.88-11.29-14.23"></path></g><path d="M107.08,265.5a6.71,6.71,0,0,0-.18-5L88.16,218.61h0a3.7,3.7,0,0,0-4.63-1.87l-19.75,4.37c-5.91,2.22-6.18,11-3.71,16.81,2.75,6.46,6.35,14.23,9.44,18.53,6.2,8.64,14,6.23,14,6.23s.9,1.84,5.24,10.14c0,0,5,5.21,11.09,2.11C103.79,272.93,106,268.44,107.08,265.5Z" style="fill:#ffbe9d"></path><path d="M67.31,242.14a1.35,1.35,0,0,0,1.77.63,1.29,1.29,0,0,0,.7-1.71,1.34,1.34,0,0,0-1.77-.63A1.29,1.29,0,0,0,67.31,242.14Z" style="fill:#263238"></path><path d="M64,240.52c.23.08.8-1.05,2.1-1.7s2.57-.47,2.63-.7-.26-.32-.82-.41a3.67,3.67,0,0,0-2.21.37,3.59,3.59,0,0,0-1.57,1.55C63.87,240.13,63.87,240.48,64,240.52Z" style="fill:#263238"></path><path d="M80.24,236.92a1.34,1.34,0,0,0,1.77.63,1.29,1.29,0,0,0,.7-1.71,1.35,1.35,0,0,0-1.77-.63A1.3,1.3,0,0,0,80.24,236.92Z" style="fill:#263238"></path><path d="M77.19,235.3c.23.08.81-1.05,2.1-1.7s2.58-.47,2.64-.7-.26-.31-.83-.41a3.83,3.83,0,0,0-2.21.37,3.59,3.59,0,0,0-1.57,1.55C77.08,234.92,77.08,235.27,77.19,235.3Z" style="fill:#263238"></path><path d="M76.71,246.89a10.06,10.06,0,0,0-2.3.68c-.35.13-.69.22-.86,0a1.87,1.87,0,0,1-.27-1.1c-.09-.95-.19-2-.29-3-.44-4.27-.93-7.71-1.11-7.69s.05,3.5.49,7.76c.12,1.05.23,2.05.34,3a2.1,2.1,0,0,0,.48,1.38.93.93,0,0,0,.78.22,3,3,0,0,0,.6-.21A9.41,9.41,0,0,0,76.71,246.89Z" style="fill:#263238"></path><path d="M83.5,262.68A26.7,26.7,0,0,0,94.4,253s.06,8-9.78,11.88Z" style="fill:#eb996e"></path><path d="M73.91,230.73c.3.29,1.51-.53,3.13-1.11s3-.78,3.09-1.2c0-.19-.37-.42-1-.51a5.68,5.68,0,0,0-2.58.33,5.45,5.45,0,0,0-2.16,1.43C73.91,230.17,73.77,230.59,73.91,230.73Z" style="fill:#263238"></path><path d="M62,237.35c.38.18,1.12-.57,2.19-1.12s2.08-.8,2.13-1.21c0-.2-.27-.42-.81-.5A3.56,3.56,0,0,0,62,236.4C61.79,236.89,61.82,237.26,62,237.35Z" style="fill:#263238"></path><path d="M89.3,215.21c-1.59-.91-3.54-.78-5.36-.58a99.33,99.33,0,0,0-23,5.36c-.13,1.87,1.68,3.4,3.53,3.76s3.73-.1,5.6-.32,3.93-.16,5.37,1,2,3.52,3.43,4.87c2.52,2.34,7,1.19,9.52,3.54,1.9,1.78,1.84,4.75,2.71,7.2a9.28,9.28,0,0,0,13,5.19q-5.7-12.74-11.39-25.46C91.88,218.05,91,216.16,89.3,215.21Z" style="fill:#263238"></path><path d="M78.13,251.22a7.41,7.41,0,0,0,1.61,1.18,2.37,2.37,0,0,0,1.93.11,2.13,2.13,0,0,0,1.15-1.67,3.34,3.34,0,0,0-.47-2c-.31-.56-.92-1.11-1.52-.89a1.55,1.55,0,0,0-.61.5l-2.37,2.72" style="fill:#eb996e"></path><path d="M80.56,253.08c0-.11.76-.17,1.5-1a2.61,2.61,0,0,0,.65-1.7,2.66,2.66,0,0,0-.95-2,2.86,2.86,0,0,0-.48-.32c-.18-.06-.16-.07-.28,0s-.25.29-.38.43l-.39.45c-.51.58-1,1.1-1.37,1.53-.79.85-1.31,1.36-1.38,1.31a6.17,6.17,0,0,1,1.06-1.59c.35-.46.78-1,1.27-1.6l.37-.46a5.57,5.57,0,0,1,.43-.5.76.76,0,0,1,.45-.21.88.88,0,0,1,.46.09,2.36,2.36,0,0,1,.62.4,3.11,3.11,0,0,1,1.12,2.43,2.85,2.85,0,0,1-.9,2,2.67,2.67,0,0,1-1.27.7C80.76,253.14,80.57,253.11,80.56,253.08Z" style="fill:#263238"></path><path d="M173.93,260.88c-.33.14-2.69,1.07-.18,3.57a13.13,13.13,0,0,0,4.34,3.11l-1.87,6.62,38.91,13.51,2.83-9-36.29-17.45-.33,1S175.41,260.27,173.93,260.88Z" style="fill:#ffbe9d"></path><path d="M178.85,263.71a1.25,1.25,0,1,1-1.48-1A1.25,1.25,0,0,1,178.85,263.71Z" style="fill:#eb996e"></path><path d="M170.39,268.51a9,9,0,0,1-1.92-2.37,9.42,9.42,0,0,1-1.49-2.67,18.17,18.17,0,0,1,3.41,5Z" style="fill:#263238"></path><path d="M214.82,287.58a7.25,7.25,0,0,1,2.69,2.63c.71,1.54,2.21,5.34,3.35,6.14s9.15,4.43,9.15,4.43,1.42,0,.18-2.1-5.56-4.44-5.56-4.44,5,.64,6,1.47a15.51,15.51,0,0,0,2.06,1.44s1.58,2.13,2.35,2.09,1.61.4,1.58-.57a6.45,6.45,0,0,0-.44-1.95s1.14.08,1.07-.93-.54-3.3-.54-3.3.83.54,1.07-.22a4.55,4.55,0,0,0-.21-2.51c-.18-.2-1.24-2.15-1.24-2.15s1.15,0,1-.64-1.88-2.58-2.11-2.84-1.56-2.41-3.89-2.72S218,278.67,218,278.67Z" style="fill:#ffbe9d"></path><path d="M228.45,290.46a4.6,4.6,0,0,1,1.47.49,17.17,17.17,0,0,1,3.3,1.8,9.23,9.23,0,0,1,2.6,2.74,2.92,2.92,0,0,1,.55,1.46,14.32,14.32,0,0,1-.86-1.26,11.55,11.55,0,0,0-2.59-2.52,29.25,29.25,0,0,0-3.16-1.89C228.93,290.83,228.42,290.53,228.45,290.46Z" style="fill:#eb996e"></path><path d="M228.76,287.44a3.67,3.67,0,0,1,1.48.26,13.19,13.19,0,0,1,3.34,1.42,7.69,7.69,0,0,1,2.64,2.54,2.76,2.76,0,0,1,.56,1.4,10.59,10.59,0,0,1-.86-1.2,9.34,9.34,0,0,0-2.61-2.29C230.94,288.17,228.7,287.62,228.76,287.44Z" style="fill:#eb996e"></path><path d="M229.46,284.16a3.67,3.67,0,0,1,1.48.26,13.77,13.77,0,0,1,3.35,1.42,7.83,7.83,0,0,1,2.63,2.54,3,3,0,0,1,.57,1.4c-.08,0-.33-.48-.87-1.2a9.5,9.5,0,0,0-2.61-2.29C231.64,284.89,229.4,284.34,229.46,284.16Z" style="fill:#eb996e"></path><path d="M150.92,359.22a2.83,2.83,0,0,1-.23-.63c-.12-.42-.3-1-.5-1.84a27,27,0,0,1-.59-3,14.88,14.88,0,0,1,0-4,10.55,10.55,0,0,1,.6-2.28,13.55,13.55,0,0,1,1.19-2.25c1-1.47,2.11-2.91,3.07-4.6a33.1,33.1,0,0,0,4.11-11.83,32.65,32.65,0,0,0,.28-6.51c-.11-2.11-.45-4.13-.69-6.07a32.52,32.52,0,0,1-.3-5.57,25.42,25.42,0,0,1,.69-4.81,25,25,0,0,1,2.56-6.52c.41-.73.77-1.26,1-1.62a2.67,2.67,0,0,1,.41-.52,4.09,4.09,0,0,1-.32.58c-.23.37-.55.92-.93,1.65a26.59,26.59,0,0,0-2.38,6.51,25.91,25.91,0,0,0-.62,4.75,32,32,0,0,0,.35,5.49c.25,1.93.6,4,.72,6.1a32.88,32.88,0,0,1-.27,6.61,33.24,33.24,0,0,1-4.22,12c-1,1.71-2.16,3.18-3.12,4.6a12.74,12.74,0,0,0-1.18,2.16,10.68,10.68,0,0,0-.6,2.19,14.89,14.89,0,0,0-.05,3.93c.13,1.15.33,2.14.49,2.95s.31,1.38.42,1.85A5,5,0,0,1,150.92,359.22Z" style="fill:#fff"></path><path d="M183.63,299.37a6,6,0,0,0-.79,0,4.12,4.12,0,0,0-2,1,22,22,0,0,0-5,6.69,17.25,17.25,0,0,0-1.62,5.51,20.53,20.53,0,0,0,.49,6.58c.48,2.29,1.22,4.66,1.79,7.18a28.17,28.17,0,0,1,.74,7.95A20.83,20.83,0,0,1,175.4,342a30.69,30.69,0,0,1-4.24,6.1,16.86,16.86,0,0,0-3.13,5.79,39.55,39.55,0,0,0-1.24,5.66c-.56,3.49-1,6.32-1.35,8.35-.16.94-.29,1.7-.39,2.26a4.07,4.07,0,0,1-.17.79,4.7,4.7,0,0,1,.07-.8c.07-.57.17-1.33.29-2.28.29-2,.69-4.88,1.19-8.37a37,37,0,0,1,1.19-5.74,17.39,17.39,0,0,1,1.23-3.05,19.74,19.74,0,0,1,1.93-2.9,31,31,0,0,0,4.16-6,20.34,20.34,0,0,0,1.82-7.59,28,28,0,0,0-.72-7.81c-.56-2.49-1.28-4.87-1.76-7.19a21,21,0,0,1-.45-6.73,17.72,17.72,0,0,1,1.72-5.62,21.28,21.28,0,0,1,5.17-6.69,3.9,3.9,0,0,1,2.11-.93A1.62,1.62,0,0,1,183.63,299.37Z" style="fill:#fff"></path><path d="M186,385.44a1,1,0,0,1-.76-.41,4,4,0,0,1-.6-2.41,48,48,0,0,1,.38-9.13,51.14,51.14,0,0,1,3.65-13.06c1.91-4.72,4.56-9.72,5.86-15.43a25.75,25.75,0,0,0,.44-8.45c-.28-2.74-.82-5.36-1.21-7.88a47,47,0,0,1-.64-13.54,22.48,22.48,0,0,1,2.82-8.67,16.5,16.5,0,0,1,1.42-2,6.56,6.56,0,0,1,.58-.64,5,5,0,0,1-.5.7,20.8,20.8,0,0,0-1.32,2.09,23.17,23.17,0,0,0-2.64,8.62,48.06,48.06,0,0,0,.75,13.41c.41,2.51,1,5.13,1.25,7.91a26.25,26.25,0,0,1-.44,8.62c-1.32,5.8-4,10.81-5.93,15.5a51.37,51.37,0,0,0-4.27,22,4,4,0,0,0,.48,2.35A1.35,1.35,0,0,0,186,385.44Z" style="fill:#fff"></path><path d="M225.46,311.65a9.89,9.89,0,0,0-2.66,2.14,11.12,11.12,0,0,0-2,3.45,16.63,16.63,0,0,0-.9,5.2c-.15,4,.73,8.62,1.21,13.86a30.08,30.08,0,0,1-.28,8.27,30.7,30.7,0,0,1-3,8.35c-2.8,5.42-6.25,10.08-8.53,14.79a53.41,53.41,0,0,0-4.14,13.21c-.39,1.95-.78,3.7-1,5.26a16.36,16.36,0,0,0-.13,4,10.68,10.68,0,0,0,.92,3.28s-.05-.06-.13-.19a5.12,5.12,0,0,1-.3-.59,8.61,8.61,0,0,1-.69-2.48,16.32,16.32,0,0,1,0-4.06c.19-1.58.55-3.34.92-5.29a52,52,0,0,1,4.07-13.35c2.28-4.77,5.73-9.46,8.5-14.81a30.21,30.21,0,0,0,3-8.22,29.43,29.43,0,0,0,.31-8.13c-.44-5.21-1.29-9.9-1.1-13.91a17.24,17.24,0,0,1,1-5.3,11.15,11.15,0,0,1,2.11-3.47,8.35,8.35,0,0,1,2-1.63A4.65,4.65,0,0,1,225.46,311.65Z" style="fill:#fff"></path><path d="M250.11,310.94a12.06,12.06,0,0,0-3.53,1.35,15.54,15.54,0,0,0-6.3,7.92,24.41,24.41,0,0,0-1.51,6.94c-.24,2.56-.22,5.32-.25,8.23a55.62,55.62,0,0,1-.65,9.12c-.27,1.56-.53,3.14-.8,4.75s-.47,3.25-.69,4.91a52.65,52.65,0,0,1-2,9.61c-1,3-2.15,5.85-3.23,8.55-2.17,5.38-4.12,10.23-5.77,14.31l-3.94,9.64-1.09,2.61-.3.67a.82.82,0,0,1-.12.23,1,1,0,0,1,.07-.25c.07-.18.15-.41.25-.69l1-2.64,3.78-9.7c1.62-4.1,3.55-9,5.68-14.36,1.06-2.71,2.23-5.52,3.19-8.52a53.1,53.1,0,0,0,2-9.53c.23-1.66.44-3.3.7-4.92s.54-3.19.8-4.75a54.6,54.6,0,0,0,.68-9.05c0-2.9,0-5.67.3-8.26a24.56,24.56,0,0,1,1.6-7,15.51,15.51,0,0,1,6.54-8,11.8,11.8,0,0,1,1.49-.69c.46-.13.84-.27,1.16-.33l.73-.13Z" style="fill:#fff"></path><path d="M149.21,304.42a15.17,15.17,0,0,1-1,1.28,16.36,16.36,0,0,0-2.3,3.75,25.9,25.9,0,0,0-1.67,6.32c-.19,1.23-.39,2.51-.6,3.85s-.32,2.72-.53,4.15a14.71,14.71,0,0,1-3.06,7.51c-.73,1-1.46,1.94-2.09,2.84a24.39,24.39,0,0,0-1.57,2.61,25,25,0,0,0-1.67,4.09,15.25,15.25,0,0,1-.49,1.56,1.88,1.88,0,0,1,0-.42c.05-.28.13-.68.25-1.19a21.78,21.78,0,0,1,1.54-4.2,22.61,22.61,0,0,1,1.55-2.69c.62-.93,1.34-1.87,2-2.88a14.56,14.56,0,0,0,2.94-7.31c.18-1.42.36-2.81.54-4.15s.42-2.62.62-3.86a25.1,25.1,0,0,1,1.81-6.38,15.17,15.17,0,0,1,2.48-3.73,10.35,10.35,0,0,1,.85-.87A1.64,1.64,0,0,1,149.21,304.42Z" style="fill:#fff"></path><path d="M230.16,352.23a2.35,2.35,0,0,1-.61,0L227.8,352c-1.52-.19-3.71-.51-6.41-1-5.39-.89-12.81-2.35-20.89-4.45s-15.27-4.46-20.41-6.34c-2.57-.94-4.63-1.74-6.05-2.32l-1.62-.68a2.88,2.88,0,0,1-.55-.27,2.44,2.44,0,0,1,.59.17l1.66.59c1.43.53,3.51,1.27,6.09,2.16,5.16,1.79,12.35,4.08,20.42,6.18s15.45,3.62,20.83,4.6c2.68.49,4.86.87,6.37,1.12l1.73.3A4.22,4.22,0,0,1,230.16,352.23Z" style="fill:#263238"></path><path d="M156.84,297s-.09.14-.31.37l-1,1L152,301.84c-3.06,2.93-7.31,6.94-12,11.36l-6.66,6.2c-2.07,1.9-3.9,3.61-5.38,5.13s-2.7,2.71-3.58,3.51c-.43.41-.77.71-1,.91a1.67,1.67,0,0,1-.39.29,17.33,17.33,0,0,1,1.26-1.34l3.46-3.63c1.44-1.55,3.27-3.31,5.31-5.22l6.64-6.23c4.72-4.42,9-8.39,12.13-11.25l3.72-3.36,1-.9A2.13,2.13,0,0,1,156.84,297Z" style="fill:#263238"></path><path d="M128.42,324a2.68,2.68,0,0,1-1.39,0,7.76,7.76,0,0,1-5.36-3.83,2.74,2.74,0,0,1-.46-1.31,10.21,10.21,0,0,0,7.21,5.15Z" style="fill:#263238"></path><path d="M131.27,321.66a3.07,3.07,0,0,1-2.3-.81c-1.13-.83-1.58-1.91-1.45-2s.73.8,1.76,1.54S131.3,321.52,131.27,321.66Z" style="fill:#263238"></path><path d="M108.55,320.12a4.7,4.7,0,0,1-.9-.71l-2.32-2.08L102,314.2c-.64-.6-1.31-1.22-2-1.87s-1.37-1.37-2.08-2.09a34.75,34.75,0,0,1-3.35-4.59c-.93-1.42-1.79-2.72-2.53-3.86s-1.21-1.91-1.67-2.62a5,5,0,0,1-.55-1,5.2,5.2,0,0,1,.72.89c.49.69,1.09,1.54,1.81,2.54l2.62,3.79a38.15,38.15,0,0,0,3.34,4.51l2,2.07,2,1.89,3.31,3.21,2.2,2.2A5.17,5.17,0,0,1,108.55,320.12Z" style="fill:#263238"></path><path d="M155.44,239.07a3.29,3.29,0,0,1-1.15,0,6.27,6.27,0,0,1-3-1.31,15.34,15.34,0,0,1-3.41-4,15.24,15.24,0,0,0-4.61-5,16.36,16.36,0,0,0-7.81-2.42,30.06,30.06,0,0,0-9.44,1c-3.27.77-6.73,1.87-10.49,1.78a15.07,15.07,0,0,1-10.33-4.59,14.11,14.11,0,0,1-1.84-2.32c-.53-.82-1-1.67-1.46-2.48-.94-1.61-2-3.22-3.66-3.9s-3.46-.23-5.11.33A13.64,13.64,0,0,1,88,217.3a12.73,12.73,0,0,1-4.75-1.55,37.41,37.41,0,0,0-4.2-2,19.74,19.74,0,0,0-8.15-1.1,14.83,14.83,0,0,0-6.5,1.87,7.53,7.53,0,0,0-3.28,3.81,6,6,0,0,0-.31,3.2,10.52,10.52,0,0,0,.31,1.1,3.61,3.61,0,0,1-.41-1.08,5.83,5.83,0,0,1,.22-3.28,7.68,7.68,0,0,1,3.32-4,15,15,0,0,1,6.62-2,20.26,20.26,0,0,1,8.33,1.06,35.11,35.11,0,0,1,4.25,2A12.39,12.39,0,0,0,88,216.82a13.17,13.17,0,0,0,5-1.08,14,14,0,0,1,2.64-.66,5.52,5.52,0,0,1,2.81.33,6.38,6.38,0,0,1,2.3,1.75,16.81,16.81,0,0,1,1.62,2.37,21.06,21.06,0,0,0,3.22,4.7,14.6,14.6,0,0,0,10,4.44c3.65.1,7.08-1,10.37-1.74a30.21,30.21,0,0,1,9.59-.93,16.77,16.77,0,0,1,8,2.54,15.66,15.66,0,0,1,4.64,5.12,15.56,15.56,0,0,0,3.3,4A6.5,6.5,0,0,0,154.3,239C155,239.1,155.44,239,155.44,239.07Z" style="fill:#455a64"></path><path d="M344.37,355,368,339s.74,1.9-.71,2.89l-19.14,13.6Z" style="fill:#263238"></path><path d="M298.81,362.68a3,3,0,0,1,.44.75,5.79,5.79,0,0,1,.73,2.3,2.68,2.68,0,0,1-.41,1.71.87.87,0,0,1-1.07.3,1.58,1.58,0,0,1-.71-.87,4.5,4.5,0,0,1,.81-4.35l.38.35a2,2,0,0,1-.69.41,8.54,8.54,0,0,1-2.45.33c-.4,0-.78,0-1.16-.05a2.22,2.22,0,0,1-1.15-.42,1,1,0,0,1-.27-1.21,1.85,1.85,0,0,1,.74-.82,2.55,2.55,0,0,1,1.84-.27,4.81,4.81,0,0,1,2.3,1.17c.46.4.69.64.67.67a3.42,3.42,0,0,1-.79-.5,5.14,5.14,0,0,0-2.25-1,2.26,2.26,0,0,0-1.55.28c-.46.27-.83,1-.38,1.3a3.68,3.68,0,0,0,2,.32,8.26,8.26,0,0,0,2.28-.31,1.65,1.65,0,0,0,.52-.3l.38.34a4.11,4.11,0,0,0-.78,3.86,1.18,1.18,0,0,0,.46.65.45.45,0,0,0,.55-.17,2.34,2.34,0,0,0,.38-1.43,6.45,6.45,0,0,0-.55-2.23A2.55,2.55,0,0,1,298.81,362.68Z" style="fill:#263238"></path><path d="M341.62,346.12a13.37,13.37,0,0,1,1.05-5.15,6.9,6.9,0,0,1-.27,2.63A6.69,6.69,0,0,1,341.62,346.12Z" style="fill:#263238"></path><path d="M347.71,345.67a5,5,0,0,1-.36-2.23,5.06,5.06,0,0,1,.17-2.26,5.09,5.09,0,0,1,.35,2.23A5.21,5.21,0,0,1,347.71,345.67Z" style="fill:#263238"></path><path d="M353.17,344c-.14,0-.46-.75-.72-1.75s-.36-1.84-.22-1.87.46.74.72,1.74S353.31,344,353.17,344Z" style="fill:#263238"></path><path d="M357.81,342.46c-.13.06-.54-.54-.76-1.4s-.16-1.59,0-1.59.32.65.53,1.46S357.94,342.4,357.81,342.46Z" style="fill:#263238"></path><path d="M338.31,340.57a2.39,2.39,0,0,1-.73-.69,6.19,6.19,0,0,1-1.18-2.45,5.9,5.9,0,0,1-.15-1.92,1.56,1.56,0,0,1,.54-1.05.91.91,0,0,1,.68-.16,1.37,1.37,0,0,1,.6.27,3.07,3.07,0,0,1,1.13,2.21,6.29,6.29,0,0,1-.29,2.6,6.19,6.19,0,0,1-4.39,4,1.34,1.34,0,0,1-.64,0,.56.56,0,0,1-.38-.65,1.94,1.94,0,0,1,.57-.9,5.52,5.52,0,0,1,.66-.63,6.27,6.27,0,0,1,2.44-1.24,2.34,2.34,0,0,1,1-.11,8.22,8.22,0,0,0-3.19,1.63,5.79,5.79,0,0,0-.6.61,1.83,1.83,0,0,0-.45.71c0,.1,0,.12.09.15a.86.86,0,0,0,.39,0,4.72,4.72,0,0,0,1-.36,5.73,5.73,0,0,0,3-3.39,5.61,5.61,0,0,0,.28-2.38,2.66,2.66,0,0,0-.9-1.89.63.63,0,0,0-.74-.12,1.19,1.19,0,0,0-.37.75,5.44,5.44,0,0,0,.08,1.77A8.18,8.18,0,0,0,338.31,340.57Z" style="fill:#263238"></path></g></svg>