<svg xmlns="http://www.w3.org/2000/svg" viewBox="0 0 3398.47 3108.78"><defs><style>.cls-1{fill:#ede7f5;}</style></defs><title>Asset 6</title><g id="Layer_2" data-name="Layer 2"><g id="Layer_1-2" data-name="Layer 1"><path class="cls-1" d="M3243.69,416.46c49.19,92.6,75.72,195.76,75,300.76a641,641,0,0,1-20,154c-12.74,49.88-33.88,97.35-44.65,147.75-19.45,91,19.19,169.82,56.25,250.45,20.58,44.78,39.47,90.75,44.54,140.2,5.32,51.87-3.52,103.91-9.4,155.33-5.8,50.8-8.07,101.37,4.71,151.32,12.5,48.85,34.46,95,43.08,144.92,14.33,82.92-8.3,169.87-55.55,238.8-24.5,35.76-55.84,67-92.39,90.35-40.52,25.93-86.45,39.47-133.2,49.17-49.67,10.3-100.38,17-148.45,33.74a358.64,358.64,0,0,0-88.55,45.83c-107.82,76.14-172.27,198.58-238.58,309.13-67.52,112.58-144.5,235.74-272.34,286-179.12,70.37-364.47-36.52-541.76-60.26-92.72-12.42-180.22,2.88-265.45,40.75-90.8,40.37-173.11,97.13-263.09,139.15-180.62,84.36-407.1,113.89-576.39-12.92-82-61.43-120.12-153.75-172.59-238.24-43.64-70.28-103.28-126-168.71-175.74C237.3,2501.3,71.07,2410.48,18.05,2231.75-11.16,2133.29-.87,2032,38.64,1938.18c35.23-83.67,86.56-161.34,109.28-250,10.68-41.62,13.43-84.37,6.69-126.9-7.87-49.66-26.43-96.78-44.86-143.29-19.1-48.23-37.16-96.48-48.69-147.17A746.54,746.54,0,0,1,42.51,1104c.09-53.09,5.23-107,17.65-158.65,10.68-44.45,29.3-90.76,67.84-118.13,39.81-28.29,91.49-24.92,137.26-35a329,329,0,0,0,83.66-30.95c111.35-59.1,185.8-169.66,258-269.09,74.8-103.09,155.66-218.75,277.71-269.07C975.87,185.55,1072,202,1167.14,210.91c102.09,9.59,199.92-5.83,297.08-37.48C1651,112.59,1825.77,8.27,2026.77,1.8c93.83-3,188.79,17.63,264.52,75.35,73.62,56.12,126.63,134,216.15,167.59,92.77,34.82,194.41,27.55,291.21,20.24,54.5-4.12,109.25-8.31,163.93-5.07,46.39,2.75,92.39,12,136.62,26.29,67.11,21.64,105.36,74.52,144.49,130.26.38.55,1.29,0,.9-.53-36.52-52-73.5-105.23-135.57-127.51C3017,255.37,2920.8,255.06,2824.43,262,2721,269.46,2612.85,281.23,2513,245.65c-50-17.8-91-48.59-129.08-84.82-34.11-32.42-66.36-67.3-105.25-94.2C2126-39,1921.24-1.42,1758.62,58.3c-98,36-192.61,80.6-291.84,113.19-50.73,16.67-102.67,30.13-155.69,37-54.58,7.08-108.64,5.16-163.24-.59-90.25-9.5-181-20.83-266.95,15.67-57.08,24.26-105.79,64.12-148.21,108.76C639.65,430.26,573.39,549.82,483,650c-42.89,47.55-92,91-150.44,118.32C298.55,784.22,263,792.8,225.86,797.68c-42.66,5.59-85.35,11.91-116.63,44.28-27.57,28.53-41.78,67.62-50.65,105.56-11.71,50-16.83,102.06-17.12,153.39-.6,107.8,24.49,209.38,64,309,18.82,47.48,38.31,95.31,47.19,145.86s4.19,100.83-10.67,149.68c-27.43,90.19-81.34,169.28-114.26,257.28-33.36,89.16-37.17,186.38-8.16,277.35,26.64,83.53,80.37,152.27,145.55,209.55,63.56,55.86,135.12,101.5,202.65,152.23,74.2,55.74,139,117.8,186.46,198.3,47.79,81.11,87,165.73,164.82,223.18,71.85,53.09,161,80.76,249.8,84.83,102.36,4.7,204.08-20.83,297.62-61,93.83-40.25,178.35-98.26,270.35-142.12,45.77-21.82,93.64-40,143.71-48.89,50.54-9,102-7.32,152.57.28,96.2,14.45,188,48.45,283,68.12,84.33,17.45,172.41,21.88,253.53-11.53,58.19-24,107.3-64.53,148.46-111.56,90.92-103.9,147.12-232.48,226.74-344.42,39.9-56.09,86.31-109.06,144.67-146.52,81.16-52.11,175.83-55.26,266.31-80.41,78.91-21.94,145.05-70.14,189.15-139.38,41.31-64.86,61.36-144.1,50.65-220.66-7-50.3-28.61-96.77-42.16-145.38-15.32-55-12.91-109.84-6.31-165.91,6.17-52.41,14.56-105.5,7.66-158.29-5.58-42.66-21.61-82.93-39.21-121.89-20-44.25-42.74-87.7-56.07-134.6-14.77-52-12-102.42,2.92-154.06,14.84-51.33,34.66-100.65,45.08-153.26a636.3,636.3,0,0,0,11.84-145.73c-3.37-96.26-29.66-190.18-74.79-275.12-.31-.6-1.22-.07-.9.53Z" transform="translate(-0.02)"/></g></g></svg>