<svg xmlns="http://www.w3.org/2000/svg" viewBox="0 0 3398.91 3109.23"><defs><style>.cls-1{fill:#ede7f5;}</style></defs><title>Asset 4</title><g id="Layer_2" data-name="Layer 2"><g id="Layer_1-2" data-name="Layer 1"><path class="cls-1" d="M3243.7,416.8c49.17,92.56,75.69,195.69,75,300.65a641,641,0,0,1-20,154c-12.74,49.88-33.88,97.35-44.65,147.74-19.47,91.06,19.18,169.94,56.27,250.63,20.57,44.74,39.45,90.68,44.52,140.09,5.32,51.87-3.52,103.9-9.4,155.33-5.81,50.82-8.08,101.4,4.71,151.37,12.5,48.85,34.46,95,43.08,144.92,14.32,82.86-8.31,169.76-55.52,238.64-24.49,35.72-55.8,66.89-92.32,90.26-40.5,25.92-86.4,39.46-133.14,49.15-49.67,10.29-100.38,17-148.45,33.74a358.51,358.51,0,0,0-88.6,45.85c-107.86,76.16-172.33,198.63-238.66,309.21C2569,2740.88,2492,2864,2364.27,2914.22c-179.09,70.36-364.44-36.54-541.7-60.27-92.77-12.42-180.3,2.89-265.56,40.79-90.81,40.36-173.12,97.12-263.1,139.14C1113.37,3118.21,887,3147.72,717.76,3021c-82-61.41-120.07-153.71-172.51-238.16-43.67-70.31-103.33-126-168.8-175.82-138.77-105.61-305-196.4-358-375.07-29.2-98.4-18.92-199.62,20.58-293.42,35.23-83.68,86.56-161.36,109.29-250,10.68-41.67,13.43-84.45,6.69-127-7.88-49.67-26.43-96.78-44.86-143.3C91.07,1369.94,73,1321.68,61.49,1271a746.07,746.07,0,0,1-18.55-166.75c.1-53.08,5.23-106.93,17.64-158.59,10.67-44.4,29.26-90.66,67.74-118,39.79-28.28,91.46-24.91,137.21-34.93a329.24,329.24,0,0,0,83.71-31c111.39-59.12,185.86-169.71,258-269.17,74.76-103,155.59-218.67,277.58-269,91.27-37.62,187.39-21.2,282.5-12.26,102.11,9.59,200-5.83,297.14-37.49C1651.28,113,1826,8.72,2027,2.25c93.78-3,188.69,17.61,264.39,75.3,73.64,56.14,126.66,134,216.22,167.63,92.79,34.82,194.45,27.56,291.27,20.25,54.5-4.12,109.25-8.31,163.93-5.07,46.37,2.74,92.35,12,136.56,26.28,67.05,21.62,105.26,74.47,144.35,130.16.55.78,1.85,0,1.3-.76-36.57-52.09-73.58-105.31-135.71-127.61C3017.2,255.37,2921,255.06,2824.64,262c-103.38,7.45-211.54,19.22-311.38-16.35-49.93-17.78-90.9-48.56-129-84.77-34.13-32.43-66.39-67.32-105.29-94.23C2126.26-39,1921.45-1.43,1758.77,58.31c-98,36-192.61,80.59-291.84,113.19-50.72,16.66-102.65,30.13-155.66,37-54.57,7.08-108.62,5.15-163.21-.59C1057.77,198.42,967,187.1,881,223.62c-57.1,24.27-105.83,64.14-148.26,108.79-93,97.92-159.3,217.48-249.65,317.65-42.88,47.53-92,91-150.39,118.28-34,15.89-69.53,24.47-106.63,29.34-42.73,5.6-85.47,11.93-116.79,44.35C81.69,870.59,67.45,909.7,58.57,947.69c-11.71,50-16.83,102.09-17.12,153.44-.61,107.83,24.48,209.42,64,309.12,18.82,47.48,38.32,95.31,47.2,145.85s4.17,100.76-10.67,149.56C114.52,1795.85,60.61,1875,27.69,1962.94c-33.37,89.2-37.18,186.47-8.16,277.47,26.65,83.57,80.4,152.34,145.61,209.65,63.57,55.88,135.15,101.53,202.7,152.27,74.17,55.72,139,117.75,186.37,198.21,47.82,81.15,87.1,165.8,164.9,223.27,71.89,53.11,161.1,80.78,249.92,84.86,102.4,4.7,204.15-20.84,297.73-61,93.83-40.25,178.36-98.26,270.36-142.12,45.74-21.81,93.6-40,143.64-48.87,50.5-9,101.91-7.31,152.46.28,96.2,14.45,188,48.45,283,68.12,84.36,17.46,172.49,21.9,253.65-11.53,58.23-24,107.37-64.56,148.55-111.62,90.94-103.91,147.15-232.51,226.78-344.46,39.88-56.06,86.27-109,144.59-146.44,81.15-52.1,175.8-55.24,266.26-80.39,79-22,145.15-70.19,189.28-139.48,41.35-64.92,61.4-144.22,50.68-220.84-7-50.3-28.61-96.76-42.16-145.37-15.32-55-12.91-109.8-6.31-165.85,6.17-52.42,14.56-105.5,7.66-158.29-5.58-42.7-21.62-83-39.23-122-20-44.23-42.73-87.66-56.05-134.54-14.76-51.94-12-102.34,2.91-153.95,14.85-51.33,34.66-100.65,45.08-153.26a636.22,636.22,0,0,0,11.85-145.79C3316.44,595,3290.14,501,3245,416c-.46-.85-1.75-.1-1.3.76Z"/></g></g></svg>