<svg width="520" height="721" viewBox="0 0 520 721" fill="none" xmlns="http://www.w3.org/2000/svg">
<g clip-path="url(#clip0)">
<path opacity="0.25" d="M115.362 102.42L-53.5547 35L-139.096 148.092L-53.5547 289.457L115.362 236.174V102.42Z" fill="white"/>
<path opacity="0.25" d="M99.4575 128.111L-69.459 60.6904L-155 173.783L-69.459 315.148L99.4575 261.864V128.111Z" stroke="white" stroke-width="1.50027"/>
<path opacity="0.25" d="M511.799 551.937L330.309 561.906L300.359 700.419L437.39 792.566L568.086 673.181L511.799 551.937Z" stroke="white" stroke-width="1.50027"/>
<path opacity="0.25" d="M537.919 526.094L356.392 535.39L325.931 673.792L462.619 766.445L593.756 647.545L537.919 526.094Z" fill="white"/>
<path opacity="0.25" d="M121.492 581.675L-37.1028 492.872L-136.591 593.793L-70.24 745.008L104.074 714.207L121.492 581.675Z" stroke="white" stroke-width="1.50027"/>
<path opacity="0.25" d="M157.39 573.843L-0.875137 484.453L-100.736 585.005L-34.9455 736.465L139.481 706.31L157.39 573.843Z" fill="white"/>
<path opacity="0.25" d="M571.492 37.6747L412.897 -51.1279L313.409 49.7926L379.76 201.008L554.074 170.207L571.492 37.6747Z" stroke="white" stroke-width="1.50027"/>
<path opacity="0.25" d="M607.39 29.8425L449.125 -59.5466L349.264 41.0049L415.054 192.465L589.481 162.31L607.39 29.8425Z" fill="white"/>
<path opacity="0.25" d="M365.492 337.675L206.897 248.872L107.409 349.793L173.76 501.008L348.074 470.207L365.492 337.675Z" stroke="white" stroke-width="1.50027"/>
<path opacity="0.25" d="M401.39 329.843L243.125 240.453L143.264 341.005L209.054 492.465L383.481 462.31L401.39 329.843Z" fill="white"/>
</g>
<defs>
<clipPath id="clip0">
<rect width="520" height="721" fill="white"/>
</clipPath>
</defs>
</svg>
